<svg xmlns="http://www.w3.org/2000/svg">
<defs>
<font id="CiutadellaW04-SmBold" horiz-adv-x="506" >
  <font-face 
    font-family="CiutadellaW04-SmBold"
    font-weight="600"
    font-stretch="normal"
    units-per-em="1000"
    panose-1="0 0 0 0 0 0 0 0 0 0"
    ascent="750"
    descent="-250"
    x-height="490"
    cap-height="657"
    bbox="-160 -235 1370 897"
    underline-thickness="50"
    underline-position="-100"
    unicode-range="U+000D-U+FB05"
  />
<missing-glyph horiz-adv-x="841" 
d="M421 236l-92 -91.998c-8 -8 -15 -12 -21 -12c-7.33301 0 -14.333 4 -21 12l-51 52c-7.33301 7.33301 -11 13.666 -11 18.999c0 6.66699 4 13.667 12 21l92 92l-92 92c-8.66699 8 -13 15.333 -13 22c0 5.33301 3.66699 11.666 11 18.999l51 52
c8.66699 7.33301 15.667 11 21 11c6.66699 0 14 -4 22 -12l92 -92l92 92c8.66699 8.66699 16 13 22 13c5.33301 0 11.666 -3.66699 18.999 -11l52 -51c7.33301 -8.66699 11 -16 11 -22c0 -7.33301 -4 -14.333 -12 -21l-92 -92l92 -92c8 -9.33301 12 -16.333 12 -21
c0 -7.33301 -4 -14.333 -12 -21l-52 -51c-7.33301 -7.33301 -13.666 -11 -18.999 -11c-7.33301 0 -14.333 4 -21 12zM80 328.002c0 46.667 8.83594 90.667 26.5029 132s42 77.333 73 108s67 54.834 108 72.501s85.167 26.5 132.5 26.5c46.667 0 90.667 -8.83301 132 -26.5
s77.5 -41.834 108.5 -72.501s55.333 -66.667 73 -108s26.5 -85.333 26.5 -132c0 -47.333 -9 -91.5 -27 -132.5s-42.333 -76.667 -73 -107s-66.834 -54.333 -108.501 -72s-85.834 -26.5 -132.501 -26.5c-47.333 0 -91.5 8.83301 -132.5 26.5s-76.833 41.667 -107.5 72
s-54.834 66 -72.501 107s-26.5 85.167 -26.5 132.5zM128.003 328.002c0 -40.667 7.5 -78.834 22.5 -114.501s35.667 -66.667 62 -93s57.166 -47.166 92.499 -62.499s73.333 -23 114 -23s78.667 7.66699 114 23s66.166 36.166 92.499 62.499s47.166 57.333 62.499 93
s23 73.834 23 114.501s-7.5 78.834 -22.5 114.501s-35.667 66.834 -62 93.501s-57.166 47.667 -92.499 63s-73.333 23 -114 23s-78.667 -7.66699 -114 -23s-66.166 -36.333 -92.499 -63s-47.166 -57.834 -62.499 -93.501s-23 -73.834 -23 -114.501z" />
    <glyph glyph-name=".notdef" horiz-adv-x="841" 
d="M421 236l-92 -91.998c-8 -8 -15 -12 -21 -12c-7.33301 0 -14.333 4 -21 12l-51 52c-7.33301 7.33301 -11 13.666 -11 18.999c0 6.66699 4 13.667 12 21l92 92l-92 92c-8.66699 8 -13 15.333 -13 22c0 5.33301 3.66699 11.666 11 18.999l51 52
c8.66699 7.33301 15.667 11 21 11c6.66699 0 14 -4 22 -12l92 -92l92 92c8.66699 8.66699 16 13 22 13c5.33301 0 11.666 -3.66699 18.999 -11l52 -51c7.33301 -8.66699 11 -16 11 -22c0 -7.33301 -4 -14.333 -12 -21l-92 -92l92 -92c8 -9.33301 12 -16.333 12 -21
c0 -7.33301 -4 -14.333 -12 -21l-52 -51c-7.33301 -7.33301 -13.666 -11 -18.999 -11c-7.33301 0 -14.333 4 -21 12zM80 328.002c0 46.667 8.83594 90.667 26.5029 132s42 77.333 73 108s67 54.834 108 72.501s85.167 26.5 132.5 26.5c46.667 0 90.667 -8.83301 132 -26.5
s77.5 -41.834 108.5 -72.501s55.333 -66.667 73 -108s26.5 -85.333 26.5 -132c0 -47.333 -9 -91.5 -27 -132.5s-42.333 -76.667 -73 -107s-66.834 -54.333 -108.501 -72s-85.834 -26.5 -132.501 -26.5c-47.333 0 -91.5 8.83301 -132.5 26.5s-76.833 41.667 -107.5 72
s-54.834 66 -72.501 107s-26.5 85.167 -26.5 132.5zM128.003 328.002c0 -40.667 7.5 -78.834 22.5 -114.501s35.667 -66.667 62 -93s57.166 -47.166 92.499 -62.499s73.333 -23 114 -23s78.667 7.66699 114 23s66.166 36.166 92.499 62.499s47.166 57.333 62.499 93
s23 73.834 23 114.501s-7.5 78.834 -22.5 114.501s-35.667 66.834 -62 93.501s-57.166 47.667 -92.499 63s-73.333 23 -114 23s-78.667 -7.66699 -114 -23s-66.166 -36.333 -92.499 -63s-47.166 -57.834 -62.499 -93.501s-23 -73.834 -23 -114.501z" />
    <glyph glyph-name="glyph1" horiz-adv-x="0" 
 />
    <glyph glyph-name="glyph1" horiz-adv-x="0" 
 />
    <glyph glyph-name="uni000D" unicode="&#xd;" horiz-adv-x="0" 
 />
    <glyph glyph-name="space" unicode=" " horiz-adv-x="197" 
 />
    <glyph glyph-name="exclam" unicode="!" horiz-adv-x="255" 
d="M164 187h-73l-26 303v167h124v-167zM57 60c0 20 6.83301 36.833 20.5 50.5s30.167 20.5 49.5 20.5c20 0 36.833 -6.83301 50.5 -20.5s20.5 -30.5 20.5 -50.5c0 -19.333 -6.83301 -35.833 -20.5 -49.5s-30.5 -20.5 -50.5 -20.5c-19.333 0 -35.833 6.83301 -49.5 20.5
s-20.5 30.167 -20.5 49.5z" />
    <glyph glyph-name="quotedbl" unicode="&#x22;" horiz-adv-x="383" 
d="M167 657l-0.000976562 -71c0 -7.33301 -0.5 -16.5 -1.5 -27.5s-2.16699 -22.167 -3.5 -33.5s-2.83301 -22 -4.5 -32s-2.83398 -18 -3.50098 -24l-6 -42h-77l-6 42c-1.33301 6 -2.66602 14 -3.99902 24s-2.66602 20.667 -3.99902 32s-2.5 22.5 -3.5 33.5
s-1.5 20.167 -1.5 27.5v71h115zM330.999 657v-71c0 -7.33301 -0.5 -16.5 -1.5 -27.5s-2.16699 -22.167 -3.5 -33.5s-2.83301 -22 -4.5 -32s-2.83398 -18 -3.50098 -24l-6 -42h-77l-6 42c-1.33301 6 -2.66602 14 -3.99902 24s-2.5 20.667 -3.5 32l-3 33.5
c-1 11 -1.5 20.167 -1.5 27.5v71h114z" />
    <glyph glyph-name="numbersign" unicode="#" horiz-adv-x="660" 
d="M511 490h109v-77h-124l-31 -169h125v-77h-139l-31 -167h-89l31 167h-124l-31 -167h-89l31 167h-109v77h124l31 169h-125v77h139l31 167h89l-31 -167h124l31 167h89zM252 244h125l31 169h-125z" />
    <glyph glyph-name="dollar" unicode="$" horiz-adv-x="514" 
d="M338 460l-0.00195312 19.002c0 25.333 -7.66699 45.833 -23 61.5s-35.666 23.5 -60.999 23.5c-26 0 -45.833 -6.83301 -59.5 -20.5s-20.5 -31.167 -20.5 -52.5c0 -12.667 3.5 -26 10.5 -40s20.833 -25 41.5 -33l87 -34c19.333 -8 38.5 -16.833 57.5 -26.5
s36.167 -21.834 51.5 -36.501s27.833 -32.667 37.5 -54s14.5 -47 14.5 -77c0 -54 -15.667 -98.5 -47 -133.5s-74 -56.167 -128 -63.5v-101h-91v103c-51.333 8.66699 -92.333 29.334 -123 62.001s-46 74.667 -46 126v22h123v-27c0 -26.667 8.33301 -47.334 25 -62.001
s40 -22 70 -22c31.333 0 55 7.83301 71 23.5s24 35.5 24 59.5c0 39.333 -20.667 67.666 -62 84.999l-94 37c-43.333 17.333 -78 40.5 -104 69.5s-39 66.833 -39 113.5c0 22 3.5 43 10.5 63s17.167 38 30.5 54s29.5 29.5 48.5 40.5s40.833 18.833 65.5 23.5v102h91v-102
c48.667 -8 87.834 -28.5 117.501 -61.5s44.5 -75.5 44.5 -127.5v-14h-123z" />
    <glyph glyph-name="percent" unicode="%" horiz-adv-x="642" 
d="M124 447c0 -13.333 3.5 -24.333 10.5 -33s17.167 -13 30.5 -13s23.5 4.33301 30.5 13s10.5 19.667 10.5 33v101c0 13.333 -3.5 24.333 -10.5 33s-17.167 13 -30.5 13s-23.5 -4.33301 -30.5 -13s-10.5 -19.667 -10.5 -33v-101zM288 445c0 -34 -10.5 -62 -31.5 -84
s-51.5 -33 -91.5 -33s-70.5 11 -91.5 33s-31.5 50 -31.5 84v105c0 34 10.5 62 31.5 84s51.5 33 91.5 33s70.5 -11 91.5 -33s31.5 -50 31.5 -84v-105zM462 657h93l-192 -329l-183 -328h-93l193 330zM435 109c0 -13.333 3.66699 -24.333 11 -33s17.666 -13 30.999 -13
s23.5 4.33301 30.5 13s10.5 19.667 10.5 33v101c0 13.333 -3.5 24.333 -10.5 33s-17.167 13 -30.5 13s-23.666 -4.33301 -30.999 -13s-11 -19.667 -11 -33v-101zM600 107c0 -34 -10.667 -62 -32 -84s-51.666 -33 -90.999 -33c-40 0 -70.5 11 -91.5 33s-31.5 50 -31.5 84v105
c0 34 10.5 62 31.5 84s51.5 33 91.5 33c39.333 0 69.666 -11 90.999 -33s32 -50 32 -84v-105z" />
    <glyph glyph-name="ampersand" unicode="&#x26;" horiz-adv-x="589" 
d="M560 290l-69 0.000976562v-99c0 -29.333 -5.16699 -56.333 -15.5 -81s-25 -45.834 -44 -63.501s-42.167 -31.5 -69.5 -41.5s-57.666 -15 -90.999 -15c-34 0 -65 4.5 -93 13.5s-51.833 21.667 -71.5 38s-34.834 36.333 -45.501 60s-16 50.167 -16 79.5
c0 40.667 9.5 74.5 28.5 101.5s44.5 47.167 76.5 60.5c-26 13.333 -46.667 31.833 -62 55.5s-23 52.5 -23 86.5c0 26.667 4.83301 51.167 14.5 73.5s23.167 41.5 40.5 57.5s38.5 28.5 63.5 37.5s53.167 13.5 84.5 13.5s59.5 -4.83301 84.5 -14.5s46.333 -23.167 64 -40.5
s31.167 -37.833 40.5 -61.5s14 -49.5 14 -77.5v-15h-118v15c0 26 -7 47 -21 63s-34 24 -60 24s-46.333 -7.16699 -61 -21.5s-22 -35.166 -22 -62.499c0 -28.667 8 -50.834 24 -66.501s41.333 -23.5 76 -23.5h271v-96zM275 94.001c31.333 0 55.666 8.66699 72.999 26
s26 41 26 71v99h-86c-39.333 0 -68.666 -8.66699 -87.999 -26s-29 -41.333 -29 -72c0 -65.333 34.667 -98 104 -98z" />
    <glyph glyph-name="quotesingle" unicode="'" horiz-adv-x="223" 
d="M171 657l-0.000976562 -71c0 -7.33301 -0.5 -16.5 -1.5 -27.5s-2.16699 -22.167 -3.5 -33.5s-2.83301 -22 -4.5 -32s-2.83398 -18 -3.50098 -24l-6 -42h-81l-6 42c-1.33301 6 -2.66602 14 -3.99902 24s-2.66602 20.667 -3.99902 32s-2.5 22.5 -3.5 33.5
s-1.5 20.167 -1.5 27.5v71h119z" />
    <glyph glyph-name="parenleft" unicode="(" horiz-adv-x="318" 
d="M280 0v-111h-9c-70 0 -122.833 18.667 -158.5 56s-53.5 88.333 -53.5 153v458c0 64.667 17.833 115.667 53.5 153s88.5 56 158.5 56h9v-111h-10c-28.667 0 -50.334 -8.33301 -65.001 -25s-22 -39 -22 -67v-470c0 -28 7.33301 -50.333 22 -67s36.334 -25 65.001 -25h10z
" />
    <glyph glyph-name="parenright" unicode=")" horiz-adv-x="318" 
d="M48 0c28.667 0 50.334 8.33301 65.001 25s22 39 22 67v470c0 28 -7.33301 50.333 -22 67s-36.334 25 -65.001 25h-10v111h9c70 0 122.833 -18.667 158.5 -56s53.5 -88.333 53.5 -153v-458c0 -64.667 -17.833 -115.667 -53.5 -153s-88.5 -56 -158.5 -56h-9v111h10z" />
    <glyph glyph-name="asterisk" unicode="*" horiz-adv-x="392" 
d="M183 480l-67 -72l-31 -18l-42 72l31 18l95 24l-95 24l-31 19l41 70l32 -18l67 -74l-28 96v36h83v-36l-27 -93l65 71l32 18l41 -70l-31 -19l-97 -24l97 -24l31 -18l-42 -72l-31 18l-66 70l28 -92v-36h-83v36z" />
    <glyph glyph-name="plus" unicode="+" horiz-adv-x="487" 
d="M303 381h143v-108h-143v-143h-119v143h-143v108h143v142h119v-142z" />
    <glyph glyph-name="comma" unicode="," horiz-adv-x="241" 
d="M195 118l-96 -212h-74l46 212h124z" />
    <glyph glyph-name="hyphen" unicode="-" horiz-adv-x="356" 
d="M58 313h240v-107h-240v107z" />
    <glyph glyph-name="period" unicode="." horiz-adv-x="234" 
d="M47 60c0 20 6.83301 36.833 20.5 50.5s30.167 20.5 49.5 20.5s36 -6.83301 50 -20.5s21 -30.5 21 -50.5c0 -19.333 -7 -35.833 -21 -49.5s-30.667 -20.5 -50 -20.5s-35.833 6.83301 -49.5 20.5s-20.5 30.167 -20.5 49.5z" />
    <glyph glyph-name="slash" unicode="/" horiz-adv-x="463" 
d="M437 765l-295 -876h-116l295 876h116z" />
    <glyph glyph-name="zero" unicode="0" horiz-adv-x="550" 
d="M182 202c0 -30 8 -54.167 24 -72.5s39 -27.5 69 -27.5s53 9.16699 69 27.5s24 42.5 24 72.5v253c0 30 -8 54.167 -24 72.5s-39 27.5 -69 27.5s-53 -9.16699 -69 -27.5s-24 -42.5 -24 -72.5v-253zM493 200c0 -32 -5.33301 -61.001 -16 -87.001s-25.5 -48.167 -44.5 -66.5
s-41.833 -32.333 -68.5 -42s-56.334 -14.5 -89.001 -14.5c-32 0 -61.333 4.83301 -88 14.5s-49.5 23.667 -68.5 42s-33.833 40.5 -44.5 66.5s-16 55 -16 87v257c0 64.667 18.667 115.834 56 153.501s91 56.5 161 56.5c32.667 0 62.334 -4.83301 89.001 -14.5
s49.5 -23.667 68.5 -42s33.833 -40.5 44.5 -66.5s16 -55 16 -87v-257z" />
    <glyph glyph-name="one" unicode="1" horiz-adv-x="429" 
d="M47 657h238v-548h116v-109h-354v109h114v437h-114v111z" />
    <glyph glyph-name="two" unicode="2" horiz-adv-x="529" 
d="M46 49c0 22.667 1.33105 44.501 3.99805 65.501s8 41.167 16 60.5s19.333 37.666 34 54.999s34 34 58 50l116 77c21.333 13.333 39.333 29.666 54 48.999s22 43.333 22 72c0 23.333 -7.16699 42 -21.5 56s-36.166 21 -65.499 21c-28.667 0 -51 -7.83301 -67 -23.5
s-24 -36.167 -24 -61.5v-18h-120v20c0 28.667 5.16699 54.834 15.5 78.501s24.833 44.167 43.5 61.5s41.334 30.833 68.001 40.5s56 14.5 88 14.5s61 -4.16699 87 -12.5s48.333 -20.5 67 -36.5s33 -35.333 43 -58s15 -48 15 -76c0 -47.333 -10.5 -87.333 -31.5 -120
s-51.5 -62 -91.5 -88l-117 -78c-21.333 -14 -35.5 -28.5 -42.5 -43.5s-11.167 -28.5 -12.5 -40.5h295v-114h-433v49z" />
    <glyph glyph-name="three" unicode="3" horiz-adv-x="526" 
d="M203 386l44.9971 -0.00195312c34 0 58.167 7.33301 72.5 22s21.5 36 21.5 64c0 26 -7.5 46.333 -22.5 61s-36.167 22 -63.5 22c-28 0 -49.667 -7.66699 -65 -23s-23 -35.666 -23 -60.999v-14h-120v16c0 28 5 53.833 15 77.5s24.333 44.167 43 61.5
s40.834 30.833 66.501 40.5s54.5 14.5 86.5 14.5s60.833 -4.5 86.5 -13.5s47.334 -21.5 65.001 -37.5s31.334 -35 41.001 -57s14.5 -46.333 14.5 -73c0 -35.333 -6.66699 -64.833 -20 -88.5s-31.333 -42.167 -54 -55.5c26 -13.333 46.833 -33.166 62.5 -59.499
s23.5 -59.5 23.5 -99.5c0 -29.333 -5.16699 -55.833 -15.5 -79.5s-25.166 -44 -44.499 -61s-42.5 -30 -69.5 -39s-57.167 -13.5 -90.5 -13.5c-32.667 0 -62.167 4.66699 -88.5 14s-48.833 22.5 -67.5 39.5s-33 37.333 -43 61s-15 50.167 -15 79.5v15h120v-13
c0 -26.667 8 -48 24 -64s38.667 -24 68 -24c30.667 0 54 8.5 70 25.5s24 41.167 24 72.5c0 30 -8.33301 53 -25 69s-42.334 24 -77.001 24h-45v97z" />
    <glyph glyph-name="four" unicode="4" horiz-adv-x="558" 
d="M453 657v-412h71v-105h-71v-140h-123v140h-299v119l275 398h147zM330 245v268l-185 -268h185z" />
    <glyph glyph-name="five" unicode="5" horiz-adv-x="522" 
d="M451 548l-271.999 0.00292969v-167c12 10 27 18.167 45 24.5s39.667 9.5 65 9.5c28.667 0 54.834 -4.66699 78.501 -14s44 -22.833 61 -40.5s30.167 -39.334 39.5 -65.001s14 -54.834 14 -87.501c0 -34 -5.33301 -64.5 -16 -91.5s-25.5 -49.833 -44.5 -68.5
s-41.833 -33 -68.5 -43s-56.334 -15 -89.001 -15c-32 0 -61.167 4 -87.5 12s-49 19.667 -68 35s-33.667 33.833 -44 55.5s-15.5 46.167 -15.5 73.5v16h120v-15c0 -21.333 7.66699 -38.5 23 -51.5s37.666 -19.5 66.999 -19.5c31.333 0 55 9.66699 71 29s24 46 24 80
c0 32 -7 58.167 -21 78.5s-37 30.5 -69 30.5c-24 0 -42.833 -3.83301 -56.5 -11.5s-25.167 -15.834 -34.5 -24.501h-107v379h385v-109z" />
    <glyph glyph-name="six" unicode="6" horiz-adv-x="537" 
d="M492 196c0 -33.333 -5.33105 -62.833 -15.998 -88.5s-25.5 -47.167 -44.5 -64.5s-42 -30.5 -69 -39.5s-56.5 -13.5 -88.5 -13.5s-61.333 4.66699 -88 14s-49.5 23 -68.5 41s-33.833 40.167 -44.5 66.5s-16 56.5 -16 90.5v249c0 66.667 19 119.334 57 158.001
s91.667 58 161 58c31.333 0 59.833 -4.33301 85.5 -13s47.667 -21 66 -37s32.5 -35.333 42.5 -58s15 -48.334 15 -77.001v-10h-121v8c0 23.333 -7.5 42.333 -22.5 57s-36.167 22 -63.5 22c-30.667 0 -54.167 -8.5 -70.5 -25.5s-24.5 -40.833 -24.5 -71.5v-102
c13.333 10.667 29.666 19.667 48.999 27s41.666 11 66.999 11c60 0 107.333 -18 142 -54s52 -85.333 52 -148zM275.002 296c-24.667 0 -44 -4.33301 -58 -13s-25.667 -17.667 -35 -27v-53c0 -36 8 -63 24 -81s38.333 -27 67 -27c30 0 52.667 8.66699 68 26s23 41 23 71
s-7 54.833 -21 74.5s-36.667 29.5 -68 29.5z" />
    <glyph glyph-name="seven" unicode="7" horiz-adv-x="463" 
d="M31 657h405v-94l-219 -563h-133l215 548h-268v109z" />
    <glyph glyph-name="eight" unicode="8" horiz-adv-x="530" 
d="M470 484c0 -36 -6.99805 -65.833 -20.998 -89.5s-32.333 -41.5 -55 -53.5c26 -11.333 47.333 -29.833 64 -55.5s25 -59.5 25 -101.5c0 -29.333 -5.16699 -55.833 -15.5 -79.5s-25 -44 -44 -61s-42 -30.167 -69 -39.5s-56.833 -14 -89.5 -14s-62.334 4.66699 -89.001 14
s-49.5 22.5 -68.5 39.5s-33.667 37.333 -44 61s-15.5 50.167 -15.5 79.5c0 42 8.16699 75.667 24.5 101s37.5 43.666 63.5 54.999c-23.333 12.667 -42 30.834 -56 54.501s-21 53.5 -21 89.5c0 26.667 4.83301 51.334 14.5 74.001s23.5 42 41.5 58s39.667 28.5 65 37.5
s53.666 13.5 84.999 13.5s59.666 -4.5 84.999 -13.5s46.833 -21.5 64.5 -37.5s31.334 -35.333 41.001 -58s14.5 -47.334 14.5 -74.001zM174.002 191c0 -32 7.83301 -56.333 23.5 -73s38.167 -25 67.5 -25c30 0 52.667 8.33301 68 25s23 41 23 73
c0 31.333 -7.5 55.666 -22.5 72.999s-37.833 26 -68.5 26c-31.333 0 -54.333 -8.66699 -69 -26s-22 -41.666 -22 -72.999zM182.002 475c0 -28 6.5 -50.333 19.5 -67s34.167 -25 63.5 -25s50.333 8.33301 63 25s19 39 19 67c0 27.333 -7.16699 48.333 -21.5 63
s-34.5 22 -60.5 22c-27.333 0 -48 -7.33301 -62 -22s-21 -35.667 -21 -63z" />
    <glyph glyph-name="nine" unicode="9" horiz-adv-x="536" 
d="M45 461c0 32.667 5.33203 61.833 15.999 87.5s25.667 47.167 45 64.5s42.333 30.666 69 39.999s56.334 14 89.001 14c32 0 61.167 -4.83301 87.5 -14.5s49 -24 68 -43s33.667 -42.667 44 -71s15.5 -61.166 15.5 -98.499v-234c0 -66.667 -19 -119.334 -57 -158.001
s-91.667 -58 -161 -58c-31.333 0 -59.833 4.33301 -85.5 13s-47.5 21 -65.5 37s-32 35.333 -42 58s-15 48.334 -15 77.001v10h120v-8c0 -23.333 7.5 -42.333 22.5 -57s36.5 -22 64.5 -22c30.667 0 54.167 8.5 70.5 25.5s24.5 41.167 24.5 72.5v100
c-14 -10.667 -30.667 -19.5 -50 -26.5s-41.333 -10.5 -66 -10.5c-60 0 -107.333 18 -142 54s-52 85.333 -52 148zM261.999 360.999c23.333 0 42.333 4.33301 57 13s26.667 17.667 36 27v37c0 40.667 -8 71.5 -24 92.5s-38 31.5 -66 31.5c-30 0 -52.833 -8.66699 -68.5 -26
s-23.5 -41 -23.5 -71c0 -29.333 7 -54 21 -74s36.667 -30 68 -30z" />
    <glyph glyph-name="colon" unicode=":" horiz-adv-x="256" 
d="M57 60c0 20 7 36.833 21 50.5s30.667 20.5 50 20.5s35.833 -6.83301 49.5 -20.5s20.5 -30.5 20.5 -50.5c0 -19.333 -6.83301 -35.833 -20.5 -49.5s-30.167 -20.5 -49.5 -20.5s-36 6.83301 -50 20.5s-21 30.167 -21 49.5zM57 429c0 19.333 7 36 21 50s30.667 21 50 21
s35.833 -7 49.5 -21s20.5 -30.667 20.5 -50s-6.83301 -35.833 -20.5 -49.5s-30.167 -20.5 -49.5 -20.5s-36 6.83301 -50 20.5s-21 30.167 -21 49.5z" />
    <glyph glyph-name="semicolon" unicode=";" horiz-adv-x="266" 
d="M202 118l-96 -212h-74l47 212h123zM68 429c0 19.333 6.83301 36 20.5 50s30.5 21 50.5 21c19.333 0 35.833 -7 49.5 -21s20.5 -30.667 20.5 -50s-6.83301 -35.833 -20.5 -49.5s-30.167 -20.5 -49.5 -20.5c-20 0 -36.833 6.83301 -50.5 20.5s-20.5 30.167 -20.5 49.5z" />
    <glyph glyph-name="less" unicode="&#x3c;" horiz-adv-x="492" 
d="M40 382l392 140v-109l-253 -84l253 -85v-115l-392 140v113z" />
    <glyph glyph-name="equal" unicode="=" horiz-adv-x="520" 
d="M61 499h398v-107h-398v107zM61 267h398v-107h-398v107z" />
    <glyph glyph-name="greater" unicode="&#x3e;" horiz-adv-x="492" 
d="M452 268l-392 -140v109l253 84l-253 85v115l392 -140v-113z" />
    <glyph glyph-name="question" unicode="?" horiz-adv-x="494" 
d="M190 187l-3.99902 36.998c-2.66699 19.333 -1.83398 36.5 2.49902 51.5s11 29 20 42s19.667 25.5 32 37.5l38.5 38c13.333 13.333 25.166 26.666 35.499 39.999s15.5 29 15.5 47c0 22.667 -7.16699 40.834 -21.5 54.501s-35.5 20.5 -63.5 20.5
c-28.667 0 -50.667 -7.83301 -66 -23.5s-23 -36.167 -23 -61.5v-27h-120v29c0 28.667 5 54.834 15 78.501s24.333 44.167 43 61.5s41 30.833 67 40.5s55 14.5 87 14.5s60.833 -4.33301 86.5 -13s47.667 -21 66 -37s32.5 -35.167 42.5 -57.5s15 -47.166 15 -74.499
c0 -32 -7.33301 -60 -22 -84s-33 -46.333 -55 -67l-31 -28.5c-10 -9 -18.833 -18.167 -26.5 -27.5s-14.167 -19 -19.5 -29s-8.66602 -21 -9.99902 -33l-4 -29h-100zM172.001 58.998c0 19.333 6.5 35.666 19.5 48.999s29.167 20 48.5 20s35.666 -6.66699 48.999 -20
s20 -29.666 20 -48.999s-6.66699 -35.666 -20 -48.999s-29.666 -20 -48.999 -20s-35.5 6.66699 -48.5 20s-19.5 29.666 -19.5 48.999z" />
    <glyph glyph-name="at" unicode="@" horiz-adv-x="800" 
d="M246 278c8.66699 47.333 23.835 83.334 45.502 108.001s51.834 37 90.501 37c23.333 0 43 -4.66699 59 -14s27.667 -21.666 35 -36.999l17 43h85l-46 -259c-5.33301 -30.667 -3 -51.834 7 -63.501s26.667 -17.5 50 -17.5c46 0 69 33.333 69 100v145
c0 32.667 -6 62.167 -18 88.5s-29 48.833 -51 67.5s-48.667 33.167 -80 43.5s-66.333 15.5 -105 15.5c-39.333 0 -74.666 -5.16699 -105.999 -15.5s-58 -24.833 -80 -43.5s-38.833 -41.167 -50.5 -67.5s-17.5 -55.833 -17.5 -88.5v-177
c0 -32.667 5.83301 -62.167 17.5 -88.5s28.5 -48.833 50.5 -67.5s48.667 -33.167 80 -43.5s66.666 -15.5 105.999 -15.5h91v-92h-91c-54 0 -102.833 7.5 -146.5 22.5s-80.834 36.333 -111.501 64s-54.334 61.167 -71.001 100.5s-25 83.333 -25 132v153
c0 48.667 7.5 92.667 22.5 132s37.333 72.833 67 100.5s66.667 49 111 64s95.5 22.5 153.5 22.5c54 0 102.667 -7.5 146 -22.5s80.333 -36.333 111 -64s54.334 -61.167 71.001 -100.5s25 -83.333 25 -132v-121c0 -36.667 -5 -67.5 -15 -92.5s-23.333 -45.333 -40 -61
s-35.334 -26.834 -56.001 -33.501s-41.334 -10 -62.001 -10c-39.333 0 -72.833 8 -100.5 24s-44.167 42 -49.5 78c-11.333 -15.333 -25.5 -28 -42.5 -38s-35.5 -15 -55.5 -15c-21.333 0 -39.666 4 -54.999 12s-27.333 18.833 -36 32.5s-14.334 30 -17.001 49s-2 39.5 2 61.5
zM375.001 119.001c16.667 0 30.5 6 41.5 18s18.167 27.333 21.5 46l17 93c3.33301 18.667 0.333008 34 -9 46s-23.666 18 -42.999 18c-16 0 -28.833 -6 -38.5 -18s-16.167 -27.667 -19.5 -47l-16 -91c-3.33301 -19.333 -1.33301 -35 6 -47s20.666 -18 39.999 -18z" />
    <glyph glyph-name="A" unicode="A" horiz-adv-x="556" 
d="M16 0l196 657h132l196 -657h-128l-33 118h-209l-32 -118h-122zM198 224h153l-77 279z" />
    <glyph glyph-name="B" unicode="B" horiz-adv-x="573" 
d="M73 657l239.001 -0.000976562c30 0 57.667 -4.16699 83 -12.5s47.166 -20 65.499 -35s32.5 -33.167 42.5 -54.5s15 -45 15 -71c0 -36 -8.16699 -66 -24.5 -90s-39.833 -42.333 -70.5 -55v-1c36 -12 63.5 -31.167 82.5 -57.5s28.5 -59.166 28.5 -98.499
c0 -28 -5 -53.167 -15 -75.5s-24.167 -41.5 -42.5 -57.5s-40 -28.167 -65 -36.5s-52.5 -12.5 -82.5 -12.5h-256v657zM197.001 282.999v-182h111c31.333 0 55.5 8.16699 72.5 24.5s25.5 38.5 25.5 66.5c0 27.333 -8.66699 49.333 -26 66s-41 25 -71 25h-112zM197.001 555.999
v-170h100c29.333 0 52.333 7.5 69 22.5s25 36.5 25 64.5c0 26.667 -8.5 47.167 -25.5 61.5s-40.167 21.5 -69.5 21.5h-99z" />
    <glyph glyph-name="C" unicode="C" horiz-adv-x="554" 
d="M509 225v-18.998c0 -33.333 -5.33301 -63.333 -16 -90s-25.834 -49.334 -45.501 -68.001s-43.334 -33 -71.001 -43s-58.167 -15 -91.5 -15c-34 0 -65.167 5 -93.5 15s-52.5 24.5 -72.5 43.5s-35.667 42 -47 69s-17 57.5 -17 91.5v239c0 68 19.833 121.5 59.5 160.5
s96.5 58.5 170.5 58.5c33.333 0 63.833 -5 91.5 -15s51.334 -24.333 71.001 -43s34.834 -41.334 45.501 -68.001s16 -56.667 16 -90v-16h-120v15c0 32 -9.16699 57.5 -27.5 76.5s-44.5 28.5 -78.5 28.5c-32 0 -57.167 -9.83301 -75.5 -29.5s-27.5 -46.167 -27.5 -79.5v-235
c0 -33.333 9.16699 -59.833 27.5 -79.5s43.5 -29.5 75.5 -29.5c34 0 60.167 9.5 78.5 28.5s27.5 44.5 27.5 76.5v18h120z" />
    <glyph glyph-name="D" unicode="D" horiz-adv-x="591" 
d="M300 657c74.667 0 132.834 -20 174.501 -60s62.5 -94.667 62.5 -164v-209c0 -69.333 -20.833 -124 -62.5 -164s-99.834 -60 -174.501 -60h-227v657h227zM198 545v-432.998h102c36 0 63.667 10.167 83 30.5s29 48.166 29 83.499v205c0 35.333 -9.66699 63.166 -29 83.499
s-47 30.5 -83 30.5h-102z" />
    <glyph glyph-name="E" unicode="E" horiz-adv-x="525" 
d="M198 279v-167h284v-112h-409v657h400v-112h-275v-156h246v-110h-246z" />
    <glyph glyph-name="F" unicode="F" horiz-adv-x="508" 
d="M198 261v-261h-125v657h400v-112h-275v-173h246v-111h-246z" />
    <glyph glyph-name="G" unicode="G" horiz-adv-x="558" 
d="M297 334l212.004 0.00195312v-128c0 -33.333 -5.33301 -63.333 -16 -90s-25.834 -49.334 -45.501 -68.001s-43.334 -33 -71.001 -43s-58.167 -15 -91.5 -15c-34 0 -65.167 5 -93.5 15s-52.5 24.5 -72.5 43.5s-35.667 42 -47 69s-17 57.5 -17 91.5v239
c0 34 5.33301 64.5 16 91.5s26 50 46 69s44.333 33.5 73 43.5s61 15 97 15c33.333 0 63.666 -4.83301 90.999 -14.5s50.666 -23.334 69.999 -41.001s34.333 -39.167 45 -64.5s16 -54 16 -86v-16h-120v15c0 28.667 -8.66699 51.667 -26 69s-43 26 -77 26
s-60.167 -9.83301 -78.5 -29.5s-27.5 -46.167 -27.5 -79.5v-235c0 -33.333 9.16699 -59.833 27.5 -79.5s43.833 -29.5 76.5 -29.5c35.333 0 62.333 9.5 81 28.5s28 44.5 28 76.5v29h-96v98z" />
    <glyph glyph-name="H" unicode="H" horiz-adv-x="599" 
d="M526 0h-125v278h-203v-278h-125v657h125v-267h203v267h125v-657z" />
    <glyph glyph-name="I" unicode="I" horiz-adv-x="271" 
d="M198 0h-125v657h125v-657z" />
    <glyph glyph-name="J" unicode="J" horiz-adv-x="499" 
d="M141 215l-0.000976562 -24c0 -27.333 7.16699 -49 21.5 -65s34.5 -24 60.5 -24c26.667 0 47 8 61 24s21 37.667 21 65v466h125v-468c0 -30.667 -5 -58.334 -15 -83.001s-24.167 -45.5 -42.5 -62.5s-40.166 -30.167 -65.499 -39.5s-53.333 -14 -84 -14
s-58.667 4.66699 -84 14s-47 22.5 -65 39.5s-32 37.833 -42 62.5s-15 52.334 -15 83.001v26h124z" />
    <glyph glyph-name="K" unicode="K" horiz-adv-x="556" 
d="M198 343l201 314h139l-172 -273l178 -384h-140l-126 280l-80 -125v-155h-125v657h125v-314z" />
    <glyph glyph-name="L" unicode="L" horiz-adv-x="469" 
d="M198 112h257v-112h-382v657h125v-545z" />
    <glyph glyph-name="M" unicode="M" horiz-adv-x="672" 
d="M189 412v-412h-116v657h107l157 -286l155 286h107v-657h-121v409l-107 -194h-72z" />
    <glyph glyph-name="N" unicode="N" horiz-adv-x="595" 
d="M522 0h-102l-233 415v-415h-114v657h107l228 -405v405h114v-657z" />
    <glyph glyph-name="O" unicode="O" horiz-adv-x="573" 
d="M180 211c0 -33.333 9.33301 -59.833 28 -79.5s45 -29.5 79 -29.5s60.167 9.83301 78.5 29.5s27.5 46.167 27.5 79.5v235c0 33.333 -9.16699 59.833 -27.5 79.5s-44.5 29.5 -78.5 29.5s-60.333 -9.83301 -79 -29.5s-28 -46.167 -28 -79.5v-235zM518 209
c0 -34 -5.66895 -64.5 -17.002 -91.5s-27.166 -50 -47.499 -69s-44.666 -33.5 -72.999 -43.5s-59.5 -15 -93.5 -15c-34.667 0 -66.167 5 -94.5 15s-52.666 24.5 -72.999 43.5s-36.166 42 -47.499 69s-17 57.5 -17 91.5v239c0 68 20 121.5 60 160.5s97.333 58.5 172 58.5
c34 0 65.167 -5 93.5 -15s52.666 -24.5 72.999 -43.5s36.166 -42 47.499 -69s17 -57.5 17 -91.5v-239z" />
    <glyph glyph-name="P" unicode="P" horiz-adv-x="558" 
d="M73 657l229 -0.00195312c32.667 0 62.834 -5.16699 90.501 -15.5s51.667 -24.666 72 -42.999s36.166 -40.666 47.499 -66.999s17 -55.5 17 -87.5c0 -34 -5.66699 -64.5 -17 -91.5s-27.166 -50 -47.499 -69s-44.333 -33.667 -72 -44s-57.834 -15.5 -90.501 -15.5h-104
v-224h-125v657zM198 547.998v-214.999h93c34.667 0 61.834 9.66699 81.501 29s29.5 45.666 29.5 78.999c0 32.667 -9.83301 58.667 -29.5 78s-46.834 29 -81.501 29h-93z" />
    <glyph glyph-name="Q" unicode="Q" horiz-adv-x="574" 
d="M518 209c0 -42 -8.66699 -78.832 -26 -110.499s-41.333 -56.834 -72 -75.501l97 -156h-144l-76 124c-2 -0.666992 -5.33301 -1 -10 -1c-34.667 0 -66.167 5 -94.5 15s-52.666 24.5 -72.999 43.5s-36.166 42 -47.499 69s-17 57.5 -17 91.5v239c0 68 20 121.5 60 160.5
s97.333 58.5 172 58.5c34 0 65.167 -5 93.5 -15s52.666 -24.5 72.999 -43.5s36.166 -42 47.499 -69s17 -57.5 17 -91.5v-239zM180 211.001c0 -33.333 9.33301 -59.833 28 -79.5s45 -29.5 79 -29.5s60.167 9.83301 78.5 29.5s27.5 46.167 27.5 79.5v235
c0 33.333 -9.16699 59.833 -27.5 79.5s-44.5 29.5 -78.5 29.5s-60.333 -9.83301 -79 -29.5s-28 -46.167 -28 -79.5v-235z" />
    <glyph glyph-name="R" unicode="R" horiz-adv-x="574" 
d="M397 0l-95 241h-104v-241h-125v657h231c32.667 0 62.667 -4.83301 90 -14.5s51 -23.5 71 -41.5s35.667 -39.5 47 -64.5s17 -52.833 17 -83.5c0 -42.667 -9.33301 -79.5 -28 -110.5s-44 -55.167 -76 -72.5l108 -270h-136zM198 548v-198h93c34.667 0 61.834 9 81.501 27
s29.5 42.333 29.5 73c0 30 -9.83301 53.833 -29.5 71.5s-46.834 26.5 -81.501 26.5h-93z" />
    <glyph glyph-name="S" unicode="S" horiz-adv-x="533" 
d="M357 459l-0.000976562 19.0059c0 25.333 -8.5 46 -25.5 62s-40.167 24 -69.5 24c-28.667 0 -50.667 -6.83301 -66 -20.5s-23 -31.167 -23 -52.5c0 -13.333 4.33301 -26.833 13 -40.5s25 -24.834 49 -33.501l93 -34c20.667 -7.33301 40.834 -15.833 60.501 -25.5
s37.167 -21.834 52.5 -36.501s27.833 -32.5 37.5 -53.5s14.5 -46.5 14.5 -76.5s-5.33301 -57.333 -16 -82s-25.834 -45.834 -45.501 -63.501s-43.334 -31.334 -71.001 -41.001s-58.5 -14.5 -92.5 -14.5s-65 4.5 -93 13.5s-52.167 21.833 -72.5 38.5s-36.166 37 -47.499 61
s-17 51 -17 81v22h123v-27c0 -26.667 9.16699 -47.5 27.5 -62.5s43.833 -22.5 76.5 -22.5c34.667 0 61 7.83301 79 23.5s27 35.5 27 59.5c0 40 -24 68.667 -72 86l-100 38c-46 17.333 -82 40.166 -108 68.499s-39 65.833 -39 112.5c0 25.333 4.83301 49.166 14.5 71.499
s23.5 42 41.5 59s40 30.333 66 40s55.333 14.5 88 14.5s62.334 -4.5 89.001 -13.5s49.5 -21.833 68.5 -38.5s33.667 -37 44 -61s15.5 -51 15.5 -81v-14h-122z" />
    <glyph glyph-name="T" unicode="T" horiz-adv-x="476" 
d="M18 657h439v-112h-157v-545h-124v545h-158v112z" />
    <glyph glyph-name="U" unicode="U" horiz-adv-x="588" 
d="M519 657l0.00195312 -448c0 -34 -5.5 -64.5 -16.5 -91.5s-26.333 -50 -46 -69s-43.334 -33.5 -71.001 -43.5s-58.167 -15 -91.5 -15s-63.833 5 -91.5 15s-51.334 24.5 -71.001 43.5s-35 42 -46 69s-16.5 57.5 -16.5 91.5v448h124v-446
c0 -33.333 8.83301 -59.833 26.5 -79.5s42.5 -29.5 74.5 -29.5s56.833 9.83301 74.5 29.5s26.5 46.167 26.5 79.5v446h124z" />
    <glyph glyph-name="V" unicode="V" horiz-adv-x="527" 
d="M509 657l-179 -657h-133l-179 657h132l117 -473l116 473h126z" />
    <glyph glyph-name="W" unicode="W" horiz-adv-x="727" 
d="M703 657l-139 -657h-115l-86 445l-85 -445h-114l-139 657h125l77 -440l82 440h115l82 -441l78 441h119z" />
    <glyph glyph-name="X" unicode="X" horiz-adv-x="519" 
d="M157 657l108 -206l106 206h126l-172 -311l186 -346h-134l-124 236l-117 -236h-127l181 344l-168 313h135z" />
    <glyph glyph-name="Y" unicode="Y" horiz-adv-x="508" 
d="M139 657l118 -271l118 271h126l-185 -391v-266h-124v264l-185 393h132z" />
    <glyph glyph-name="Z" unicode="Z" horiz-adv-x="479" 
d="M45 657h390v-79l-248 -468h254v-110h-405v79l248 468h-239v110z" />
    <glyph glyph-name="bracketleft" unicode="[" horiz-adv-x="329" 
d="M194 1h98v-112h-222v876h222v-112h-98v-652z" />
    <glyph glyph-name="backslash" unicode="\" horiz-adv-x="467" 
d="M146 765l295 -876h-120l-295 876h120z" />
    <glyph glyph-name="bracketright" unicode="]" horiz-adv-x="329" 
d="M135 653h-98v112h222v-876h-222v112h98v652z" />
    <glyph glyph-name="asciicircum" unicode="^" horiz-adv-x="463" 
d="M280 657l140 -330h-115l-78 202l-76 -202h-109l141 330h97z" />
    <glyph glyph-name="underscore" unicode="_" horiz-adv-x="690" 
d="M59 -30h572v-88h-572v88z" />
    <glyph glyph-name="grave" unicode="`" horiz-adv-x="228" 
d="M20 652l76 71l112 -132l-56 -49z" />
    <glyph glyph-name="a" unicode="a" 
d="M46 310c0 28 3.5 53.5 10.5 76.5s17.5 43 31.5 60s31.5 30.167 52.5 39.5s45.167 14 72.5 14c26.667 0 50 -5.16699 70 -15.5s36.333 -23.833 49 -40.5l9 46h103v-490h-103l-9 46c-12.667 -17.333 -29 -31 -49 -41s-43.333 -15 -70 -15c-27.333 0 -51.5 4.66699 -72.5 14
s-38.5 22.5 -52.5 39.5s-24.5 37 -31.5 60s-10.5 48.5 -10.5 76.5v130zM243 95c25.333 0 45.166 8.16797 59.499 24.501s21.5 36.833 21.5 61.5v127c0 25.333 -7.16699 46.166 -21.5 62.499s-34.166 24.5 -59.499 24.5s-44.333 -8 -57 -24s-19 -36.333 -19 -61v-131
c0 -24 6.33301 -44 19 -60s31.667 -24 57 -24z" />
    <glyph glyph-name="b" unicode="b" 
d="M165 0h-104.001v677h121v-224c12.667 14 28.334 25.333 47.001 34s40 13 64 13c27.333 0 51.333 -4.66699 72 -14s38 -22.5 52 -39.5s24.5 -37 31.5 -60s10.5 -48.5 10.5 -76.5v-130c0 -28 -3.5 -53.5 -10.5 -76.5s-17.5 -43 -31.5 -60s-31.333 -30.167 -52 -39.5
s-44.667 -14 -72 -14s-50.833 5 -70.5 15s-36.167 23.667 -49.5 41zM262.999 95c25.333 0 44.333 7.99902 57 23.999s19 36 19 60v131c0 24.667 -6.33301 45 -19 61s-31.667 24 -57 24s-45.166 -8.16699 -59.499 -24.5s-21.5 -37.166 -21.5 -62.499v-127
c0 -24.667 7.16699 -45.167 21.5 -61.5s34.166 -24.5 59.499 -24.5z" />
    <glyph glyph-name="c" unicode="c" horiz-adv-x="474" 
d="M436 184l0.00195312 -6.00195c0 -29.333 -4.66699 -55.666 -14 -78.999s-22.5 -43 -39.5 -59s-37.5 -28.333 -61.5 -37s-50.333 -13 -79 -13c-29.333 0 -56.166 4.66699 -80.499 14s-45.166 22.5 -62.499 39.5s-30.833 37.667 -40.5 62s-14.5 51.5 -14.5 81.5v116
c0 30 4.83301 57.167 14.5 81.5s23.167 45 40.5 62s38.166 30.167 62.499 39.5s51.166 14 80.499 14c28.667 0 55 -4.33301 79 -13s44.5 -21 61.5 -37s30.167 -35.167 39.5 -57.5s14 -47.5 14 -75.5v-4h-116v12c0 21.333 -6.83301 38.833 -20.5 52.5
s-32.834 20.5 -57.501 20.5s-43.667 -8.16699 -57 -24.5s-20 -37.166 -20 -62.499v-133c0 -25.333 6.66699 -46 20 -62s32.333 -24 57 -24c25.333 0 44.666 6.83301 57.999 20.5s20 32.167 20 55.5v16h116z" />
    <glyph glyph-name="d" unicode="d" 
d="M332 46c-12.667 -17.333 -29.001 -31 -49.001 -41s-43.333 -15 -70 -15c-27.333 0 -51.5 4.66699 -72.5 14s-38.5 22.5 -52.5 39.5s-24.5 37 -31.5 60s-10.5 48.5 -10.5 76.5v130c0 28 3.5 53.5 10.5 76.5s17.5 43 31.5 60s31.5 30.167 52.5 39.5s45.167 14 72.5 14
c24 0 45.333 -4.33301 64 -13s34.334 -20 47.001 -34v224h120v-677h-103zM242.999 95c25.333 0 45.166 8.16797 59.499 24.501s21.5 36.833 21.5 61.5v127c0 25.333 -7.16699 46.166 -21.5 62.499s-34.166 24.5 -59.499 24.5s-44.333 -8 -57 -24s-19 -36.333 -19 -61v-131
c0 -24 6.33301 -44 19 -60s31.667 -24 57 -24z" />
    <glyph glyph-name="e" unicode="e" horiz-adv-x="475" 
d="M433 170l0.000976562 -4c0 -27.333 -4.66699 -51.833 -14 -73.5s-22.333 -40 -39 -55s-36.834 -26.667 -60.501 -35s-49.5 -12.5 -77.5 -12.5c-29.333 0 -56.166 4.5 -80.499 13.5s-45.166 22 -62.499 39s-30.833 37.5 -40.5 61.5s-14.5 51 -14.5 81v118
c0 30 4.83301 57.167 14.5 81.5s23.167 45 40.5 62s38.166 30.167 62.499 39.5s51.166 14 80.499 14c28 0 53.833 -4.66699 77.5 -14s43.834 -22.5 60.501 -39.5s29.667 -37.667 39 -62s14 -51.5 14 -81.5v-81h-271v-50c0 -24.667 7.16699 -45.167 21.5 -61.5
s34.166 -24.5 59.499 -24.5c24.667 0 43.5 7.16699 56.5 21.5s19.5 32.833 19.5 55.5v7h114zM162.001 305h157v12c0 25.333 -6.83301 46.166 -20.5 62.499s-32.5 24.5 -56.5 24.5c-25.333 0 -45 -8.16699 -59 -24.5s-21 -37.166 -21 -62.499v-12z" />
    <glyph glyph-name="f" unicode="f" horiz-adv-x="341" 
d="M26 485h68.999v16c0 58.667 15.333 102.667 46 132s75.334 44 134.001 44h50v-102h-36c-26 0 -44.833 -6 -56.5 -18s-17.5 -28.333 -17.5 -49v-23h104v-101h-104v-384h-120v384h-69v101z" />
    <glyph glyph-name="g" unicode="g" 
d="M46 310c0 28 3.49805 53.5 10.498 76.5s17.5 43 31.5 60s31.5 30.167 52.5 39.5s45.167 14 72.5 14c26.667 0 50 -5.16699 70 -15.5s36.333 -23.833 49 -40.5l9 46h103v-506c0 -28 -4.66699 -53.167 -14 -75.5s-22.666 -41.333 -39.999 -57s-38 -27.667 -62 -36
s-50.667 -12.5 -80 -12.5s-56 3.83301 -80 11.5s-44.667 18.334 -62 32.001s-30.666 30.167 -39.999 49.5s-14 40.666 -14 63.999v4h116v-9c0 -16 6.5 -29.5 19.5 -40.5s32.5 -16.5 58.5 -16.5c26.667 0 46.334 7.5 59.001 22.5s19 34.833 19 59.5v75
c-12.667 -14 -28.334 -25.167 -47.001 -33.5s-40 -12.5 -64 -12.5c-27.333 0 -51.5 4.66699 -72.5 14s-38.5 22.5 -52.5 39.5s-24.5 37 -31.5 60s-10.5 48.5 -10.5 76.5v111zM242.998 114c25.333 0 45.166 8.16895 59.499 24.502s21.5 37.166 21.5 62.499v107
c0 25.333 -7.16699 46.166 -21.5 62.499s-34.166 24.5 -59.499 24.5s-44.333 -8 -57 -24s-19 -36.333 -19 -61v-111c0 -24.667 6.33301 -45 19 -61s31.667 -24 57 -24z" />
    <glyph glyph-name="h" unicode="h" horiz-adv-x="517" 
d="M61 0l0.000976562 676.998h121v-226c13.333 14.667 29.5 26.5 48.5 35.5s41.167 13.5 66.5 13.5c27.333 0 51.166 -4.5 71.499 -13.5s37.166 -21.667 50.499 -38s23.333 -35.666 30 -57.999s10 -46.833 10 -73.5v-317h-120v310c0 24.667 -6.33301 45 -19 61
s-31.667 24 -57 24s-45.166 -8.16699 -59.499 -24.5s-21.5 -37.166 -21.5 -62.499v-308h-121z" />
    <glyph glyph-name="i" unicode="i" horiz-adv-x="243" 
d="M53 622c0 19.333 6.66699 35.5 20 48.5s29.666 19.5 48.999 19.5s35.5 -6.5 48.5 -19.5s19.5 -29.167 19.5 -48.5s-6.5 -35.5 -19.5 -48.5s-29.167 -19.5 -48.5 -19.5s-35.666 6.5 -48.999 19.5s-20 29.167 -20 48.5zM182 490v-490h-121v490h121z" />
    <glyph glyph-name="j" unicode="j" horiz-adv-x="243" 
d="M-16 -95c26 0 45.333 6.16699 58 18.5s19 29.5 19 51.5v515h121v-508c0 -60 -16 -104.833 -48 -134.5s-77.333 -44.5 -136 -44.5h-35v102h21zM53 622c0 19.333 6.5 35.5 19.5 48.5s29.167 19.5 48.5 19.5s35.5 -6.5 48.5 -19.5s19.5 -29.167 19.5 -48.5
s-6.5 -35.5 -19.5 -48.5s-29.167 -19.5 -48.5 -19.5s-35.5 6.5 -48.5 19.5s-19.5 29.167 -19.5 48.5z" />
    <glyph glyph-name="k" unicode="k" horiz-adv-x="484" 
d="M182 677v-379l151 192h131l-149 -188l157 -302h-133l-105 208l-52 -66v-142h-121v677h121z" />
    <glyph glyph-name="l" unicode="l" horiz-adv-x="246" 
d="M183 677v-677h-120v677h120z" />
    <glyph glyph-name="m" unicode="m" horiz-adv-x="784" 
d="M61 0v489.998h104l8 -48c13.333 17.333 30 31.333 50 42s44 16 72 16c34 0 62.333 -7 85 -21s40 -33.667 52 -59c11.333 23.333 28.5 42.5 51.5 57.5s50.833 22.5 83.5 22.5c26.667 0 50.167 -4.5 70.5 -13.5s37 -21.667 50 -38s22.833 -35.666 29.5 -57.999
s10 -46.833 10 -73.5v-317h-121v310c0 24.667 -6.16699 45 -18.5 61s-30.5 24 -54.5 24c-23.333 0 -42 -7.66699 -56 -23s-21.667 -34.666 -23 -57.999v-314h-120v310c0 24.667 -6.33301 45 -19 61s-31 24 -55 24s-43 -8.16699 -57 -24.5s-21 -36.833 -21 -61.5v-309h-121z
" />
    <glyph glyph-name="n" unicode="n" horiz-adv-x="517" 
d="M61 0l0.000976562 489.998h104l8 -48c13.333 17.333 30.333 31.333 51 42s45 16 73 16c27.333 0 51.166 -4.5 71.499 -13.5s37.166 -21.667 50.499 -38s23.333 -35.666 30 -57.999s10 -46.833 10 -73.5v-317h-120v310c0 24.667 -6.33301 45 -19 61s-31.667 24 -57 24
s-45.166 -8.16699 -59.499 -24.5s-21.5 -37.166 -21.5 -62.499v-308h-121z" />
    <glyph glyph-name="o" unicode="o" horiz-adv-x="488" 
d="M165 178c0 -25.333 6.83301 -46 20.5 -62s33.167 -24 58.5 -24s44.833 8 58.5 24s20.5 36.667 20.5 62v133c0 25.333 -6.83301 46.166 -20.5 62.499s-33.167 24.5 -58.5 24.5s-44.833 -8.16699 -58.5 -24.5s-20.5 -37.166 -20.5 -62.499v-133zM443 187
c0 -30 -4.83301 -57.167 -14.5 -81.5s-23.167 -45 -40.5 -62s-38.166 -30.167 -62.499 -39.5s-51.5 -14 -81.5 -14s-57.167 4.66699 -81.5 14s-45.333 22.5 -63 39.5s-31.334 37.667 -41.001 62s-14.5 51.5 -14.5 81.5v116c0 30 4.83301 57.167 14.5 81.5
s23.334 45 41.001 62s38.667 30.167 63 39.5s51.5 14 81.5 14s57.167 -4.66699 81.5 -14s45.166 -22.5 62.499 -39.5s30.833 -37.667 40.5 -62s14.5 -51.5 14.5 -81.5v-116z" />
    <glyph glyph-name="p" unicode="p" 
d="M173 443c13.333 17.333 29.834 31.167 49.501 41.5s43.167 15.5 70.5 15.5s51.333 -4.66699 72 -14s38 -22.5 52 -39.5s24.5 -37 31.5 -60s10.5 -48.5 10.5 -76.5v-130c0 -28 -3.5 -53.5 -10.5 -76.5s-17.5 -43 -31.5 -60s-31.333 -30.167 -52 -39.5s-44.667 -14 -72 -14
c-24 0 -45.333 4.16699 -64 12.5s-34.334 19.833 -47.001 34.5v-224h-121v677h104zM263.001 395.001c-25.333 0 -45.166 -8.16797 -59.499 -24.501s-21.5 -37.166 -21.5 -62.499v-127c0 -24.667 7.16699 -45.167 21.5 -61.5s34.166 -24.5 59.499 -24.5s44.333 8 57 24
s19 36 19 60v131c0 24.667 -6.33301 45 -19 61s-31.667 24 -57 24z" />
    <glyph glyph-name="q" unicode="q" 
d="M341 490l103.001 -0.000976562v-677h-120v224c-12.667 -14.667 -28.334 -26.167 -47.001 -34.5s-40 -12.5 -64 -12.5c-27.333 0 -51.5 4.66699 -72.5 14s-38.5 22.5 -52.5 39.5s-24.5 37 -31.5 60s-10.5 48.5 -10.5 76.5v130c0 28 3.5 53.5 10.5 76.5s17.5 43 31.5 60
s31.5 30.167 52.5 39.5s45.167 14 72.5 14c26.667 0 50 -5.16699 70 -15.5s36.333 -24.166 49 -41.499zM243.001 394.999c-25.333 0 -44.333 -7.99902 -57 -23.999s-19 -36.333 -19 -61v-131c0 -24 6.33301 -44 19 -60s31.667 -24 57 -24s45.166 8.16699 59.499 24.5
s21.5 36.833 21.5 61.5v127c0 25.333 -7.16699 46.166 -21.5 62.499s-34.166 24.5 -59.499 24.5z" />
    <glyph glyph-name="r" unicode="r" horiz-adv-x="336" 
d="M61 0l0.000976562 489.999h104l10 -56c11.333 18.667 26.666 34.334 45.999 47.001s41.666 19 66.999 19c10.667 0 20.334 -1.33301 29.001 -4v-113c-6 1.33301 -12.667 2.33301 -20 3s-14.333 1 -21 1c-25.333 0 -47.333 -7 -66 -21s-28 -36.333 -28 -67v-299h-121z" />
    <glyph glyph-name="s" unicode="s" horiz-adv-x="451" 
d="M146 156v-19.001c0 -18 7 -32 21 -42s33 -15 57 -15c25.333 0 44.333 4.66699 57 14s19 22.666 19 39.999c0 13.333 -4 24 -12 32s-21 14.667 -39 20l-87 27c-32 10 -59.333 26.167 -82 48.5s-34 53.166 -34 92.499c0 18.667 4 36.834 12 54.501s19.667 33.334 35 47.001
s33.666 24.5 54.999 32.5s45.666 12 72.999 12c56 0 101 -13 135 -39s51 -62 51 -108v-11h-112v14c0 16 -6.16699 29.167 -18.5 39.5s-30.166 15.5 -53.499 15.5c-18.667 0 -34.334 -4.16699 -47.001 -12.5s-19 -20.166 -19 -35.499c0 -9.33301 3 -18 9 -26s19 -15 39 -21
l70 -21c18 -6 35.333 -12.667 52 -20s31.334 -16.833 44.001 -28.5s22.834 -25.667 30.501 -42s11.5 -35.833 11.5 -58.5c0 -23.333 -4.33301 -44.5 -13 -63.5s-21 -35.5 -37 -49.5s-35.5 -24.833 -58.5 -32.5s-49.167 -11.5 -78.5 -11.5c-28 0 -53.667 3.5 -77 10.5
s-43.5 17 -60.5 30s-30.167 29 -39.5 48s-14 40.167 -14 63.5v15h111z" />
    <glyph glyph-name="t" unicode="t" horiz-adv-x="331" 
d="M24 485h81v134h120v-134h82v-101h-82v-384h-120v384h-81v101z" />
    <glyph glyph-name="u" unicode="u" horiz-adv-x="511" 
d="M57 490l121.002 0.000976562v-319c0 -22 6 -40.167 18 -54.5s29.667 -21.5 53 -21.5c25.333 0 45.166 8.16699 59.499 24.5s21.5 36.833 21.5 61.5v309h120v-490h-103l-10 47c-12.667 -17.333 -29.334 -31.166 -50.001 -41.499s-44.667 -15.5 -72 -15.5
c-26.667 0 -50 4.33301 -70 13s-36.5 20.667 -49.5 36s-22.667 33.666 -29 54.999s-9.5 44.666 -9.5 69.999v326z" />
    <glyph glyph-name="v" unicode="v" horiz-adv-x="465" 
d="M170 0l-154 490h129l91 -335l90 335h123l-154 -490h-125z" />
    <glyph glyph-name="w" unicode="w" horiz-adv-x="682" 
d="M216 167l77 323h100l77 -323l69 323h124l-136 -490h-110l-76 296l-76 -296h-109l-137 490h128z" />
    <glyph glyph-name="x" unicode="x" horiz-adv-x="459" 
d="M149 490l84 -148l83 148h127l-151 -236l155 -254h-131l-91 156l-85 -156h-127l152 243l-147 247h131z" />
    <glyph glyph-name="y" unicode="y" horiz-adv-x="464" 
d="M118 -187l60 173l-162 504h129l90 -328l91 328h123l-218 -677h-113z" />
    <glyph glyph-name="z" unicode="z" horiz-adv-x="437" 
d="M43 490h352v-70l-210 -322h215v-98h-365v70l211 321h-203v99z" />
    <glyph glyph-name="braceleft" unicode="{" horiz-adv-x="358" 
d="M98 209c0 22 -5.33301 39.3301 -16 51.9971s-27 19 -49 19h-10v95h10c22 0 38.333 6.5 49 19.5s16 30.5 16 52.5v124c0 60.667 17.5 108.167 52.5 142.5s85.833 51.5 152.5 51.5h17v-111h-17c-27.333 0 -47.5 -7.66699 -60.5 -23s-19.5 -35.666 -19.5 -60.999v-125
c0 -26 -5.33301 -49 -16 -69s-25.667 -36 -45 -48c19.333 -13.333 34.333 -29.666 45 -48.999s16 -42.333 16 -69v-126c0 -25.333 6.5 -45.666 19.5 -60.999s33.167 -23 60.5 -23h17v-111h-17c-66.667 0 -117.5 17.167 -152.5 51.5s-52.5 81.833 -52.5 142.5v126z" />
    <glyph glyph-name="bar" unicode="|" horiz-adv-x="255" 
d="M185 -111h-115v876h115v-876z" />
    <glyph glyph-name="braceright" unicode="}" horiz-adv-x="358" 
d="M260 83c0 -60.667 -17.5 -108.164 -52.5 -142.497s-85.833 -51.5 -152.5 -51.5h-17v111h17c27.333 0 47.5 7.66699 60.5 23s19.5 35.666 19.5 60.999v126c0 26.667 5.33301 49.667 16 69s25.667 35.666 45 48.999c-19.333 12 -34.333 28 -45 48s-16 43 -16 69v125
c0 25.333 -6.5 45.666 -19.5 60.999s-33.167 23 -60.5 23h-17v111h17c66.667 0 117.5 -17.167 152.5 -51.5s52.5 -81.833 52.5 -142.5v-124c0 -22 5.33301 -39.5 16 -52.5s27 -19.5 49 -19.5h10v-95h-10c-22 0 -38.333 -6.33301 -49 -19s-16 -30 -16 -52v-126z" />
    <glyph glyph-name="asciitilde" unicode="~" horiz-adv-x="529" 
d="M493 341c-17.333 -33.333 -37.8291 -60 -61.4961 -80s-49.834 -30 -78.501 -30c-20 0 -37.5 3.33301 -52.5 10s-32.167 16.667 -51.5 30l-31.5 19c-10.333 6 -22.166 9 -35.499 9c-15.333 0 -29.5 -7 -42.5 -21s-26.5 -31.333 -40.5 -52l-62 51
c16 32.667 36.833 60 62.5 82s54.5 33 86.5 33c22 0 41.167 -4 57.5 -12s30.833 -16.333 43.5 -25c13.333 -9.33301 24.666 -16.5 33.999 -21.5s19.666 -7.5 30.999 -7.5c13.333 0 25.666 5.33301 36.999 16s23.666 26.667 36.999 48z" />
    <glyph glyph-name="uni00A0" unicode="&#xa0;" horiz-adv-x="197" 
 />
    <glyph glyph-name="exclamdown" unicode="&#xa1;" horiz-adv-x="244" 
d="M184 0v-167h-124v167l26 303h73zM52 430c0 19.333 6.83301 35.833 20.5 49.5s30.167 20.5 49.5 20.5c20 0 36.833 -6.83301 50.5 -20.5s20.5 -30.167 20.5 -49.5c0 -20 -6.83301 -36.833 -20.5 -50.5s-30.5 -20.5 -50.5 -20.5c-19.333 0 -35.833 6.83301 -49.5 20.5
s-20.5 30.5 -20.5 50.5z" />
    <glyph glyph-name="cent" unicode="&#xa2;" horiz-adv-x="481" 
d="M289 667l0.00195312 -88.002c45.333 -8 81.333 -27.833 108 -59.5s40 -71.5 40 -119.5v-3h-116v11c0 21.333 -6.83301 39 -20.5 53s-32.834 21 -57.501 21c-25.333 0 -44.5 -8.16699 -57.5 -24.5s-19.5 -36.833 -19.5 -61.5v-134c0 -24.667 6.5 -45.167 19.5 -61.5
s32.167 -24.5 57.5 -24.5s44.666 7 57.999 21s20 32.667 20 56v17h116v-7c0 -50.667 -13.333 -92 -40 -124s-62.667 -52.333 -108 -61v-88h-91v88c-46.667 8.66699 -83.834 29.834 -111.501 63.501s-41.5 76.834 -41.5 129.501v116c0 52 13.833 95 41.5 129
s64.834 55.333 111.501 64v87h91z" />
    <glyph glyph-name="sterling" unicode="&#xa3;" horiz-adv-x="563" 
d="M45 336l61 0.000976562v126c0 31.333 5 59.666 15 84.999s24 46.833 42 64.5s39.5 31.334 64.5 41.001s52.5 14.5 82.5 14.5s57.333 -4.66699 82 -14s45.834 -22.833 63.501 -40.5s31.5 -39 41.5 -64s15 -52.833 15 -83.5v-30h-120v29c0 28 -7 50.333 -21 67
s-34 25 -60 25c-26.667 0 -46.834 -8.83301 -60.501 -26.5s-20.5 -40.834 -20.5 -69.501v-124h161v-98h-161v-129h285v-109h-470v109h61v129h-61v98z" />
    <glyph glyph-name="currency" unicode="&#xa4;" horiz-adv-x="610" 
d="M566 513l-80.001 -75.999c16.667 -29.333 25 -62 25 -98v-12c0 -36.667 -8.33301 -69.667 -25 -99l80 -75l-76 -75l-75 81c-31.333 -18 -68 -27 -110 -27s-78.667 8.66699 -110 26l-75 -80l-76 75l79 75c-16 28 -24 61 -24 99v12c0 38 7.66699 71.333 23 100l-78 74
l76 75l73 -79c32 16.667 69.333 25 112 25c20.667 0 40.334 -2.33301 59.001 -7s35.667 -11.334 51 -20.001l75 81zM217.999 329.001c0 -26 7.66699 -46.833 23 -62.5s36.666 -23.5 63.999 -23.5c26.667 0 47.834 7.83301 63.501 23.5s23.5 36.5 23.5 62.5v9
c0 25.333 -7.83301 45.833 -23.5 61.5s-36.834 23.5 -63.501 23.5c-27.333 0 -48.666 -7.83301 -63.999 -23.5s-23 -36.167 -23 -61.5v-9z" />
    <glyph glyph-name="yen" unicode="&#xa5;" horiz-adv-x="556" 
d="M520 657l-129 -269h90v-74h-125l-20 -42v-15h145v-74h-145v-183h-117v183h-144v74h144v13l-21 44h-123v74h88l-127 269h127l118 -268l117 268h122z" />
    <glyph glyph-name="brokenbar" unicode="&#xa6;" horiz-adv-x="266" 
d="M71 765h124v-360h-124v360zM71 249h124v-360h-124v360z" />
    <glyph glyph-name="section" unicode="&#xa7;" horiz-adv-x="513" 
d="M190 302c-44 16.667 -78.335 39.167 -103.002 67.5s-37 65.5 -37 111.5c0 25.333 4.5 49.333 13.5 72s22.167 42.5 39.5 59.5s38.5 30.333 63.5 40s53.5 14.5 85.5 14.5c30.667 0 58.834 -4.5 84.501 -13.5s47.667 -21.667 66 -38s32.5 -36.333 42.5 -60
s15 -50.167 15 -79.5v-15h-116v23c0 25.333 -7.83301 45.5 -23.5 60.5s-38.5 22.5 -68.5 22.5c-29.333 0 -51.166 -7 -65.499 -21s-21.5 -31.667 -21.5 -53c0 -14 4.16699 -28.833 12.5 -44.5s24.5 -28.167 48.5 -37.5l119 -47c17.333 -7.33301 33.333 -14.833 48 -22.5
s27.167 -17 37.5 -28s18.5 -24 24.5 -39s9 -33.5 9 -55.5v-21zM323.998 167c44 -16.667 78.332 -39.1699 102.999 -67.5029s37 -65.5 37 -111.5c0 -25.333 -4.66699 -49.166 -14 -71.499s-22.666 -42 -39.999 -59s-38.5 -30.5 -63.5 -40.5s-53.167 -15 -84.5 -15
s-59.666 4.5 -84.999 13.5s-47.333 21.833 -66 38.5s-33 36.834 -43 60.501s-15 50.167 -15 79.5v14h116v-23c0 -25.333 8 -45.5 24 -60.5s38.667 -22.5 68 -22.5s51.333 7 66 21s22 31.667 22 53c0 14 -4.33301 28.833 -13 44.5s-25 28.167 -49 37.5l-118 48
c-18 6.66699 -34.167 13.834 -48.5 21.501s-26.833 17 -37.5 28s-18.834 24.167 -24.501 39.5s-8.5 34 -8.5 56v20z" />
    <glyph glyph-name="dieresis" unicode="&#xa8;" horiz-adv-x="298" 
d="M20 612c0 16.667 5.83301 30.5 17.5 41.5s25.834 16.5 42.501 16.5s30.5 -5.5 41.5 -16.5s16.5 -24.833 16.5 -41.5s-5.5 -31 -16.5 -43s-24.833 -18 -41.5 -18s-30.834 6 -42.501 18s-17.5 26.333 -17.5 43zM160 612c0 16.667 5.66699 30.5 17 41.5s25.333 16.5 42 16.5
s30.667 -5.5 42 -16.5s17 -24.833 17 -41.5s-5.66699 -31 -17 -43s-25.333 -18 -42 -18s-30.667 6 -42 18s-17 26.333 -17 43z" />
    <glyph glyph-name="copyright" unicode="&#xa9;" horiz-adv-x="761" 
d="M540 288v-5c0 -46.667 -14.5 -83.167 -43.5 -109.5s-67.5 -39.5 -115.5 -39.5c-24 0 -45.833 3.66699 -65.5 11s-36.5 18 -50.5 32s-25 30.833 -33 50.5s-12 41.5 -12 65.5v71c0 49.333 14.833 88.333 44.5 117s68.5 43 116.5 43s86.5 -13.167 115.5 -39.5
s43.5 -61.833 43.5 -106.5v-2h-97v9c0 15.333 -5.16699 28 -15.5 38s-25.166 15 -44.499 15s-34.666 -6.16699 -45.999 -18.5s-17 -28.5 -17 -48.5v-84c0 -20 5.66699 -36.5 17 -49.5s26.666 -19.5 45.999 -19.5s34.166 5.16699 44.499 15.5s15.5 24.5 15.5 42.5v12h97z
M41 327c0 46.667 8.83301 90.667 26.5 132s41.834 77.5 72.501 108.5s66.5 55.333 107.5 73s85.167 26.5 132.5 26.5c46.667 0 90.667 -8.83301 132 -26.5s77.5 -42 108.5 -73s55.333 -67.167 73 -108.5s26.5 -85.333 26.5 -132c0 -47.333 -8.83301 -91.5 -26.5 -132.5
s-42 -76.667 -73 -107s-67.167 -54.333 -108.5 -72s-85.333 -26.5 -132 -26.5c-47.333 0 -91.5 8.83301 -132.5 26.5s-76.833 41.667 -107.5 72s-54.834 66 -72.501 107s-26.5 85.167 -26.5 132.5zM108 327c0 -38 7.16602 -73.833 21.499 -107.5
s33.833 -62.834 58.5 -87.501s53.5 -44.167 86.5 -58.5s68.167 -21.5 105.5 -21.5s72.5 7.16699 105.5 21.5s61.833 33.833 86.5 58.5s44.167 53.834 58.5 87.501s21.5 69.5 21.5 107.5s-7.16699 73.833 -21.5 107.5s-33.666 63 -57.999 88s-53 44.833 -86 59.5
s-68.5 22 -106.5 22c-37.333 0 -72.5 -7.33301 -105.5 -22s-61.833 -34.5 -86.5 -59.5s-44.167 -54.333 -58.5 -88s-21.5 -69.5 -21.5 -107.5z" />
    <glyph glyph-name="ordfeminine" unicode="&#xaa;" horiz-adv-x="316" 
d="M48 564c0 28 6.66699 51.334 20 70.001s34 28 62 28c13.333 0 24.5 -2.33301 33.5 -7s16.167 -10.667 21.5 -18l3 20h70v-245h-70l-3 19c-6 -6.66699 -13.5 -12.334 -22.5 -17.001s-19.833 -7 -32.5 -7c-28 0 -48.667 9.33301 -62 28s-20 42 -20 70v59zM152 474.001
c8.66699 0 15.5 2.83301 20.5 8.5s7.5 13.167 7.5 22.5v59c0 9.33301 -2.5 16.833 -7.5 22.5s-11.833 8.5 -20.5 8.5c-8 0 -14.167 -3 -18.5 -9s-6.5 -13.667 -6.5 -23v-57c0 -9.33301 2.16699 -17 6.5 -23s10.5 -9 18.5 -9z" />
    <glyph glyph-name="guillemotleft" unicode="&#xab;" horiz-adv-x="381" 
d="M241 398h89l-45 -165l45 -165h-89l-58 165zM106 398h89l-49 -165l49 -165h-89l-62 165z" />
    <glyph glyph-name="logicalnot" unicode="&#xac;" horiz-adv-x="524" 
d="M54 381h405v-251h-119v143h-286v108z" />
    <glyph glyph-name="uni00AD" unicode="&#xad;" horiz-adv-x="356" 
d="M58 313h240v-107h-240v107z" />
    <glyph glyph-name="registered" unicode="&#xae;" horiz-adv-x="532" 
d="M50 450c0 30 5.5 58.167 16.5 84.5s26.333 49.333 46 69s42.5 35.167 68.5 46.5s54 17 84 17s58.167 -5.66699 84.5 -17s49.333 -26.833 69 -46.5s35.167 -42.667 46.5 -69s17 -54.5 17 -84.5s-5.66699 -58 -17 -84s-26.833 -48.667 -46.5 -68
s-42.667 -34.666 -69 -45.999s-54.5 -17 -84.5 -17s-58 5.66699 -84 17s-48.833 26.666 -68.5 45.999s-35 42 -46 68s-16.5 54 -16.5 84zM104 450c0 -23.333 4.16699 -44.833 12.5 -64.5s19.666 -37 33.999 -52s31.333 -26.667 51 -35s40.834 -12.5 63.501 -12.5
s43.834 4.16699 63.501 12.5s36.834 20 51.501 35s26.167 32.333 34.5 52s12.5 41.167 12.5 64.5c0 22.667 -4.16699 44.167 -12.5 64.5s-19.833 38 -34.5 53s-31.834 26.833 -51.501 35.5s-40.834 13 -63.501 13s-43.834 -4.33301 -63.501 -13s-36.667 -20.5 -51 -35.5
s-25.666 -32.667 -33.999 -53s-12.5 -41.833 -12.5 -64.5zM298 339l-28 79.998h-33v-80h-56v221h97c23.333 0 42.833 -6.16699 58.5 -18.5s23.5 -29.166 23.5 -50.499c0 -13.333 -3.16699 -25.166 -9.5 -35.499s-14.5 -18.833 -24.5 -25.5l35 -91h-63zM237 515.998v-55h34
c10 0 17.5 2.83301 22.5 8.5s7.5 12.167 7.5 19.5c0 18 -10 27 -30 27h-34z" />
    <glyph glyph-name="macron" unicode="&#xaf;" horiz-adv-x="280" 
d="M20 648h240v-85h-240v85z" />
    <glyph glyph-name="degree" unicode="&#xb0;" horiz-adv-x="442" 
d="M38 484c0 25.333 4.66699 49.166 14 71.499s22.333 41.666 39 57.999s36 29.333 58 39s45.667 14.5 71 14.5s49.166 -4.83301 71.499 -14.5s41.833 -22.667 58.5 -39s29.834 -35.666 39.501 -57.999s14.5 -46.166 14.5 -71.499s-4.83301 -49.166 -14.5 -71.499
s-22.834 -41.833 -39.501 -58.5s-36.167 -29.667 -58.5 -39s-46.166 -14 -71.499 -14s-49 4.66699 -71 14s-41.333 22.333 -58 39s-29.667 36.167 -39 58.5s-14 46.166 -14 71.499zM131 484c0 -26.667 8.50195 -49.167 25.502 -67.5s38.167 -27.5 63.5 -27.5
s46.666 9.16699 63.999 27.5s26 40.833 26 67.5c0 12.667 -2.33301 24.667 -7 36s-11 21.333 -19 30s-17.5 15.5 -28.5 20.5s-22.833 7.5 -35.5 7.5s-24.334 -2.5 -35.001 -7.5s-20 -11.833 -28 -20.5s-14.333 -18.667 -19 -30s-7 -23.333 -7 -36z" />
    <glyph glyph-name="plusminus" unicode="&#xb1;" horiz-adv-x="521" 
d="M319 413h146v-84h-146v-117h-113v117h-146v84h146v116h113v-116zM60 176h397v-76h-397v76z" />
    <glyph glyph-name="uni00B2" unicode="&#xb2;" horiz-adv-x="288" 
d="M29 520c0 6 0.332031 13.1689 0.999023 21.502s2.5 17 5.5 26s7.5 17.833 13.5 26.5s14.333 16.667 25 24l63 41c9.33301 5.33301 17.5 12.166 24.5 20.499s10.5 19.166 10.5 32.499c0 19.333 -9.66699 29 -29 29c-10 0 -18 -2.66699 -24 -8s-9 -13.333 -9 -24v-8h-78v10
c0 29.333 10.333 53.666 31 72.999s48.334 29 83.001 29c34 0 60.833 -8.66699 80.5 -26s29.5 -41 29.5 -71c0 -25.333 -5.5 -46.5 -16.5 -63.5s-27.167 -32.5 -48.5 -46.5l-51 -32c-5.33301 -3.33301 -9.5 -7.16602 -12.5 -11.499s-4.5 -7.5 -4.5 -9.5h133v-73h-227v40z
" />
    <glyph glyph-name="uni00B3" unicode="&#xb3;" horiz-adv-x="283" 
d="M110 680l20.998 -0.00292969c12.667 0 21.834 2.33301 27.501 7s8.5 13 8.5 25c0 10.667 -2.66699 18.5 -8 23.5s-12.666 7.5 -21.999 7.5s-16.666 -2.66699 -21.999 -8s-8 -13.666 -8 -24.999v-5h-78v8c0 28.667 10 52.834 30 72.501s47 29.5 81 29.5
s60.333 -8.66699 79 -26s28 -39.666 28 -66.999c0 -17.333 -3.16699 -31.666 -9.5 -42.999s-14.166 -20 -23.499 -26c11.333 -6.66699 20.666 -16.334 27.999 -29.001s11 -28.667 11 -48c0 -30 -10.333 -54 -31 -72s-48.667 -27 -84 -27c-34.667 0 -61.834 9.5 -81.501 28.5
s-29.5 43.833 -29.5 74.5v8h78v-6c0 -24 10.667 -36 32 -36c22 0 33 12.667 33 38c0 13.333 -3.5 22.5 -10.5 27.5s-16.5 7.5 -28.5 7.5h-21v61z" />
    <glyph glyph-name="acute" unicode="&#xb4;" horiz-adv-x="228" 
d="M76 542l-56 49l112 132l76 -71z" />
    <glyph glyph-name="mu" unicode="&#xb5;" horiz-adv-x="512" 
d="M66 490l120 -0.000976562v-319c0 -22 6.16699 -40.167 18.5 -54.5s30.166 -21.5 53.499 -21.5c24 0 43 7.66699 57 23s21.667 35 23 59v313h121v-490h-104l-9 47c-13.333 -17.333 -30.166 -31.166 -50.499 -41.499s-44.5 -15.5 -72.5 -15.5c-8.66699 0 -16.5 1 -23.5 3
s-13.167 4.66699 -18.5 8l5 -144v-44h-120v677z" />
    <glyph glyph-name="paragraph" unicode="&#xb6;" horiz-adv-x="551" 
d="M279 192h-14.0029c-33.333 0 -64.166 5.16699 -92.499 15.5s-52.666 25.5 -72.999 45.5s-36.166 44.333 -47.499 73s-17 61.667 -17 99c0 35.333 6 67.333 18 96s28.833 53 50.5 73s47.5 35.5 77.5 46.5s63 16.5 99 16.5h194v-768h-124v659h-71v-356z" />
    <glyph glyph-name="periodcentered" unicode="&#xb7;" horiz-adv-x="240" 
d="M50 278c0 20 6.83301 36.833 20.5 50.5s30.167 20.5 49.5 20.5s36 -6.83301 50 -20.5s21 -30.5 21 -50.5c0 -19.333 -7 -35.833 -21 -49.5s-30.667 -20.5 -50 -20.5s-35.833 6.83301 -49.5 20.5s-20.5 30.167 -20.5 49.5z" />
    <glyph glyph-name="cedilla" unicode="&#xb8;" horiz-adv-x="240" 
d="M49 -81l28.001 96h67l-17 -55h12c26 0 46 -6.33301 60 -19s21 -30.334 21 -53.001c0 -23.333 -7.33301 -41.666 -22 -54.999s-34.334 -20 -59.001 -20h-112v57h101c5.33301 0 9.83301 1.33301 13.5 4s5.5 7 5.5 13s-1.83301 10.167 -5.5 12.5s-8.16699 3.5 -13.5 3.5h-58
z" />
    <glyph glyph-name="uni00B9" unicode="&#xb9;" horiz-adv-x="241" 
d="M31 810h136v-258h56v-70h-192v70h55v187h-55v71z" />
    <glyph glyph-name="ordmasculine" unicode="&#xba;" horiz-adv-x="302" 
d="M125 502c0 -9.33301 2.16699 -16.666 6.5 -21.999s10.833 -8 19.5 -8c8 0 14.5 2.66699 19.5 8s7.5 12.666 7.5 21.999v64c0 9.33301 -2.5 16.666 -7.5 21.999s-11.5 8 -19.5 8c-8.66699 0 -15.167 -2.66699 -19.5 -8s-6.5 -12.666 -6.5 -21.999v-64zM256 507
c0 -30.667 -9.66699 -55.167 -29 -73.5s-44.666 -27.5 -75.999 -27.5c-32 0 -57.5 9.16699 -76.5 27.5s-28.5 42.833 -28.5 73.5v53c0 31.333 9.5 56 28.5 74s44.5 27 76.5 27c31.333 0 56.666 -9 75.999 -27s29 -42.667 29 -74v-53z" />
    <glyph glyph-name="guillemotright" unicode="&#xbb;" horiz-adv-x="381" 
d="M198 233l-58 -165h-89l45 165l-45 165h89zM337 233l-62 -165h-89l49 165l-49 165h89z" />
    <glyph glyph-name="onequarter" unicode="&#xbc;" horiz-adv-x="665" 
d="M592 328v-197h34v-67h-34v-64h-81v64h-145v77l132 187h94zM511 131v102l-72 -102h72zM484 657h93l-192 -329l-182 -328h-94l193 330zM47 657h136v-259h56v-69h-192v69h55v188h-55v71z" />
    <glyph glyph-name="onehalf" unicode="&#xbd;" horiz-adv-x="667" 
d="M482 657h94l-192 -329l-183 -328h-93l192 330zM45 657h136v-259h57v-69h-193v69h55v188h-55v71zM395 40c0 6 0.499023 13.1689 1.49902 21.502s3 17 6 26s7.5 17.833 13.5 26.5s14.333 16.667 25 24l63 41c9.33301 5.33301 17.5 12.166 24.5 20.499
s10.5 19.166 10.5 32.499c0 19.333 -9.66699 29 -29 29c-10 0 -18 -2.66699 -24 -8s-9 -13.333 -9 -24v-8h-78v10c0 29.333 10.333 53.666 31 72.999s48.334 29 83.001 29c34 0 60.833 -8.66699 80.5 -26s29.5 -41 29.5 -71c0 -25.333 -5.5 -46.5 -16.5 -63.5
s-27.167 -32.5 -48.5 -46.5l-51 -32c-5.33301 -3.33301 -9.5 -7.16602 -12.5 -11.499s-4.83301 -7.5 -5.5 -9.5h134v-73h-228v40z" />
    <glyph glyph-name="threequarters" unicode="&#xbe;" horiz-adv-x="657" 
d="M583 328v-197h35v-67h-35v-64h-81v64h-144v77l132 187h93zM502 131v102l-72 -102h72zM476 657h93l-192 -329l-183 -328h-93l192 330zM126 531h20.001c13.333 0 22.666 2.33301 27.999 7s8 13 8 25c0 21.333 -9.66699 32 -29 32c-9.33301 0 -16.833 -2.83301 -22.5 -8.5
s-8.5 -13.834 -8.5 -24.501v-5h-78v7c0 28.667 10 53 30 73s47 30 81 30s60.5 -8.66699 79.5 -26s28.5 -39.666 28.5 -66.999c0 -17.333 -3.16699 -31.833 -9.5 -43.5s-14.5 -20.5 -24.5 -26.5c11.333 -6 20.666 -15.333 27.999 -28s11 -28.667 11 -48
c0 -30 -10.167 -54 -30.5 -72s-48.166 -27 -83.499 -27c-34.667 0 -62 9.33301 -82 28s-30 43.667 -30 75v8h78v-6c0 -24 10.667 -36 32 -36c22.667 0 34 12.667 34 38c0 13.333 -3.5 22.333 -10.5 27s-16.833 7 -29.5 7h-20v61z" />
    <glyph glyph-name="questiondown" unicode="&#xbf;" horiz-adv-x="489" 
d="M301 303l3.99902 -36.998c2.66699 -19.333 1.83398 -36.5 -2.49902 -51.5s-11 -29 -20 -42s-19.667 -25.5 -32 -37.5l-38.5 -38c-13.333 -13.333 -25.166 -26.666 -35.499 -39.999s-15.5 -29 -15.5 -47c0 -22.667 7.16699 -40.834 21.5 -54.501s35.5 -20.5 63.5 -20.5
c28.667 0 50.667 7.83301 66 23.5s23 36.167 23 61.5v27h120v-29c0 -28.667 -5 -54.834 -15 -78.501s-24.333 -44.167 -43 -61.5s-41 -30.833 -67 -40.5s-55 -14.5 -87 -14.5s-60.833 4.33301 -86.5 13s-47.667 21 -66 37s-32.5 35.167 -42.5 57.5s-15 47.166 -15 74.499
c0 32 7.33301 60 22 84s33 46.333 55 67l31 28.5c10 9 18.833 18.167 26.5 27.5s14.167 19 19.5 29s8.66602 21 9.99902 33l4 29h100zM318.999 431.002c0 -19.333 -6.5 -35.666 -19.5 -48.999s-29.167 -20 -48.5 -20s-35.666 6.66699 -48.999 20s-20 29.666 -20 48.999
s6.66699 35.666 20 48.999s29.666 20 48.999 20s35.5 -6.66699 48.5 -20s19.5 -29.666 19.5 -48.999z" />
    <glyph glyph-name="Agrave" unicode="&#xc0;" horiz-adv-x="556" 
d="M16 0l196 657h132l196 -657h-128l-33 118h-209l-32 -118h-122zM198 224h153l-77 279zM146 804l76 71l112 -133l-56 -48z" />
    <glyph glyph-name="Aacute" unicode="&#xc1;" horiz-adv-x="556" 
d="M16 0l196 657h132l196 -657h-128l-33 118h-209l-32 -118h-122zM198 224h153l-77 279zM275 694l-56 48l112 133l76 -71z" />
    <glyph glyph-name="Acircumflex" unicode="&#xc2;" horiz-adv-x="556" 
d="M16 0l196 657h132l196 -657h-128l-33 118h-209l-32 -118h-122zM198 224h153l-77 279zM304 868l108 -134l-47 -40l-89 78l-87 -77l-46 39l108 134h53z" />
    <glyph glyph-name="Atilde" unicode="&#xc3;" horiz-adv-x="556" 
d="M16 0l196 657h132l196 -657h-128l-33 118h-209l-32 -118h-122zM198 224h153l-77 279zM437 818c0.666992 -4.66699 0.999023 -9 0.999023 -13v-12c0 -34 -8 -58.667 -24 -74s-36 -23 -60 -23c-10 0 -19.833 1.33301 -29.5 4s-19.167 6.33398 -28.5 11.001l-43 21
c-5.33301 2.66699 -10.666 5 -15.999 7s-10.666 3 -15.999 3c-8.66699 0 -15.5 -2.16699 -20.5 -6.5s-8.83301 -9.16602 -11.5 -14.499s-4.33398 -10.333 -5.00098 -15l-1 -7h-62c-1.33301 5.33301 -2.33301 10.166 -3 14.499s-1 8.83301 -1 13.5c0 28 8.66699 51 26 69
s40 27 68 27c17.333 0 35 -4.33301 53 -13l41 -20c6 -3.33301 12.5 -6.5 19.5 -9.5s13.5 -4.5 19.5 -4.5c6.66699 0 12 2 16 6s7.16699 8.5 9.5 13.5s3.83301 9.66699 4.5 14s1 7.16602 1 8.49902h62z" />
    <glyph glyph-name="Adieresis" unicode="&#xc4;" horiz-adv-x="556" 
d="M16 0l196 657h132l196 -657h-128l-33 118h-209l-32 -118h-122zM198 224h153l-77 279zM149 765c0 17.333 5.83301 31.5 17.5 42.5s25.834 16.5 42.501 16.5s30.5 -5.5 41.5 -16.5s16.5 -25.167 16.5 -42.5c0 -16.667 -5.5 -30.834 -16.5 -42.501
s-24.833 -17.5 -41.5 -17.5s-30.834 5.83301 -42.501 17.5s-17.5 25.834 -17.5 42.501zM289 765c0 17.333 5.66699 31.5 17 42.5s25.333 16.5 42 16.5s30.667 -5.5 42 -16.5s17 -25.167 17 -42.5c0 -16.667 -5.66699 -30.834 -17 -42.501s-25.333 -17.5 -42 -17.5
s-30.667 5.83301 -42 17.5s-17 25.834 -17 42.501z" />
    <glyph glyph-name="Aring" unicode="&#xc5;" horiz-adv-x="556" 
d="M16 0l187 627.999c-22 18.667 -33 44.334 -33 77.001c0 28.667 9.83301 53 29.5 73s45.5 30 77.5 30c32.667 0 59 -10 79 -30s30 -44.333 30 -73c0 -32 -11.333 -57.667 -34 -77l188 -628h-128l-33 118h-209l-32 -118h-122zM198 223.999h153l-77 279zM277 657.999
c13.333 0 23.833 4.5 31.5 13.5s11.5 20.167 11.5 33.5s-3.83301 24.166 -11.5 32.499s-18.167 12.5 -31.5 12.5s-23.666 -4.16699 -30.999 -12.5s-11 -19.166 -11 -32.499s3.66699 -24.5 11 -33.5s17.666 -13.5 30.999 -13.5z" />
    <glyph glyph-name="AE" unicode="&#xc6;" horiz-adv-x="837" 
d="M-1 0l318 657h468v-112h-283v-156h255v-110h-255v-167h292v-112h-416v117h-193l-53 -117h-133zM378 223v321l-146 -321h146z" />
    <glyph glyph-name="Ccedilla" unicode="&#xc7;" horiz-adv-x="554" 
d="M207 -81l21.999 77.002c-52 10 -93.833 33.333 -125.5 70s-47.5 84.334 -47.5 143.001v239c0 68 19.833 121.5 59.5 160.5s96.5 58.5 170.5 58.5c33.333 0 63.833 -5 91.5 -15s51.334 -24.333 71.001 -43s34.834 -41.334 45.501 -68.001s16 -56.667 16 -90v-16h-120v15
c0 32 -9.16699 57.5 -27.5 76.5s-44.5 28.5 -78.5 28.5c-32 0 -57.167 -9.83301 -75.5 -29.5s-27.5 -46.167 -27.5 -79.5v-235c0 -33.333 9.16699 -59.833 27.5 -79.5s43.5 -29.5 75.5 -29.5c34 0 60.167 9.5 78.5 28.5s27.5 44.5 27.5 76.5v18h120v-19
c0 -32.667 -5.16699 -62 -15.5 -88s-25 -48.333 -44 -67s-41.667 -33.334 -68 -44.001s-55.833 -16.334 -88.5 -17.001l-9 -30h12c26 0 46 -6.33301 60 -19s21 -30.334 21 -53.001c0 -23.333 -7.33301 -41.666 -22 -54.999s-34.334 -20 -59.001 -20h-112v57h101
c5.33301 0 9.83301 1.33301 13.5 4s5.5 7 5.5 13s-1.83301 10.167 -5.5 12.5s-8.16699 3.5 -13.5 3.5h-58z" />
    <glyph glyph-name="Egrave" unicode="&#xc8;" horiz-adv-x="525" 
d="M146 804l76 71l112 -133l-56 -48zM198 279v-167h284v-112h-409v657h400v-112h-275v-156h246v-110h-246z" />
    <glyph glyph-name="Eacute" unicode="&#xc9;" horiz-adv-x="525" 
d="M198 279v-167h284v-112h-409v657h400v-112h-275v-156h246v-110h-246zM276 694l-56 48l112 133l76 -71z" />
    <glyph glyph-name="Ecircumflex" unicode="&#xca;" horiz-adv-x="525" 
d="M304 868l108 -134l-47 -40l-89 78l-87 -77l-46 39l108 134h53zM198 279v-167h284v-112h-409v657h400v-112h-275v-156h246v-110h-246z" />
    <glyph glyph-name="Edieresis" unicode="&#xcb;" horiz-adv-x="525" 
d="M198 279v-167h284v-112h-409v657h400v-112h-275v-156h246v-110h-246zM149 765c0 17.333 5.83301 31.5 17.5 42.5s25.834 16.5 42.501 16.5s30.5 -5.5 41.5 -16.5s16.5 -25.167 16.5 -42.5c0 -16.667 -5.5 -30.834 -16.5 -42.501s-24.833 -17.5 -41.5 -17.5
s-30.834 5.83301 -42.501 17.5s-17.5 25.834 -17.5 42.501zM289 765c0 17.333 5.66699 31.5 17 42.5s25.333 16.5 42 16.5s30.667 -5.5 42 -16.5s17 -25.167 17 -42.5c0 -16.667 -5.66699 -30.834 -17 -42.501s-25.333 -17.5 -42 -17.5s-30.667 5.83301 -42 17.5
s-17 25.834 -17 42.501z" />
    <glyph glyph-name="Igrave" unicode="&#xcc;" horiz-adv-x="271" 
d="M198 0h-125v657h125v-657zM5 804l76 71l112 -133l-56 -48z" />
    <glyph glyph-name="Iacute" unicode="&#xcd;" horiz-adv-x="271" 
d="M198 0h-125v657h125v-657zM135 694l-56 48l112 133l76 -71z" />
    <glyph glyph-name="Icircumflex" unicode="&#xce;" horiz-adv-x="271" 
d="M198 0h-125v657h125v-657zM162 868l108 -134l-47 -40l-89 78l-87 -77l-46 39l108 134h53z" />
    <glyph glyph-name="Idieresis" unicode="&#xcf;" horiz-adv-x="271" 
d="M198 0h-125v657h125v-657zM7 765c0 17.333 5.83301 31.5 17.5 42.5s25.834 16.5 42.501 16.5s30.5 -5.5 41.5 -16.5s16.5 -25.167 16.5 -42.5c0 -16.667 -5.5 -30.834 -16.5 -42.501s-24.833 -17.5 -41.5 -17.5s-30.834 5.83301 -42.501 17.5s-17.5 25.834 -17.5 42.501z
M147 765c0 17.333 5.66699 31.5 17 42.5s25.333 16.5 42 16.5s30.667 -5.5 42 -16.5s17 -25.167 17 -42.5c0 -16.667 -5.66699 -30.834 -17 -42.501s-25.333 -17.5 -42 -17.5s-30.667 5.83301 -42 17.5s-17 25.834 -17 42.501z" />
    <glyph glyph-name="Eth" unicode="&#xd0;" horiz-adv-x="596" 
d="M305 657c74.667 0 132.834 -20 174.501 -60s62.5 -94.667 62.5 -164v-209c0 -69.333 -20.833 -124 -62.5 -164s-99.834 -60 -174.501 -60h-227v282h-67v102h67v273h227zM203 545v-160.998h102v-102h-102v-170h102c36 0 63.667 10.167 83 30.5s29 48.166 29 83.499v205
c0 35.333 -9.66699 63.166 -29 83.499s-47 30.5 -83 30.5h-102z" />
    <glyph glyph-name="Ntilde" unicode="&#xd1;" horiz-adv-x="595" 
d="M456 818c0.666992 -4.66699 0.999023 -9 0.999023 -13v-12c0 -34 -8 -58.667 -24 -74s-36 -23 -60 -23c-10 0 -19.833 1.33301 -29.5 4s-19.167 6.33398 -28.5 11.001l-43 21c-5.33301 2.66699 -10.666 5 -15.999 7s-10.666 3 -15.999 3
c-8.66699 0 -15.5 -2.16699 -20.5 -6.5s-8.83301 -9.16602 -11.5 -14.499s-4.33398 -10.333 -5.00098 -15l-1 -7h-62c-1.33301 5.33301 -2.33301 10.166 -3 14.499s-1 8.83301 -1 13.5c0 28 8.66699 51 26 69s40 27 68 27c17.333 0 35 -4.33301 53 -13l41 -20
c6 -3.33301 12.5 -6.5 19.5 -9.5s13.5 -4.5 19.5 -4.5c6.66699 0 12 2 16 6s7.16699 8.5 9.5 13.5s3.83301 9.66699 4.5 14s1 7.16602 1 8.49902h62zM521.999 0h-102l-233 415v-415h-114v657h107l228 -405v405h114v-657z" />
    <glyph glyph-name="Ograve" unicode="&#xd2;" horiz-adv-x="573" 
d="M154 804l76 71l112 -133l-56 -48zM180 211c0 -33.333 9.33301 -59.833 28 -79.5s45 -29.5 79 -29.5s60.167 9.83301 78.5 29.5s27.5 46.167 27.5 79.5v235c0 33.333 -9.16699 59.833 -27.5 79.5s-44.5 29.5 -78.5 29.5s-60.333 -9.83301 -79 -29.5s-28 -46.167 -28 -79.5
v-235zM518 209c0 -34 -5.66895 -64.5 -17.002 -91.5s-27.166 -50 -47.499 -69s-44.666 -33.5 -72.999 -43.5s-59.5 -15 -93.5 -15c-34.667 0 -66.167 5 -94.5 15s-52.666 24.5 -72.999 43.5s-36.166 42 -47.499 69s-17 57.5 -17 91.5v239c0 68 20 121.5 60 160.5
s97.333 58.5 172 58.5c34 0 65.167 -5 93.5 -15s52.666 -24.5 72.999 -43.5s36.166 -42 47.499 -69s17 -57.5 17 -91.5v-239z" />
    <glyph glyph-name="Oacute" unicode="&#xd3;" horiz-adv-x="573" 
d="M287 694l-56 48l112 133l76 -71zM180 211c0 -33.333 9.33301 -59.833 28 -79.5s45 -29.5 79 -29.5s60.167 9.83301 78.5 29.5s27.5 46.167 27.5 79.5v235c0 33.333 -9.16699 59.833 -27.5 79.5s-44.5 29.5 -78.5 29.5s-60.333 -9.83301 -79 -29.5s-28 -46.167 -28 -79.5
v-235zM518 209c0 -34 -5.66895 -64.5 -17.002 -91.5s-27.166 -50 -47.499 -69s-44.666 -33.5 -72.999 -43.5s-59.5 -15 -93.5 -15c-34.667 0 -66.167 5 -94.5 15s-52.666 24.5 -72.999 43.5s-36.166 42 -47.499 69s-17 57.5 -17 91.5v239c0 68 20 121.5 60 160.5
s97.333 58.5 172 58.5c34 0 65.167 -5 93.5 -15s52.666 -24.5 72.999 -43.5s36.166 -42 47.499 -69s17 -57.5 17 -91.5v-239z" />
    <glyph glyph-name="Ocircumflex" unicode="&#xd4;" horiz-adv-x="573" 
d="M313 868l108 -134l-47 -40l-89 78l-87 -77l-46 39l108 134h53zM180 211c0 -33.333 9.33301 -59.833 28 -79.5s45 -29.5 79 -29.5s60.167 9.83301 78.5 29.5s27.5 46.167 27.5 79.5v235c0 33.333 -9.16699 59.833 -27.5 79.5s-44.5 29.5 -78.5 29.5
s-60.333 -9.83301 -79 -29.5s-28 -46.167 -28 -79.5v-235zM518 209c0 -34 -5.66895 -64.5 -17.002 -91.5s-27.166 -50 -47.499 -69s-44.666 -33.5 -72.999 -43.5s-59.5 -15 -93.5 -15c-34.667 0 -66.167 5 -94.5 15s-52.666 24.5 -72.999 43.5s-36.166 42 -47.499 69
s-17 57.5 -17 91.5v239c0 68 20 121.5 60 160.5s97.333 58.5 172 58.5c34 0 65.167 -5 93.5 -15s52.666 -24.5 72.999 -43.5s36.166 -42 47.499 -69s17 -57.5 17 -91.5v-239z" />
    <glyph glyph-name="Otilde" unicode="&#xd5;" horiz-adv-x="573" 
d="M180 211c0 -33.333 9.33301 -59.833 28 -79.5s45 -29.5 79 -29.5s60.167 9.83301 78.5 29.5s27.5 46.167 27.5 79.5v235c0 33.333 -9.16699 59.833 -27.5 79.5s-44.5 29.5 -78.5 29.5s-60.333 -9.83301 -79 -29.5s-28 -46.167 -28 -79.5v-235zM518 209
c0 -34 -5.66895 -64.5 -17.002 -91.5s-27.166 -50 -47.499 -69s-44.666 -33.5 -72.999 -43.5s-59.5 -15 -93.5 -15c-34.667 0 -66.167 5 -94.5 15s-52.666 24.5 -72.999 43.5s-36.166 42 -47.499 69s-17 57.5 -17 91.5v239c0 68 20 121.5 60 160.5s97.333 58.5 172 58.5
c34 0 65.167 -5 93.5 -15s52.666 -24.5 72.999 -43.5s36.166 -42 47.499 -69s17 -57.5 17 -91.5v-239zM445.998 818c0.666992 -4.66699 0.999023 -9 0.999023 -13v-12c0 -34 -8 -58.667 -24 -74s-36 -23 -60 -23c-10 0 -19.833 1.33301 -29.5 4
s-19.167 6.33398 -28.5 11.001l-43 21c-5.33301 2.66699 -10.666 5 -15.999 7s-10.666 3 -15.999 3c-8.66699 0 -15.5 -2.16699 -20.5 -6.5s-8.83301 -9.16602 -11.5 -14.499s-4.33398 -10.333 -5.00098 -15l-1 -7h-62c-1.33301 5.33301 -2.33301 10.166 -3 14.499
s-1 8.83301 -1 13.5c0 28 8.66699 51 26 69s40 27 68 27c17.333 0 35 -4.33301 53 -13l41 -20c6 -3.33301 12.5 -6.5 19.5 -9.5s13.5 -4.5 19.5 -4.5c6.66699 0 12 2 16 6s7.16699 8.5 9.5 13.5s3.83301 9.66699 4.5 14s1 7.16602 1 8.49902h62z" />
    <glyph glyph-name="Odieresis" unicode="&#xd6;" horiz-adv-x="573" 
d="M180 211c0 -33.333 9.33301 -59.833 28 -79.5s45 -29.5 79 -29.5s60.167 9.83301 78.5 29.5s27.5 46.167 27.5 79.5v235c0 33.333 -9.16699 59.833 -27.5 79.5s-44.5 29.5 -78.5 29.5s-60.333 -9.83301 -79 -29.5s-28 -46.167 -28 -79.5v-235zM518 209
c0 -34 -5.66895 -64.5 -17.002 -91.5s-27.166 -50 -47.499 -69s-44.666 -33.5 -72.999 -43.5s-59.5 -15 -93.5 -15c-34.667 0 -66.167 5 -94.5 15s-52.666 24.5 -72.999 43.5s-36.166 42 -47.499 69s-17 57.5 -17 91.5v239c0 68 20 121.5 60 160.5s97.333 58.5 172 58.5
c34 0 65.167 -5 93.5 -15s52.666 -24.5 72.999 -43.5s36.166 -42 47.499 -69s17 -57.5 17 -91.5v-239zM157.998 765c0 17.333 5.83301 31.5 17.5 42.5s25.834 16.5 42.501 16.5s30.5 -5.5 41.5 -16.5s16.5 -25.167 16.5 -42.5c0 -16.667 -5.5 -30.834 -16.5 -42.501
s-24.833 -17.5 -41.5 -17.5s-30.834 5.83301 -42.501 17.5s-17.5 25.834 -17.5 42.501zM297.998 765c0 17.333 5.66699 31.5 17 42.5s25.333 16.5 42 16.5s30.667 -5.5 42 -16.5s17 -25.167 17 -42.5c0 -16.667 -5.66699 -30.834 -17 -42.501s-25.333 -17.5 -42 -17.5
s-30.667 5.83301 -42 17.5s-17 25.834 -17 42.501z" />
    <glyph glyph-name="multiply" unicode="&#xd7;" horiz-adv-x="457" 
d="M149 327l-104 105l79 79l104 -105l106 106l78 -79l-106 -106l108 -106l-79 -79l-108 106l-104 -104l-79 79z" />
    <glyph glyph-name="Oslash" unicode="&#xd8;" horiz-adv-x="573" 
d="M518 209c0 -34 -5.66895 -64.5 -17.002 -91.5s-27.166 -50 -47.499 -69s-44.666 -33.5 -72.999 -43.5s-59.5 -15 -93.5 -15c-44 0 -83.667 8.33301 -119 25l-32 -64h-73l51 103c-39.333 38 -59 89.667 -59 155v239c0 68 20 121.5 60 160.5s97.333 58.5 172 58.5
c42.667 0 81.667 -8.33301 117 -25l32 64h74l-51 -103c18.667 -18.667 33.167 -41.167 43.5 -67.5s15.5 -55.5 15.5 -87.5v-239zM395.998 449c0 8.66699 -1 17.667 -3 27l-176 -357c18.667 -13.333 42 -20 70 -20c34.667 0 61.5 10 80.5 30s28.5 46.333 28.5 79v241z
M176.998 208v-13.5c0 -4.33301 0.666992 -8.5 2 -12.5l176 356c-17.333 13.333 -40 20 -68 20c-34.667 0 -61.667 -10 -81 -30s-29 -46.333 -29 -79v-241z" />
    <glyph glyph-name="Ugrave" unicode="&#xd9;" horiz-adv-x="588" 
d="M162 804l76 71l112 -133l-56 -48zM519 657l0.00195312 -448c0 -34 -5.5 -64.5 -16.5 -91.5s-26.333 -50 -46 -69s-43.334 -33.5 -71.001 -43.5s-58.167 -15 -91.5 -15s-63.833 5 -91.5 15s-51.334 24.5 -71.001 43.5s-35 42 -46 69s-16.5 57.5 -16.5 91.5v448h124v-446
c0 -33.333 8.83301 -59.833 26.5 -79.5s42.5 -29.5 74.5 -29.5s56.833 9.83301 74.5 29.5s26.5 46.167 26.5 79.5v446h124z" />
    <glyph glyph-name="Uacute" unicode="&#xda;" horiz-adv-x="588" 
d="M519 657l0.00195312 -448c0 -34 -5.5 -64.5 -16.5 -91.5s-26.333 -50 -46 -69s-43.334 -33.5 -71.001 -43.5s-58.167 -15 -91.5 -15s-63.833 5 -91.5 15s-51.334 24.5 -71.001 43.5s-35 42 -46 69s-16.5 57.5 -16.5 91.5v448h124v-446
c0 -33.333 8.83301 -59.833 26.5 -79.5s42.5 -29.5 74.5 -29.5s56.833 9.83301 74.5 29.5s26.5 46.167 26.5 79.5v446h124zM292.002 694l-56 48l112 133l76 -71z" />
    <glyph glyph-name="Ucircumflex" unicode="&#xdb;" horiz-adv-x="588" 
d="M321 868l108 -134l-47 -40l-89 78l-87 -77l-46 39l108 134h53zM519 657l0.00195312 -448c0 -34 -5.5 -64.5 -16.5 -91.5s-26.333 -50 -46 -69s-43.334 -33.5 -71.001 -43.5s-58.167 -15 -91.5 -15s-63.833 5 -91.5 15s-51.334 24.5 -71.001 43.5s-35 42 -46 69
s-16.5 57.5 -16.5 91.5v448h124v-446c0 -33.333 8.83301 -59.833 26.5 -79.5s42.5 -29.5 74.5 -29.5s56.833 9.83301 74.5 29.5s26.5 46.167 26.5 79.5v446h124z" />
    <glyph glyph-name="Udieresis" unicode="&#xdc;" horiz-adv-x="588" 
d="M519 657l0.00195312 -448c0 -34 -5.5 -64.5 -16.5 -91.5s-26.333 -50 -46 -69s-43.334 -33.5 -71.001 -43.5s-58.167 -15 -91.5 -15s-63.833 5 -91.5 15s-51.334 24.5 -71.001 43.5s-35 42 -46 69s-16.5 57.5 -16.5 91.5v448h124v-446
c0 -33.333 8.83301 -59.833 26.5 -79.5s42.5 -29.5 74.5 -29.5s56.833 9.83301 74.5 29.5s26.5 46.167 26.5 79.5v446h124zM165.002 765c0 17.333 5.83301 31.5 17.5 42.5s25.834 16.5 42.501 16.5s30.5 -5.5 41.5 -16.5s16.5 -25.167 16.5 -42.5
c0 -16.667 -5.5 -30.834 -16.5 -42.501s-24.833 -17.5 -41.5 -17.5s-30.834 5.83301 -42.501 17.5s-17.5 25.834 -17.5 42.501zM305.002 765c0 17.333 5.66699 31.5 17 42.5s25.333 16.5 42 16.5s30.667 -5.5 42 -16.5s17 -25.167 17 -42.5
c0 -16.667 -5.66699 -30.834 -17 -42.501s-25.333 -17.5 -42 -17.5s-30.667 5.83301 -42 17.5s-17 25.834 -17 42.501z" />
    <glyph glyph-name="Yacute" unicode="&#xdd;" horiz-adv-x="508" 
d="M139 657l118 -271l118 271h126l-185 -391v-266h-124v264l-185 393h132zM254 694l-56 48l112 133l76 -71z" />
    <glyph glyph-name="Thorn" unicode="&#xde;" horiz-adv-x="561" 
d="M198 545l104 -0.000976562c32.667 0 62.834 -5.16699 90.501 -15.5s51.667 -24.833 72 -43.5s36.166 -41.167 47.499 -67.5s17 -55.5 17 -87.5c0 -33.333 -5.66699 -63.666 -17 -90.999s-27.166 -50.5 -47.499 -69.5s-44.333 -33.667 -72 -44
s-57.834 -15.5 -90.501 -15.5h-104v-111h-125v657h125v-112zM198 434.999v-213.999h93c34.667 0 61.834 9.66699 81.501 29s29.5 45.666 29.5 78.999c0 32 -9.83301 57.667 -29.5 77s-46.834 29 -81.501 29h-93z" />
    <glyph glyph-name="germandbls" unicode="&#xdf;" horiz-adv-x="512" 
d="M234 99l15.9971 0.000976562c32 0 56.667 9.16699 74 27.5s26 43.166 26 74.499s-8.66699 56.333 -26 75s-41 28 -71 28h-19v99h11c28 0 50 7.66699 66 23s24 37.333 24 66c0 25.333 -6.16699 45.833 -18.5 61.5s-32.166 23.5 -59.499 23.5
c-29.333 0 -49.5 -8.5 -60.5 -25.5s-16.5 -38.5 -16.5 -64.5v-487h-119v480c0 63.333 17 112 51 146s82.667 51 146 51c30.667 0 58.334 -4.16699 83.001 -12.5s45.667 -20 63 -35s30.666 -33.167 39.999 -54.5s14 -45 14 -71c0 -36 -8.5 -66.167 -25.5 -90.5
s-40.833 -42.5 -71.5 -54.5v-2c36 -12.667 63.833 -33 83.5 -61s29.5 -63 29.5 -105c0 -29.333 -5.16699 -55.833 -15.5 -79.5s-24.666 -43.667 -42.999 -60s-40.166 -29 -65.499 -38s-53 -13.5 -83 -13.5h-33v99z" />
    <glyph glyph-name="agrave" unicode="&#xe0;" 
d="M46 310c0 28 3.5 53.5 10.5 76.5s17.5 43 31.5 60s31.5 30.167 52.5 39.5s45.167 14 72.5 14c26.667 0 50 -5.16699 70 -15.5s36.333 -23.833 49 -40.5l9 46h103v-490h-103l-9 46c-12.667 -17.333 -29 -31 -49 -41s-43.333 -15 -70 -15c-27.333 0 -51.5 4.66699 -72.5 14
s-38.5 22.5 -52.5 39.5s-24.5 37 -31.5 60s-10.5 48.5 -10.5 76.5v130zM243 95c25.333 0 45.166 8.16797 59.499 24.501s21.5 36.833 21.5 61.5v127c0 25.333 -7.16699 46.166 -21.5 62.499s-34.166 24.5 -59.499 24.5s-44.333 -8 -57 -24s-19 -36.333 -19 -61v-131
c0 -24 6.33301 -44 19 -60s31.667 -24 57 -24zM114 652.001l76 71l112 -132l-56 -49z" />
    <glyph glyph-name="aacute" unicode="&#xe1;" 
d="M46 310c0 28 3.5 53.5 10.5 76.5s17.5 43 31.5 60s31.5 30.167 52.5 39.5s45.167 14 72.5 14c26.667 0 50 -5.16699 70 -15.5s36.333 -23.833 49 -40.5l9 46h103v-490h-103l-9 46c-12.667 -17.333 -29 -31 -49 -41s-43.333 -15 -70 -15c-27.333 0 -51.5 4.66699 -72.5 14
s-38.5 22.5 -52.5 39.5s-24.5 37 -31.5 60s-10.5 48.5 -10.5 76.5v130zM243 95c25.333 0 45.166 8.16797 59.499 24.501s21.5 36.833 21.5 61.5v127c0 25.333 -7.16699 46.166 -21.5 62.499s-34.166 24.5 -59.499 24.5s-44.333 -8 -57 -24s-19 -36.333 -19 -61v-131
c0 -24 6.33301 -44 19 -60s31.667 -24 57 -24zM245 542.001l-56 49l112 132l76 -71z" />
    <glyph glyph-name="acircumflex" unicode="&#xe2;" 
d="M46 310c0 28 3.5 53.5 10.5 76.5s17.5 43 31.5 60s31.5 30.167 52.5 39.5s45.167 14 72.5 14c26.667 0 50 -5.16699 70 -15.5s36.333 -23.833 49 -40.5l9 46h103v-490h-103l-9 46c-12.667 -17.333 -29 -31 -49 -41s-43.333 -15 -70 -15c-27.333 0 -51.5 4.66699 -72.5 14
s-38.5 22.5 -52.5 39.5s-24.5 37 -31.5 60s-10.5 48.5 -10.5 76.5v130zM243 95c25.333 0 45.166 8.16797 59.499 24.501s21.5 36.833 21.5 61.5v127c0 25.333 -7.16699 46.166 -21.5 62.499s-34.166 24.5 -59.499 24.5s-44.333 -8 -57 -24s-19 -36.333 -19 -61v-131
c0 -24 6.33301 -44 19 -60s31.667 -24 57 -24zM272 715.001l108 -133l-47 -40l-89 77l-87 -76l-46 39l108 133h53z" />
    <glyph glyph-name="atilde" unicode="&#xe3;" 
d="M46 310c0 28 3.5 53.5 10.5 76.5s17.5 43 31.5 60s31.5 30.167 52.5 39.5s45.167 14 72.5 14c26.667 0 50 -5.16699 70 -15.5s36.333 -23.833 49 -40.5l9 46h103v-490h-103l-9 46c-12.667 -17.333 -29 -31 -49 -41s-43.333 -15 -70 -15c-27.333 0 -51.5 4.66699 -72.5 14
s-38.5 22.5 -52.5 39.5s-24.5 37 -31.5 60s-10.5 48.5 -10.5 76.5v130zM243 95c25.333 0 45.166 8.16797 59.499 24.501s21.5 36.833 21.5 61.5v127c0 25.333 -7.16699 46.166 -21.5 62.499s-34.166 24.5 -59.499 24.5s-44.333 -8 -57 -24s-19 -36.333 -19 -61v-131
c0 -24 6.33301 -44 19 -60s31.667 -24 57 -24zM404 669.001c0.666992 -5.33301 0.999023 -9.83301 0.999023 -13.5v-11.5c0 -34 -8 -58.667 -24 -74s-36 -23 -60 -23c-10 0 -19.833 1.33301 -29.5 4s-19.167 6.33398 -28.5 11.001l-43 21
c-5.33301 2.66699 -10.666 5 -15.999 7s-10.666 3 -15.999 3c-8.66699 0 -15.5 -2.16699 -20.5 -6.5s-8.83301 -9.16602 -11.5 -14.499s-4.33398 -10.333 -5.00098 -15l-1 -7h-62c-1.33301 3.33301 -2.33301 7.66602 -3 12.999s-1 10.333 -1 15c0 28 8.66699 51 26 69
s40 27 68 27c17.333 0 35 -4.33301 53 -13l41 -20c6 -3.33301 12.5 -6.5 19.5 -9.5s13.5 -4.5 19.5 -4.5c6.66699 0 12 2 16 6s7.16699 8.5 9.5 13.5s3.83301 9.66699 4.5 14s1 7.16602 1 8.49902h62z" />
    <glyph glyph-name="adieresis" unicode="&#xe4;" 
d="M46 310c0 28 3.5 53.5 10.5 76.5s17.5 43 31.5 60s31.5 30.167 52.5 39.5s45.167 14 72.5 14c26.667 0 50 -5.16699 70 -15.5s36.333 -23.833 49 -40.5l9 46h103v-490h-103l-9 46c-12.667 -17.333 -29 -31 -49 -41s-43.333 -15 -70 -15c-27.333 0 -51.5 4.66699 -72.5 14
s-38.5 22.5 -52.5 39.5s-24.5 37 -31.5 60s-10.5 48.5 -10.5 76.5v130zM243 95c25.333 0 45.166 8.16797 59.499 24.501s21.5 36.833 21.5 61.5v127c0 25.333 -7.16699 46.166 -21.5 62.499s-34.166 24.5 -59.499 24.5s-44.333 -8 -57 -24s-19 -36.333 -19 -61v-131
c0 -24 6.33301 -44 19 -60s31.667 -24 57 -24zM116 612.001c0 16.667 5.83301 30.5 17.5 41.5s25.834 16.5 42.501 16.5s30.5 -5.5 41.5 -16.5s16.5 -24.833 16.5 -41.5s-5.5 -31 -16.5 -43s-24.833 -18 -41.5 -18s-30.834 6 -42.501 18s-17.5 26.333 -17.5 43zM256 612.001
c0 16.667 5.66699 30.5 17 41.5s25.333 16.5 42 16.5s30.667 -5.5 42 -16.5s17 -24.833 17 -41.5s-5.66699 -31 -17 -43s-25.333 -18 -42 -18s-30.667 6 -42 18s-17 26.333 -17 43z" />
    <glyph glyph-name="aring" unicode="&#xe5;" 
d="M46 310c0 28 3.5 53.5 10.5 76.5s17.5 43 31.5 60s31.5 30.167 52.5 39.5s45.167 14 72.5 14c26.667 0 50 -5.16699 70 -15.5s36.333 -23.833 49 -40.5l9 46h103v-490h-103l-9 46c-12.667 -17.333 -29 -31 -49 -41s-43.333 -15 -70 -15c-27.333 0 -51.5 4.66699 -72.5 14
s-38.5 22.5 -52.5 39.5s-24.5 37 -31.5 60s-10.5 48.5 -10.5 76.5v130zM243 95c25.333 0 45.166 8.16797 59.499 24.501s21.5 36.833 21.5 61.5v127c0 25.333 -7.16699 46.166 -21.5 62.499s-34.166 24.5 -59.499 24.5s-44.333 -8 -57 -24s-19 -36.333 -19 -61v-131
c0 -24 6.33301 -44 19 -60s31.667 -24 57 -24zM244 584.001c13.333 0 23.833 4.33301 31.5 13s11.5 19.667 11.5 33s-3.83301 24.166 -11.5 32.499s-18.167 12.5 -31.5 12.5s-23.666 -4.16699 -30.999 -12.5s-11 -19.166 -11 -32.499s3.66699 -24.333 11 -33
s17.666 -13 30.999 -13zM244 527.001c-32 0 -57.833 10 -77.5 30s-29.5 44.333 -29.5 73s9.83301 53 29.5 73s45.5 30 77.5 30c32.667 0 59 -10 79 -30s30 -44.333 30 -73s-10 -53 -30 -73s-46.333 -30 -79 -30z" />
    <glyph glyph-name="ae" unicode="&#xe6;" horiz-adv-x="737" 
d="M37 135c0 49.333 16.002 85.1699 48.002 107.503s73.667 33.5 125 33.5h96v50c0 22 -6 40.167 -18 54.5s-30 21.5 -54 21.5c-22.667 0 -40.334 -7 -53.001 -21s-19 -31.333 -19 -52v-12h-117v5c0 27.333 4.5 52 13.5 74s21.667 40.667 38 56s35.833 27.166 58.5 35.499
s47.667 12.5 75 12.5c30 0 56.667 -5.33301 80 -16s42.666 -25.667 57.999 -45c16 19.333 35.5 34.333 58.5 45s48.5 16 76.5 16c28.667 0 54.667 -4.66699 78 -14s43.5 -22.5 60.5 -39.5s30.167 -37.667 39.5 -62s14 -51.5 14 -81.5v-81h-271v-50
c0 -24.667 7.16699 -45.167 21.5 -61.5s34.166 -24.5 59.499 -24.5c24.667 0 43.5 7.16699 56.5 21.5s19.5 32.833 19.5 55.5v7h114v-4c0 -27.333 -4.66699 -51.833 -14 -73.5s-22.5 -40 -39.5 -55s-37.167 -26.667 -60.5 -35s-49.333 -12.5 -78 -12.5
c-34 0 -64.167 7.16699 -90.5 21.5s-47.166 35.166 -62.499 62.499c-11.333 -24.667 -29.833 -44.834 -55.5 -60.501s-58.167 -23.5 -97.5 -23.5c-23.333 0 -44.833 3 -64.5 9s-36.5 15 -50.5 27s-25 27 -33 45s-12 39.333 -12 64zM227.002 85.0039
c26.667 0 46.5 8.33203 59.5 24.999s19.5 37.334 19.5 62.001v20h-73c-9.33301 0 -18.333 -0.666992 -27 -2s-16.5 -4 -23.5 -8s-12.667 -9.5 -17 -16.5s-6.5 -16.167 -6.5 -27.5c0 -35.333 22.667 -53 68 -53zM424.002 305.003h157.001v12
c0 25.333 -6.83301 46.166 -20.5 62.499s-32.834 24.5 -57.501 24.5c-25.333 0 -44.833 -8.16699 -58.5 -24.5s-20.5 -37.166 -20.5 -62.499v-12z" />
    <glyph glyph-name="ccedilla" unicode="&#xe7;" horiz-adv-x="474" 
d="M165 -81l22.0049 76.999c-44 10 -78.833 31.5 -104.5 64.5s-38.5 75.167 -38.5 126.5v116c0 30 4.83301 57.167 14.5 81.5s23.167 45 40.5 62s38.166 30.167 62.499 39.5s51.166 14 80.499 14c28.667 0 55 -4.33301 79 -13s44.5 -21 61.5 -37s30.167 -35.167 39.5 -57.5
s14 -47.5 14 -75.5v-4h-116v12c0 21.333 -6.83301 38.833 -20.5 52.5s-32.834 20.5 -57.501 20.5s-43.667 -8.16699 -57 -24.5s-20 -37.166 -20 -62.499v-133c0 -25.333 6.66699 -46 20 -62s32.333 -24 57 -24c25.333 0 44.666 6.83301 57.999 20.5s20 32.167 20 55.5v16
h116v-6c0 -58 -16.833 -103.333 -50.5 -136s-78.167 -50 -133.5 -52l-9 -30h12c26 0 46 -6.33301 60 -19s21 -30.334 21 -53.001c0 -23.333 -7.33301 -41.666 -22 -54.999s-34.334 -20 -59.001 -20h-112v57h101c5.33301 0 9.83301 1.33301 13.5 4s5.5 7 5.5 13
s-1.83301 10.167 -5.5 12.5s-8.16699 3.5 -13.5 3.5h-58z" />
    <glyph glyph-name="egrave" unicode="&#xe8;" horiz-adv-x="475" 
d="M433 170l0.000976562 -4c0 -27.333 -4.66699 -51.833 -14 -73.5s-22.333 -40 -39 -55s-36.834 -26.667 -60.501 -35s-49.5 -12.5 -77.5 -12.5c-29.333 0 -56.166 4.5 -80.499 13.5s-45.166 22 -62.499 39s-30.833 37.5 -40.5 61.5s-14.5 51 -14.5 81v118
c0 30 4.83301 57.167 14.5 81.5s23.167 45 40.5 62s38.166 30.167 62.499 39.5s51.166 14 80.499 14c28 0 53.833 -4.66699 77.5 -14s43.834 -22.5 60.501 -39.5s29.667 -37.667 39 -62s14 -51.5 14 -81.5v-81h-271v-50c0 -24.667 7.16699 -45.167 21.5 -61.5
s34.166 -24.5 59.499 -24.5c24.667 0 43.5 7.16699 56.5 21.5s19.5 32.833 19.5 55.5v7h114zM162.001 305h157v12c0 25.333 -6.83301 46.166 -20.5 62.499s-32.5 24.5 -56.5 24.5c-25.333 0 -45 -8.16699 -59 -24.5s-21 -37.166 -21 -62.499v-12zM108.001 652l76 71
l112 -132l-56 -49z" />
    <glyph glyph-name="eacute" unicode="&#xe9;" horiz-adv-x="475" 
d="M239 542l-56 49l112 132l76 -71zM433 170l0.000976562 -4c0 -27.333 -4.66699 -51.833 -14 -73.5s-22.333 -40 -39 -55s-36.834 -26.667 -60.501 -35s-49.5 -12.5 -77.5 -12.5c-29.333 0 -56.166 4.5 -80.499 13.5s-45.166 22 -62.499 39s-30.833 37.5 -40.5 61.5
s-14.5 51 -14.5 81v118c0 30 4.83301 57.167 14.5 81.5s23.167 45 40.5 62s38.166 30.167 62.499 39.5s51.166 14 80.499 14c28 0 53.833 -4.66699 77.5 -14s43.834 -22.5 60.501 -39.5s29.667 -37.667 39 -62s14 -51.5 14 -81.5v-81h-271v-50
c0 -24.667 7.16699 -45.167 21.5 -61.5s34.166 -24.5 59.499 -24.5c24.667 0 43.5 7.16699 56.5 21.5s19.5 32.833 19.5 55.5v7h114zM162.001 305h157v12c0 25.333 -6.83301 46.166 -20.5 62.499s-32.5 24.5 -56.5 24.5c-25.333 0 -45 -8.16699 -59 -24.5
s-21 -37.166 -21 -62.499v-12z" />
    <glyph glyph-name="ecircumflex" unicode="&#xea;" horiz-adv-x="475" 
d="M266 715l108 -133l-47 -40l-89 77l-87 -76l-46 39l108 133h53zM433 170l0.000976562 -4c0 -27.333 -4.66699 -51.833 -14 -73.5s-22.333 -40 -39 -55s-36.834 -26.667 -60.501 -35s-49.5 -12.5 -77.5 -12.5c-29.333 0 -56.166 4.5 -80.499 13.5s-45.166 22 -62.499 39
s-30.833 37.5 -40.5 61.5s-14.5 51 -14.5 81v118c0 30 4.83301 57.167 14.5 81.5s23.167 45 40.5 62s38.166 30.167 62.499 39.5s51.166 14 80.499 14c28 0 53.833 -4.66699 77.5 -14s43.834 -22.5 60.501 -39.5s29.667 -37.667 39 -62s14 -51.5 14 -81.5v-81h-271v-50
c0 -24.667 7.16699 -45.167 21.5 -61.5s34.166 -24.5 59.499 -24.5c24.667 0 43.5 7.16699 56.5 21.5s19.5 32.833 19.5 55.5v7h114zM162.001 305h157v12c0 25.333 -6.83301 46.166 -20.5 62.499s-32.5 24.5 -56.5 24.5c-25.333 0 -45 -8.16699 -59 -24.5
s-21 -37.166 -21 -62.499v-12z" />
    <glyph glyph-name="edieresis" unicode="&#xeb;" horiz-adv-x="475" 
d="M111 612c0 16.667 5.83301 30.5 17.5 41.5s25.834 16.5 42.501 16.5s30.5 -5.5 41.5 -16.5s16.5 -24.833 16.5 -41.5s-5.5 -31 -16.5 -43s-24.833 -18 -41.5 -18s-30.834 6 -42.501 18s-17.5 26.333 -17.5 43zM251 612c0 16.667 5.66699 30.5 17 41.5
s25.333 16.5 42 16.5s30.667 -5.5 42 -16.5s17 -24.833 17 -41.5s-5.66699 -31 -17 -43s-25.333 -18 -42 -18s-30.667 6 -42 18s-17 26.333 -17 43zM433 170l0.000976562 -4c0 -27.333 -4.66699 -51.833 -14 -73.5s-22.333 -40 -39 -55s-36.834 -26.667 -60.501 -35
s-49.5 -12.5 -77.5 -12.5c-29.333 0 -56.166 4.5 -80.499 13.5s-45.166 22 -62.499 39s-30.833 37.5 -40.5 61.5s-14.5 51 -14.5 81v118c0 30 4.83301 57.167 14.5 81.5s23.167 45 40.5 62s38.166 30.167 62.499 39.5s51.166 14 80.499 14c28 0 53.833 -4.66699 77.5 -14
s43.834 -22.5 60.501 -39.5s29.667 -37.667 39 -62s14 -51.5 14 -81.5v-81h-271v-50c0 -24.667 7.16699 -45.167 21.5 -61.5s34.166 -24.5 59.499 -24.5c24.667 0 43.5 7.16699 56.5 21.5s19.5 32.833 19.5 55.5v7h114zM162.001 305h157v12
c0 25.333 -6.83301 46.166 -20.5 62.499s-32.5 24.5 -56.5 24.5c-25.333 0 -45 -8.16699 -59 -24.5s-21 -37.166 -21 -62.499v-12z" />
    <glyph glyph-name="igrave" unicode="&#xec;" horiz-adv-x="243" 
d="M182 490v-490h-121v490h121zM-11 652l76 71l112 -132l-56 -49z" />
    <glyph glyph-name="iacute" unicode="&#xed;" horiz-adv-x="243" 
d="M120 542l-56 49l112 132l76 -71zM182 490v-490h-121v490h121z" />
    <glyph glyph-name="icircumflex" unicode="&#xee;" horiz-adv-x="243" 
d="M148 715l108 -133l-47 -40l-89 77l-87 -76l-46 39l108 133h53zM182 490v-490h-121v490h121z" />
    <glyph glyph-name="idieresis" unicode="&#xef;" horiz-adv-x="243" 
d="M-7 612c0 16.667 5.83301 30.5 17.5 41.5s25.834 16.5 42.501 16.5s30.5 -5.5 41.5 -16.5s16.5 -24.833 16.5 -41.5s-5.5 -31 -16.5 -43s-24.833 -18 -41.5 -18s-30.834 6 -42.501 18s-17.5 26.333 -17.5 43zM133 612c0 16.667 5.66699 30.5 17 41.5s25.333 16.5 42 16.5
s30.667 -5.5 42 -16.5s17 -24.833 17 -41.5s-5.66699 -31 -17 -43s-25.333 -18 -42 -18s-30.667 6 -42 18s-17 26.333 -17 43zM182 490v-490h-121v490h121z" />
    <glyph glyph-name="eth" unicode="&#xf0;" horiz-adv-x="499" 
d="M377 597c20.667 -26.667 37.0029 -58.333 49.0029 -95s18 -80 18 -130v-185c0 -30 -4.83301 -57.167 -14.5 -81.5s-23.334 -45 -41.001 -62s-38.667 -30.167 -63 -39.5s-51.166 -14 -80.499 -14c-30 0 -57.167 4.66699 -81.5 14s-45.333 22.5 -63 39.5
s-31.334 37.667 -41.001 62s-14.5 51.5 -14.5 81.5v116c0 60.667 15 108.667 45 144s72.333 53 127 53c25.333 0 46.666 -4.5 63.999 -13.5s31.666 -21.167 42.999 -36.5c-8 47.333 -22.667 86 -44 116l-97 -31v63l54 17l-56 62h122l29 -31l92 29v-63zM165.003 178.001
c0 -25.333 7 -46 21 -62s33.667 -24 59 -24s44.833 8 58.5 24s20.5 36.667 20.5 62v133c0 25.333 -6.83301 46.166 -20.5 62.499s-33.167 24.5 -58.5 24.5s-45 -8.16699 -59 -24.5s-21 -37.166 -21 -62.499v-133z" />
    <glyph glyph-name="ntilde" unicode="&#xf1;" horiz-adv-x="517" 
d="M61 0l0.000976562 489.998h104l8 -48c13.333 17.333 30.333 31.333 51 42s45 16 73 16c27.333 0 51.166 -4.5 71.499 -13.5s37.166 -21.667 50.499 -38s23.333 -35.666 30 -57.999s10 -46.833 10 -73.5v-317h-120v310c0 24.667 -6.33301 45 -19 61s-31.667 24 -57 24
s-45.166 -8.16699 -59.499 -24.5s-21.5 -37.166 -21.5 -62.499v-308h-121zM421.001 668.998c0.666992 -5.33301 0.999023 -9.83301 0.999023 -13.5v-11.5c0 -34 -8 -58.667 -24 -74s-36 -23 -60 -23c-10 0 -19.833 1.33301 -29.5 4s-19.167 6.33398 -28.5 11.001l-43 21
c-5.33301 2.66699 -10.666 5 -15.999 7s-10.666 3 -15.999 3c-8.66699 0 -15.5 -2.16699 -20.5 -6.5s-8.83301 -9.16602 -11.5 -14.499s-4.33398 -10.333 -5.00098 -15l-1 -7h-62c-1.33301 3.33301 -2.33301 7.66602 -3 12.999s-1 10.333 -1 15c0 28 8.66699 51 26 69
s40 27 68 27c17.333 0 35 -4.33301 53 -13l41 -20c6 -3.33301 12.5 -6.5 19.5 -9.5s13.5 -4.5 19.5 -4.5c6.66699 0 12 2 16 6s7.16699 8.5 9.5 13.5s3.83301 9.66699 4.5 14s1 7.16602 1 8.49902h62z" />
    <glyph glyph-name="ograve" unicode="&#xf2;" horiz-adv-x="488" 
d="M165 178c0 -25.333 6.83301 -46 20.5 -62s33.167 -24 58.5 -24s44.833 8 58.5 24s20.5 36.667 20.5 62v133c0 25.333 -6.83301 46.166 -20.5 62.499s-33.167 24.5 -58.5 24.5s-44.833 -8.16699 -58.5 -24.5s-20.5 -37.166 -20.5 -62.499v-133zM443 187
c0 -30 -4.83301 -57.167 -14.5 -81.5s-23.167 -45 -40.5 -62s-38.166 -30.167 -62.499 -39.5s-51.5 -14 -81.5 -14s-57.167 4.66699 -81.5 14s-45.333 22.5 -63 39.5s-31.334 37.667 -41.001 62s-14.5 51.5 -14.5 81.5v116c0 30 4.83301 57.167 14.5 81.5
s23.334 45 41.001 62s38.667 30.167 63 39.5s51.5 14 81.5 14s57.167 -4.66699 81.5 -14s45.166 -22.5 62.499 -39.5s30.833 -37.667 40.5 -62s14.5 -51.5 14.5 -81.5v-116zM111 652l76 71l112 -132l-56 -49z" />
    <glyph glyph-name="oacute" unicode="&#xf3;" horiz-adv-x="488" 
d="M243 542l-56 49l112 132l76 -71zM165 178c0 -25.333 6.83301 -46 20.5 -62s33.167 -24 58.5 -24s44.833 8 58.5 24s20.5 36.667 20.5 62v133c0 25.333 -6.83301 46.166 -20.5 62.499s-33.167 24.5 -58.5 24.5s-44.833 -8.16699 -58.5 -24.5s-20.5 -37.166 -20.5 -62.499
v-133zM443 187c0 -30 -4.83301 -57.167 -14.5 -81.5s-23.167 -45 -40.5 -62s-38.166 -30.167 -62.499 -39.5s-51.5 -14 -81.5 -14s-57.167 4.66699 -81.5 14s-45.333 22.5 -63 39.5s-31.334 37.667 -41.001 62s-14.5 51.5 -14.5 81.5v116c0 30 4.83301 57.167 14.5 81.5
s23.334 45 41.001 62s38.667 30.167 63 39.5s51.5 14 81.5 14s57.167 -4.66699 81.5 -14s45.166 -22.5 62.499 -39.5s30.833 -37.667 40.5 -62s14.5 -51.5 14.5 -81.5v-116z" />
    <glyph glyph-name="ocircumflex" unicode="&#xf4;" horiz-adv-x="488" 
d="M270 715l108 -133l-47 -40l-89 77l-87 -76l-46 39l108 133h53zM165 178c0 -25.333 6.83301 -46 20.5 -62s33.167 -24 58.5 -24s44.833 8 58.5 24s20.5 36.667 20.5 62v133c0 25.333 -6.83301 46.166 -20.5 62.499s-33.167 24.5 -58.5 24.5s-44.833 -8.16699 -58.5 -24.5
s-20.5 -37.166 -20.5 -62.499v-133zM443 187c0 -30 -4.83301 -57.167 -14.5 -81.5s-23.167 -45 -40.5 -62s-38.166 -30.167 -62.499 -39.5s-51.5 -14 -81.5 -14s-57.167 4.66699 -81.5 14s-45.333 22.5 -63 39.5s-31.334 37.667 -41.001 62s-14.5 51.5 -14.5 81.5v116
c0 30 4.83301 57.167 14.5 81.5s23.334 45 41.001 62s38.667 30.167 63 39.5s51.5 14 81.5 14s57.167 -4.66699 81.5 -14s45.166 -22.5 62.499 -39.5s30.833 -37.667 40.5 -62s14.5 -51.5 14.5 -81.5v-116z" />
    <glyph glyph-name="otilde" unicode="&#xf5;" horiz-adv-x="488" 
d="M165 178c0 -25.333 6.83301 -46 20.5 -62s33.167 -24 58.5 -24s44.833 8 58.5 24s20.5 36.667 20.5 62v133c0 25.333 -6.83301 46.166 -20.5 62.499s-33.167 24.5 -58.5 24.5s-44.833 -8.16699 -58.5 -24.5s-20.5 -37.166 -20.5 -62.499v-133zM443 187
c0 -30 -4.83301 -57.167 -14.5 -81.5s-23.167 -45 -40.5 -62s-38.166 -30.167 -62.499 -39.5s-51.5 -14 -81.5 -14s-57.167 4.66699 -81.5 14s-45.333 22.5 -63 39.5s-31.334 37.667 -41.001 62s-14.5 51.5 -14.5 81.5v116c0 30 4.83301 57.167 14.5 81.5
s23.334 45 41.001 62s38.667 30.167 63 39.5s51.5 14 81.5 14s57.167 -4.66699 81.5 -14s45.166 -22.5 62.499 -39.5s30.833 -37.667 40.5 -62s14.5 -51.5 14.5 -81.5v-116zM403 669c0.666992 -5.33301 0.999023 -9.83301 0.999023 -13.5v-11.5c0 -34 -8 -58.667 -24 -74
s-36 -23 -60 -23c-10 0 -19.833 1.33301 -29.5 4s-19.167 6.33398 -28.5 11.001l-43 21c-5.33301 2.66699 -10.666 5 -15.999 7s-10.666 3 -15.999 3c-8.66699 0 -15.5 -2.16699 -20.5 -6.5s-8.83301 -9.16602 -11.5 -14.499s-4.33398 -10.333 -5.00098 -15l-1 -7h-62
c-1.33301 3.33301 -2.33301 7.66602 -3 12.999s-1 10.333 -1 15c0 28 8.66699 51 26 69s40 27 68 27c17.333 0 35 -4.33301 53 -13l41 -20c6 -3.33301 12.5 -6.5 19.5 -9.5s13.5 -4.5 19.5 -4.5c6.66699 0 12 2 16 6s7.16699 8.5 9.5 13.5s3.83301 9.66699 4.5 14
s1 7.16602 1 8.49902h62z" />
    <glyph glyph-name="odieresis" unicode="&#xf6;" horiz-adv-x="488" 
d="M115 612c0 16.667 5.83301 30.5 17.5 41.5s25.834 16.5 42.501 16.5s30.5 -5.5 41.5 -16.5s16.5 -24.833 16.5 -41.5s-5.5 -31 -16.5 -43s-24.833 -18 -41.5 -18s-30.834 6 -42.501 18s-17.5 26.333 -17.5 43zM255 612c0 16.667 5.66699 30.5 17 41.5
s25.333 16.5 42 16.5s30.667 -5.5 42 -16.5s17 -24.833 17 -41.5s-5.66699 -31 -17 -43s-25.333 -18 -42 -18s-30.667 6 -42 18s-17 26.333 -17 43zM165 178c0 -25.333 6.83301 -46 20.5 -62s33.167 -24 58.5 -24s44.833 8 58.5 24s20.5 36.667 20.5 62v133
c0 25.333 -6.83301 46.166 -20.5 62.499s-33.167 24.5 -58.5 24.5s-44.833 -8.16699 -58.5 -24.5s-20.5 -37.166 -20.5 -62.499v-133zM443 187c0 -30 -4.83301 -57.167 -14.5 -81.5s-23.167 -45 -40.5 -62s-38.166 -30.167 -62.499 -39.5s-51.5 -14 -81.5 -14
s-57.167 4.66699 -81.5 14s-45.333 22.5 -63 39.5s-31.334 37.667 -41.001 62s-14.5 51.5 -14.5 81.5v116c0 30 4.83301 57.167 14.5 81.5s23.334 45 41.001 62s38.667 30.167 63 39.5s51.5 14 81.5 14s57.167 -4.66699 81.5 -14s45.166 -22.5 62.499 -39.5
s30.833 -37.667 40.5 -62s14.5 -51.5 14.5 -81.5v-116z" />
    <glyph glyph-name="divide" unicode="&#xf7;" horiz-adv-x="499" 
d="M47 379h405v-103h-405v103zM188 484c0 16.667 6 31 18 43s26.333 18 43 18s31 -6 43 -18s18 -26.333 18 -43s-6 -31 -18 -43s-26.333 -18 -43 -18s-31 6 -43 18s-18 26.333 -18 43zM188 171c0 16.667 6 31.167 18 43.5s26.333 18.5 43 18.5s31 -6.16699 43 -18.5
s18 -26.833 18 -43.5c0 -16 -6 -30.167 -18 -42.5s-26.333 -18.5 -43 -18.5s-31 6.16699 -43 18.5s-18 26.5 -18 42.5z" />
    <glyph glyph-name="oslash" unicode="&#xf8;" horiz-adv-x="488" 
d="M443 187c0 -30 -4.83691 -57.166 -14.5039 -81.499s-23.167 -45 -40.5 -62s-38.166 -30.167 -62.499 -39.5s-51.5 -14 -81.5 -14c-17.333 0 -33.666 1.66699 -48.999 5s-29.666 7.66602 -42.999 12.999l-29 -57h-70l48 90c-18 17.333 -32 38.166 -42 62.499
s-15 52.166 -15 83.499v116c0 30 4.83301 57.167 14.5 81.5s23.334 45 41.001 62s38.667 30.167 63 39.5s51.5 14 81.5 14c16.667 0 32.5 -1.66699 47.5 -5s29.167 -7.66602 42.5 -12.999l31 58h70l-49 -92c18 -17.333 32 -38.166 42 -62.499s15 -51.833 15 -82.5v-116z
M325.996 314.001c0 3.33301 -0.166992 6.83398 -0.5 10.501s-0.833008 7.16699 -1.5 10.5l-125 -235c12.667 -7.33301 27.667 -11 45 -11c26 0 46.167 8.16699 60.5 24.5s21.5 37.166 21.5 62.499v138zM161.996 176.002l0.000976562 -11.5
c0 -3.66699 0.666992 -7.16699 2 -10.5l124 235c-12.667 7.33301 -27.334 11 -44.001 11c-26 0 -46.167 -8 -60.5 -24s-21.5 -36.667 -21.5 -62v-138z" />
    <glyph glyph-name="ugrave" unicode="&#xf9;" horiz-adv-x="511" 
d="M57 490l121.002 0.000976562v-319c0 -22 6 -40.167 18 -54.5s29.667 -21.5 53 -21.5c25.333 0 45.166 8.16699 59.499 24.5s21.5 36.833 21.5 61.5v309h120v-490h-103l-10 47c-12.667 -17.333 -29.334 -31.166 -50.001 -41.499s-44.667 -15.5 -72 -15.5
c-26.667 0 -50 4.33301 -70 13s-36.5 20.667 -49.5 36s-22.667 33.666 -29 54.999s-9.5 44.666 -9.5 69.999v326zM121.002 652.001l76 71l112 -132l-56 -49z" />
    <glyph glyph-name="uacute" unicode="&#xfa;" horiz-adv-x="511" 
d="M254 542l-56 49l112 132l76 -71zM57 490l121.002 0.000976562v-319c0 -22 6 -40.167 18 -54.5s29.667 -21.5 53 -21.5c25.333 0 45.166 8.16699 59.499 24.5s21.5 36.833 21.5 61.5v309h120v-490h-103l-10 47c-12.667 -17.333 -29.334 -31.166 -50.001 -41.499
s-44.667 -15.5 -72 -15.5c-26.667 0 -50 4.33301 -70 13s-36.5 20.667 -49.5 36s-22.667 33.666 -29 54.999s-9.5 44.666 -9.5 69.999v326z" />
    <glyph glyph-name="ucircumflex" unicode="&#xfb;" horiz-adv-x="511" 
d="M280 715l108 -133l-47 -40l-89 77l-87 -76l-46 39l108 133h53zM57 490l121.002 0.000976562v-319c0 -22 6 -40.167 18 -54.5s29.667 -21.5 53 -21.5c25.333 0 45.166 8.16699 59.499 24.5s21.5 36.833 21.5 61.5v309h120v-490h-103l-10 47
c-12.667 -17.333 -29.334 -31.166 -50.001 -41.499s-44.667 -15.5 -72 -15.5c-26.667 0 -50 4.33301 -70 13s-36.5 20.667 -49.5 36s-22.667 33.666 -29 54.999s-9.5 44.666 -9.5 69.999v326z" />
    <glyph glyph-name="udieresis" unicode="&#xfc;" horiz-adv-x="511" 
d="M125 612c0 16.667 5.83301 30.5 17.5 41.5s25.834 16.5 42.501 16.5s30.5 -5.5 41.5 -16.5s16.5 -24.833 16.5 -41.5s-5.5 -31 -16.5 -43s-24.833 -18 -41.5 -18s-30.834 6 -42.501 18s-17.5 26.333 -17.5 43zM265 612c0 16.667 5.66699 30.5 17 41.5
s25.333 16.5 42 16.5s30.667 -5.5 42 -16.5s17 -24.833 17 -41.5s-5.66699 -31 -17 -43s-25.333 -18 -42 -18s-30.667 6 -42 18s-17 26.333 -17 43zM57 490l121.002 0.000976562v-319c0 -22 6 -40.167 18 -54.5s29.667 -21.5 53 -21.5c25.333 0 45.166 8.16699 59.499 24.5
s21.5 36.833 21.5 61.5v309h120v-490h-103l-10 47c-12.667 -17.333 -29.334 -31.166 -50.001 -41.499s-44.667 -15.5 -72 -15.5c-26.667 0 -50 4.33301 -70 13s-36.5 20.667 -49.5 36s-22.667 33.666 -29 54.999s-9.5 44.666 -9.5 69.999v326z" />
    <glyph glyph-name="yacute" unicode="&#xfd;" horiz-adv-x="464" 
d="M118 -187l60 173l-162 504h129l90 -328l91 328h123l-218 -677h-113zM233 542l-56 49l112 132l76 -71z" />
    <glyph glyph-name="thorn" unicode="&#xfe;" 
d="M182 453c12 14 27.5 25.333 46.5 34s40.5 13 64.5 13c27.333 0 51.333 -4.66699 72 -14s38 -22.5 52 -39.5s24.5 -37 31.5 -60s10.5 -48.5 10.5 -76.5v-130c0 -28 -3.5 -53.5 -10.5 -76.5s-17.5 -43 -31.5 -60s-31.333 -30.167 -52 -39.5s-44.667 -14 -72 -14
c-24 0 -45.5 4.16699 -64.5 12.5s-34.5 19.5 -46.5 33.5v-223h-121v864h121v-224zM263 395c-25.333 0 -45.166 -8.16797 -59.499 -24.501s-21.5 -37.166 -21.5 -62.499v-127c0 -24.667 7.16699 -45.167 21.5 -61.5s34.166 -24.5 59.499 -24.5s44.333 8 57 24s19 36 19 60
v131c0 24.667 -6.33301 45 -19 61s-31.667 24 -57 24z" />
    <glyph glyph-name="ydieresis" unicode="&#xff;" horiz-adv-x="464" 
d="M118 -187l60 173l-162 504h129l90 -328l91 328h123l-218 -677h-113zM104 612c0 16.667 5.83301 30.5 17.5 41.5s25.834 16.5 42.501 16.5s30.5 -5.5 41.5 -16.5s16.5 -24.833 16.5 -41.5s-5.5 -31 -16.5 -43s-24.833 -18 -41.5 -18s-30.834 6 -42.501 18
s-17.5 26.333 -17.5 43zM244 612c0 16.667 5.66699 30.5 17 41.5s25.333 16.5 42 16.5s30.667 -5.5 42 -16.5s17 -24.833 17 -41.5s-5.66699 -31 -17 -43s-25.333 -18 -42 -18s-30.667 6 -42 18s-17 26.333 -17 43z" />
    <glyph glyph-name="Amacron" unicode="&#x100;" horiz-adv-x="556" 
d="M16 0l196 657h132l196 -657h-128l-33 118h-209l-32 -118h-122zM198 224h153l-77 279zM158 806h240v-85h-240v85z" />
    <glyph glyph-name="amacron" unicode="&#x101;" 
d="M46 310c0 28 3.5 53.5 10.5 76.5s17.5 43 31.5 60s31.5 30.167 52.5 39.5s45.167 14 72.5 14c26.667 0 50 -5.16699 70 -15.5s36.333 -23.833 49 -40.5l9 46h103v-490h-103l-9 46c-12.667 -17.333 -29 -31 -49 -41s-43.333 -15 -70 -15c-27.333 0 -51.5 4.66699 -72.5 14
s-38.5 22.5 -52.5 39.5s-24.5 37 -31.5 60s-10.5 48.5 -10.5 76.5v130zM243 95c25.333 0 45.166 8.16797 59.499 24.501s21.5 36.833 21.5 61.5v127c0 25.333 -7.16699 46.166 -21.5 62.499s-34.166 24.5 -59.499 24.5s-44.333 -8 -57 -24s-19 -36.333 -19 -61v-131
c0 -24 6.33301 -44 19 -60s31.667 -24 57 -24zM125 648.001h240v-85h-240v85z" />
    <glyph glyph-name="Abreve" unicode="&#x102;" horiz-adv-x="556" 
d="M16 0l196 657h132l196 -657h-128l-33 118h-209l-32 -118h-122zM198 224h153l-77 279zM396 825v-21c0 -30.667 -10.833 -56.667 -32.5 -78s-50.5 -32 -86.5 -32s-64.667 10.667 -86 32s-32 47.333 -32 78v21h72v-21c0 -13.333 3.83301 -24.5 11.5 -33.5
s19.167 -13.5 34.5 -13.5s27 4.5 35 13.5s12 20.167 12 33.5v21h72z" />
    <glyph glyph-name="abreve" unicode="&#x103;" 
d="M46 310c0 28 3.5 53.5 10.5 76.5s17.5 43 31.5 60s31.5 30.167 52.5 39.5s45.167 14 72.5 14c26.667 0 50 -5.16699 70 -15.5s36.333 -23.833 49 -40.5l9 46h103v-490h-103l-9 46c-12.667 -17.333 -29 -31 -49 -41s-43.333 -15 -70 -15c-27.333 0 -51.5 4.66699 -72.5 14
s-38.5 22.5 -52.5 39.5s-24.5 37 -31.5 60s-10.5 48.5 -10.5 76.5v130zM243 95c25.333 0 45.166 8.16797 59.499 24.501s21.5 36.833 21.5 61.5v127c0 25.333 -7.16699 46.166 -21.5 62.499s-34.166 24.5 -59.499 24.5s-44.333 -8 -57 -24s-19 -36.333 -19 -61v-131
c0 -24 6.33301 -44 19 -60s31.667 -24 57 -24zM363 673.001v-21c0 -30.667 -10.833 -56.667 -32.5 -78s-50.5 -32 -86.5 -32s-64.667 10.667 -86 32s-32 47.333 -32 78v21h72v-21c0 -13.333 3.83301 -24.5 11.5 -33.5s19.167 -13.5 34.5 -13.5s27 4.5 35 13.5
s12 20.167 12 33.5v21h72z" />
    <glyph glyph-name="Aogonek" unicode="&#x104;" horiz-adv-x="556" 
d="M501 -125v-67.999h-63c-33.333 0 -58 7.66699 -74 23s-24 34.333 -24 57c0 26 7 48.833 21 68.5s30.667 35.167 50 46.5l-32 116h-209l-32 -118h-122l196 657h132l196 -657h-63c-18.667 -12.667 -34.334 -26.834 -47.001 -42.501s-19 -32.167 -19 -49.5
c0 -10 3.33301 -18 10 -24s17.334 -9 32.001 -9h48zM198 224.001h153l-77 279z" />
    <glyph glyph-name="aogonek" unicode="&#x105;" 
d="M430 -125v-67.999h-63c-33.333 0 -58 7.66699 -74 23s-24 34.333 -24 57c0 26 7 48.833 21 68.5s30.667 35.167 50 46.5l-8 44c-12.667 -17.333 -29 -31 -49 -41s-43.333 -15 -70 -15c-27.333 0 -51.5 4.66699 -72.5 14s-38.5 22.5 -52.5 39.5s-24.5 37 -31.5 60
s-10.5 48.5 -10.5 76.5v130c0 28 3.5 53.5 10.5 76.5s17.5 43 31.5 60s31.5 30.167 52.5 39.5s45.167 14 72.5 14c26.667 0 50 -5.16699 70 -15.5s36.333 -23.833 49 -40.5l9 46h103v-490h-38c-18.667 -12.667 -34.334 -26.834 -47.001 -42.501s-19 -32.167 -19 -49.5
c0 -10 3.33301 -18 10 -24s17.334 -9 32.001 -9h48zM243 95.001c25.333 0 45.166 8.16797 59.499 24.501s21.5 36.833 21.5 61.5v127c0 25.333 -7.16699 46.166 -21.5 62.499s-34.166 24.5 -59.499 24.5s-44.333 -8 -57 -24s-19 -36.333 -19 -61v-131
c0 -24 6.33301 -44 19 -60s31.667 -24 57 -24z" />
    <glyph glyph-name="Cacute" unicode="&#x106;" horiz-adv-x="554" 
d="M509 225v-18.998c0 -33.333 -5.33301 -63.333 -16 -90s-25.834 -49.334 -45.501 -68.001s-43.334 -33 -71.001 -43s-58.167 -15 -91.5 -15c-34 0 -65.167 5 -93.5 15s-52.5 24.5 -72.5 43.5s-35.667 42 -47 69s-17 57.5 -17 91.5v239c0 68 19.833 121.5 59.5 160.5
s96.5 58.5 170.5 58.5c33.333 0 63.833 -5 91.5 -15s51.334 -24.333 71.001 -43s34.834 -41.334 45.501 -68.001s16 -56.667 16 -90v-16h-120v15c0 32 -9.16699 57.5 -27.5 76.5s-44.5 28.5 -78.5 28.5c-32 0 -57.167 -9.83301 -75.5 -29.5s-27.5 -46.167 -27.5 -79.5v-235
c0 -33.333 9.16699 -59.833 27.5 -79.5s43.5 -29.5 75.5 -29.5c34 0 60.167 9.5 78.5 28.5s27.5 44.5 27.5 76.5v18h120zM281 694.002l-56 48l112 133l76 -71z" />
    <glyph glyph-name="cacute" unicode="&#x107;" horiz-adv-x="474" 
d="M240 542l-56 49l112 132l76 -71zM436 184l0.00195312 -6.00195c0 -29.333 -4.66699 -55.666 -14 -78.999s-22.5 -43 -39.5 -59s-37.5 -28.333 -61.5 -37s-50.333 -13 -79 -13c-29.333 0 -56.166 4.66699 -80.499 14s-45.166 22.5 -62.499 39.5s-30.833 37.667 -40.5 62
s-14.5 51.5 -14.5 81.5v116c0 30 4.83301 57.167 14.5 81.5s23.167 45 40.5 62s38.166 30.167 62.499 39.5s51.166 14 80.499 14c28.667 0 55 -4.33301 79 -13s44.5 -21 61.5 -37s30.167 -35.167 39.5 -57.5s14 -47.5 14 -75.5v-4h-116v12
c0 21.333 -6.83301 38.833 -20.5 52.5s-32.834 20.5 -57.501 20.5s-43.667 -8.16699 -57 -24.5s-20 -37.166 -20 -62.499v-133c0 -25.333 6.66699 -46 20 -62s32.333 -24 57 -24c25.333 0 44.666 6.83301 57.999 20.5s20 32.167 20 55.5v16h116z" />
    <glyph glyph-name="Ccircumflex" unicode="&#x108;" horiz-adv-x="554" 
d="M509 225v-18.998c0 -33.333 -5.33301 -63.333 -16 -90s-25.834 -49.334 -45.501 -68.001s-43.334 -33 -71.001 -43s-58.167 -15 -91.5 -15c-34 0 -65.167 5 -93.5 15s-52.5 24.5 -72.5 43.5s-35.667 42 -47 69s-17 57.5 -17 91.5v239c0 68 19.833 121.5 59.5 160.5
s96.5 58.5 170.5 58.5c33.333 0 63.833 -5 91.5 -15s51.334 -24.333 71.001 -43s34.834 -41.334 45.501 -68.001s16 -56.667 16 -90v-16h-120v15c0 32 -9.16699 57.5 -27.5 76.5s-44.5 28.5 -78.5 28.5c-32 0 -57.167 -9.83301 -75.5 -29.5s-27.5 -46.167 -27.5 -79.5v-235
c0 -33.333 9.16699 -59.833 27.5 -79.5s43.5 -29.5 75.5 -29.5c34 0 60.167 9.5 78.5 28.5s27.5 44.5 27.5 76.5v18h120zM308 868.002l108 -134l-47 -40l-89 78l-87 -77l-46 39l108 134h53z" />
    <glyph glyph-name="ccircumflex" unicode="&#x109;" horiz-adv-x="474" 
d="M267 715l108 -133l-47 -40l-89 77l-87 -76l-46 39l108 133h53zM436 184l0.00195312 -6.00195c0 -29.333 -4.66699 -55.666 -14 -78.999s-22.5 -43 -39.5 -59s-37.5 -28.333 -61.5 -37s-50.333 -13 -79 -13c-29.333 0 -56.166 4.66699 -80.499 14
s-45.166 22.5 -62.499 39.5s-30.833 37.667 -40.5 62s-14.5 51.5 -14.5 81.5v116c0 30 4.83301 57.167 14.5 81.5s23.167 45 40.5 62s38.166 30.167 62.499 39.5s51.166 14 80.499 14c28.667 0 55 -4.33301 79 -13s44.5 -21 61.5 -37s30.167 -35.167 39.5 -57.5
s14 -47.5 14 -75.5v-4h-116v12c0 21.333 -6.83301 38.833 -20.5 52.5s-32.834 20.5 -57.501 20.5s-43.667 -8.16699 -57 -24.5s-20 -37.166 -20 -62.499v-133c0 -25.333 6.66699 -46 20 -62s32.333 -24 57 -24c25.333 0 44.666 6.83301 57.999 20.5s20 32.167 20 55.5v16
h116z" />
    <glyph glyph-name="Cdotaccent" unicode="&#x10a;" horiz-adv-x="554" 
d="M212 775c0 19.333 6.5 35.5 19.5 48.5s29.167 19.5 48.5 19.5s35.666 -6.5 48.999 -19.5s20 -29.167 20 -48.5s-6.66699 -35.666 -20 -48.999s-29.666 -20 -48.999 -20s-35.5 6.66699 -48.5 20s-19.5 29.666 -19.5 48.999zM509 225v-18.998
c0 -33.333 -5.33301 -63.333 -16 -90s-25.834 -49.334 -45.501 -68.001s-43.334 -33 -71.001 -43s-58.167 -15 -91.5 -15c-34 0 -65.167 5 -93.5 15s-52.5 24.5 -72.5 43.5s-35.667 42 -47 69s-17 57.5 -17 91.5v239c0 68 19.833 121.5 59.5 160.5s96.5 58.5 170.5 58.5
c33.333 0 63.833 -5 91.5 -15s51.334 -24.333 71.001 -43s34.834 -41.334 45.501 -68.001s16 -56.667 16 -90v-16h-120v15c0 32 -9.16699 57.5 -27.5 76.5s-44.5 28.5 -78.5 28.5c-32 0 -57.167 -9.83301 -75.5 -29.5s-27.5 -46.167 -27.5 -79.5v-235
c0 -33.333 9.16699 -59.833 27.5 -79.5s43.5 -29.5 75.5 -29.5c34 0 60.167 9.5 78.5 28.5s27.5 44.5 27.5 76.5v18h120z" />
    <glyph glyph-name="cdotaccent" unicode="&#x10b;" horiz-adv-x="474" 
d="M436 184l0.00195312 -6.00195c0 -29.333 -4.66699 -55.666 -14 -78.999s-22.5 -43 -39.5 -59s-37.5 -28.333 -61.5 -37s-50.333 -13 -79 -13c-29.333 0 -56.166 4.66699 -80.499 14s-45.166 22.5 -62.499 39.5s-30.833 37.667 -40.5 62s-14.5 51.5 -14.5 81.5v116
c0 30 4.83301 57.167 14.5 81.5s23.167 45 40.5 62s38.166 30.167 62.499 39.5s51.166 14 80.499 14c28.667 0 55 -4.33301 79 -13s44.5 -21 61.5 -37s30.167 -35.167 39.5 -57.5s14 -47.5 14 -75.5v-4h-116v12c0 21.333 -6.83301 38.833 -20.5 52.5
s-32.834 20.5 -57.501 20.5s-43.667 -8.16699 -57 -24.5s-20 -37.166 -20 -62.499v-133c0 -25.333 6.66699 -46 20 -62s32.333 -24 57 -24c25.333 0 44.666 6.83301 57.999 20.5s20 32.167 20 55.5v16h116zM170.002 613.998c0 19.333 6.5 35.666 19.5 48.999
s29.167 20 48.5 20s35.666 -6.66699 48.999 -20s20 -29.666 20 -48.999s-6.66699 -35.5 -20 -48.5s-29.666 -19.5 -48.999 -19.5s-35.5 6.5 -48.5 19.5s-19.5 29.167 -19.5 48.5z" />
    <glyph glyph-name="Ccaron" unicode="&#x10c;" horiz-adv-x="554" 
d="M509 225v-18.998c0 -33.333 -5.33301 -63.333 -16 -90s-25.834 -49.334 -45.501 -68.001s-43.334 -33 -71.001 -43s-58.167 -15 -91.5 -15c-34 0 -65.167 5 -93.5 15s-52.5 24.5 -72.5 43.5s-35.667 42 -47 69s-17 57.5 -17 91.5v239c0 68 19.833 121.5 59.5 160.5
s96.5 58.5 170.5 58.5c33.333 0 63.833 -5 91.5 -15s51.334 -24.333 71.001 -43s34.834 -41.334 45.501 -68.001s16 -56.667 16 -90v-16h-120v15c0 32 -9.16699 57.5 -27.5 76.5s-44.5 28.5 -78.5 28.5c-32 0 -57.167 -9.83301 -75.5 -29.5s-27.5 -46.167 -27.5 -79.5v-235
c0 -33.333 9.16699 -59.833 27.5 -79.5s43.5 -29.5 75.5 -29.5c34 0 60.167 9.5 78.5 28.5s27.5 44.5 27.5 76.5v18h120zM255 693.002l-108 134l48 40l88 -78l88 77l45 -39l-108 -134h-53z" />
    <glyph glyph-name="ccaron" unicode="&#x10d;" horiz-adv-x="474" 
d="M213 542l-108 134l48 40l88 -77l88 76l45 -39l-108 -134h-53zM436 184l0.00195312 -6.00195c0 -29.333 -4.66699 -55.666 -14 -78.999s-22.5 -43 -39.5 -59s-37.5 -28.333 -61.5 -37s-50.333 -13 -79 -13c-29.333 0 -56.166 4.66699 -80.499 14
s-45.166 22.5 -62.499 39.5s-30.833 37.667 -40.5 62s-14.5 51.5 -14.5 81.5v116c0 30 4.83301 57.167 14.5 81.5s23.167 45 40.5 62s38.166 30.167 62.499 39.5s51.166 14 80.499 14c28.667 0 55 -4.33301 79 -13s44.5 -21 61.5 -37s30.167 -35.167 39.5 -57.5
s14 -47.5 14 -75.5v-4h-116v12c0 21.333 -6.83301 38.833 -20.5 52.5s-32.834 20.5 -57.501 20.5s-43.667 -8.16699 -57 -24.5s-20 -37.166 -20 -62.499v-133c0 -25.333 6.66699 -46 20 -62s32.333 -24 57 -24c25.333 0 44.666 6.83301 57.999 20.5s20 32.167 20 55.5v16
h116z" />
    <glyph glyph-name="Dcaron" unicode="&#x10e;" horiz-adv-x="591" 
d="M300 657c74.667 0 132.834 -20 174.501 -60s62.5 -94.667 62.5 -164v-209c0 -69.333 -20.833 -124 -62.5 -164s-99.834 -60 -174.501 -60h-227v657h227zM198 545v-432.998h102c36 0 63.667 10.167 83 30.5s29 48.166 29 83.499v205c0 35.333 -9.66699 63.166 -29 83.499
s-47 30.5 -83 30.5h-102zM234 693.002l-108 134l48 40l88 -78l88 77l45 -39l-108 -134h-53z" />
    <glyph glyph-name="dcaron" unicode="&#x10f;" 
d="M601 677l-65 -154h-64l23 154h106zM332 46c-12.667 -17.333 -29.001 -31 -49.001 -41s-43.333 -15 -70 -15c-27.333 0 -51.5 4.66699 -72.5 14s-38.5 22.5 -52.5 39.5s-24.5 37 -31.5 60s-10.5 48.5 -10.5 76.5v130c0 28 3.5 53.5 10.5 76.5s17.5 43 31.5 60
s31.5 30.167 52.5 39.5s45.167 14 72.5 14c24 0 45.333 -4.33301 64 -13s34.334 -20 47.001 -34v224h120v-677h-103zM242.999 95c25.333 0 45.166 8.16797 59.499 24.501s21.5 36.833 21.5 61.5v127c0 25.333 -7.16699 46.166 -21.5 62.499s-34.166 24.5 -59.499 24.5
s-44.333 -8 -57 -24s-19 -36.333 -19 -61v-131c0 -24 6.33301 -44 19 -60s31.667 -24 57 -24z" />
    <glyph glyph-name="Dcroat" unicode="&#x110;" horiz-adv-x="612" 
d="M321 657c74.667 0 132.667 -20 174 -60s62 -94.667 62 -164v-209c0 -69.333 -20.667 -124 -62 -164s-99.333 -60 -174 -60h-227v282h-68v102h68v273h227zM218 545v-160.998h103v-102h-103v-170h103c36 0 63.667 10.167 83 30.5s29 48.166 29 83.499v205
c0 35.333 -9.66699 63.166 -29 83.499s-47 30.5 -83 30.5h-103z" />
    <glyph glyph-name="dcroat" unicode="&#x111;" 
d="M332 46c-12.667 -17.333 -29.001 -31 -49.001 -41s-43.333 -15 -70 -15c-27.333 0 -51.5 4.66699 -72.5 14s-38.5 22.5 -52.5 39.5s-24.5 37 -31.5 60s-10.5 48.5 -10.5 76.5v130c0 28 3.5 53.5 10.5 76.5s17.5 43 31.5 60s31.5 30.167 52.5 39.5s45.167 14 72.5 14
c24 0 45.333 -4.33301 64 -13s34.334 -20 47.001 -34v88h-96v72h96v64h120v-64h61v-72h-61v-541h-103zM242.999 95c25.333 0 45.166 8.16797 59.499 24.501s21.5 36.833 21.5 61.5v127c0 25.333 -7.16699 46.166 -21.5 62.499s-34.166 24.5 -59.499 24.5s-44.333 -8 -57 -24
s-19 -36.333 -19 -61v-131c0 -24 6.33301 -44 19 -60s31.667 -24 57 -24z" />
    <glyph glyph-name="Emacron" unicode="&#x112;" horiz-adv-x="525" 
d="M198 279v-167h284v-112h-409v657h400v-112h-275v-156h246v-110h-246zM155 806h240v-85h-240v85z" />
    <glyph glyph-name="emacron" unicode="&#x113;" horiz-adv-x="475" 
d="M433 170l0.000976562 -4c0 -27.333 -4.66699 -51.833 -14 -73.5s-22.333 -40 -39 -55s-36.834 -26.667 -60.501 -35s-49.5 -12.5 -77.5 -12.5c-29.333 0 -56.166 4.5 -80.499 13.5s-45.166 22 -62.499 39s-30.833 37.5 -40.5 61.5s-14.5 51 -14.5 81v118
c0 30 4.83301 57.167 14.5 81.5s23.167 45 40.5 62s38.166 30.167 62.499 39.5s51.166 14 80.499 14c28 0 53.833 -4.66699 77.5 -14s43.834 -22.5 60.501 -39.5s29.667 -37.667 39 -62s14 -51.5 14 -81.5v-81h-271v-50c0 -24.667 7.16699 -45.167 21.5 -61.5
s34.166 -24.5 59.499 -24.5c24.667 0 43.5 7.16699 56.5 21.5s19.5 32.833 19.5 55.5v7h114zM162.001 305h157v12c0 25.333 -6.83301 46.166 -20.5 62.499s-32.5 24.5 -56.5 24.5c-25.333 0 -45 -8.16699 -59 -24.5s-21 -37.166 -21 -62.499v-12zM119.001 648h240v-85h-240
v85z" />
    <glyph glyph-name="Ebreve" unicode="&#x114;" horiz-adv-x="525" 
d="M198 279v-167h284v-112h-409v657h400v-112h-275v-156h246v-110h-246zM396 825v-21c0 -30.667 -10.833 -56.667 -32.5 -78s-50.5 -32 -86.5 -32s-64.667 10.667 -86 32s-32 47.333 -32 78v21h72v-21c0 -13.333 3.83301 -24.5 11.5 -33.5s19.167 -13.5 34.5 -13.5
s27 4.5 35 13.5s12 20.167 12 33.5v21h72z" />
    <glyph glyph-name="ebreve" unicode="&#x115;" horiz-adv-x="475" 
d="M433 170l0.000976562 -4c0 -27.333 -4.66699 -51.833 -14 -73.5s-22.333 -40 -39 -55s-36.834 -26.667 -60.501 -35s-49.5 -12.5 -77.5 -12.5c-29.333 0 -56.166 4.5 -80.499 13.5s-45.166 22 -62.499 39s-30.833 37.5 -40.5 61.5s-14.5 51 -14.5 81v118
c0 30 4.83301 57.167 14.5 81.5s23.167 45 40.5 62s38.166 30.167 62.499 39.5s51.166 14 80.499 14c28 0 53.833 -4.66699 77.5 -14s43.834 -22.5 60.501 -39.5s29.667 -37.667 39 -62s14 -51.5 14 -81.5v-81h-271v-50c0 -24.667 7.16699 -45.167 21.5 -61.5
s34.166 -24.5 59.499 -24.5c24.667 0 43.5 7.16699 56.5 21.5s19.5 32.833 19.5 55.5v7h114zM162.001 305h157v12c0 25.333 -6.83301 46.166 -20.5 62.499s-32.5 24.5 -56.5 24.5c-25.333 0 -45 -8.16699 -59 -24.5s-21 -37.166 -21 -62.499v-12zM357.001 673v-21
c0 -30.667 -10.833 -56.667 -32.5 -78s-50.5 -32 -86.5 -32s-64.667 10.667 -86 32s-32 47.333 -32 78v21h72v-21c0 -13.333 3.83301 -24.5 11.5 -33.5s19.167 -13.5 34.5 -13.5s27 4.5 35 13.5s12 20.167 12 33.5v21h72z" />
    <glyph glyph-name="Edotaccent" unicode="&#x116;" horiz-adv-x="525" 
d="M209 775c0 19.333 6.5 35.5 19.5 48.5s29.167 19.5 48.5 19.5s35.666 -6.5 48.999 -19.5s20 -29.167 20 -48.5s-6.66699 -35.666 -20 -48.999s-29.666 -20 -48.999 -20s-35.5 6.66699 -48.5 20s-19.5 29.666 -19.5 48.999zM198 279v-167h284v-112h-409v657h400v-112h-275
v-156h246v-110h-246z" />
    <glyph glyph-name="edotaccent" unicode="&#x117;" horiz-adv-x="475" 
d="M433 170l0.000976562 -4c0 -27.333 -4.66699 -51.833 -14 -73.5s-22.333 -40 -39 -55s-36.834 -26.667 -60.501 -35s-49.5 -12.5 -77.5 -12.5c-29.333 0 -56.166 4.5 -80.499 13.5s-45.166 22 -62.499 39s-30.833 37.5 -40.5 61.5s-14.5 51 -14.5 81v118
c0 30 4.83301 57.167 14.5 81.5s23.167 45 40.5 62s38.166 30.167 62.499 39.5s51.166 14 80.499 14c28 0 53.833 -4.66699 77.5 -14s43.834 -22.5 60.501 -39.5s29.667 -37.667 39 -62s14 -51.5 14 -81.5v-81h-271v-50c0 -24.667 7.16699 -45.167 21.5 -61.5
s34.166 -24.5 59.499 -24.5c24.667 0 43.5 7.16699 56.5 21.5s19.5 32.833 19.5 55.5v7h114zM162.001 305h157v12c0 25.333 -6.83301 46.166 -20.5 62.499s-32.5 24.5 -56.5 24.5c-25.333 0 -45 -8.16699 -59 -24.5s-21 -37.166 -21 -62.499v-12zM170.001 614
c0 19.333 6.5 35.666 19.5 48.999s29.167 20 48.5 20s35.666 -6.66699 48.999 -20s20 -29.666 20 -48.999s-6.66699 -35.5 -20 -48.5s-29.666 -19.5 -48.999 -19.5s-35.5 6.5 -48.5 19.5s-19.5 29.167 -19.5 48.5z" />
    <glyph glyph-name="Eogonek" unicode="&#x118;" horiz-adv-x="525" 
d="M198 279v-166.997h284v-112h-36c-18.667 -12.667 -34.334 -26.834 -47.001 -42.501s-19 -32.167 -19 -49.5c0 -10 3.33301 -18 10 -24s17.334 -9 32.001 -9h48v-68h-63c-33.333 0 -58 7.66699 -74 23s-24 34.333 -24 57c0 25.333 6.66699 47.666 20 66.999
s29.333 34.666 48 45.999h-304v657h400v-112h-275v-156h246v-110h-246z" />
    <glyph glyph-name="eogonek" unicode="&#x119;" horiz-adv-x="476" 
d="M433 170l0.000976562 -4.00293c0 -28.667 -5 -54 -15 -76s-24.333 -41 -43 -57c-19.333 -17.333 -34.833 -35.166 -46.5 -53.499s-17.5 -38.5 -17.5 -60.5c0 -13.333 3.33301 -24 10 -32s17 -12 31 -12h48v-68h-63c-32.667 0 -57 8.66699 -73 26s-24 39 -24 65
c0 18.667 2.83301 35.834 8.5 51.501s12.834 29.834 21.501 42.501c-4.66699 -0.666992 -9.33398 -1.16699 -14.001 -1.5s-9.33398 -0.5 -14.001 -0.5c-29.333 0 -56.166 4.5 -80.499 13.5s-45.166 22 -62.499 39s-30.833 37.5 -40.5 61.5s-14.5 51 -14.5 81v118
c0 30 4.83301 57.167 14.5 81.5s23.167 45 40.5 62s38.166 30.167 62.499 39.5s51.166 14 80.499 14c28 0 53.833 -4.66699 77.5 -14s43.834 -22.5 60.501 -39.5s29.667 -37.667 39 -62s14 -51.5 14 -81.5v-81h-271v-50c0 -24.667 7.16699 -45.167 21.5 -61.5
s34.166 -24.5 59.499 -24.5c24.667 0 43.5 7.16699 56.5 21.5s19.5 32.833 19.5 55.5v7h114zM162.001 304.997h157v12c0 25.333 -6.83301 46.166 -20.5 62.499s-32.5 24.5 -56.5 24.5c-25.333 0 -45 -8.16699 -59 -24.5s-21 -37.166 -21 -62.499v-12z" />
    <glyph glyph-name="Ecaron" unicode="&#x11a;" horiz-adv-x="525" 
d="M198 279v-167h284v-112h-409v657h400v-112h-275v-156h246v-110h-246zM251 693l-108 134l48 40l88 -78l88 77l45 -39l-108 -134h-53z" />
    <glyph glyph-name="ecaron" unicode="&#x11b;" horiz-adv-x="475" 
d="M213 542l-108 134l48 40l88 -77l88 76l45 -39l-108 -134h-53zM433 170l0.000976562 -4c0 -27.333 -4.66699 -51.833 -14 -73.5s-22.333 -40 -39 -55s-36.834 -26.667 -60.501 -35s-49.5 -12.5 -77.5 -12.5c-29.333 0 -56.166 4.5 -80.499 13.5s-45.166 22 -62.499 39
s-30.833 37.5 -40.5 61.5s-14.5 51 -14.5 81v118c0 30 4.83301 57.167 14.5 81.5s23.167 45 40.5 62s38.166 30.167 62.499 39.5s51.166 14 80.499 14c28 0 53.833 -4.66699 77.5 -14s43.834 -22.5 60.501 -39.5s29.667 -37.667 39 -62s14 -51.5 14 -81.5v-81h-271v-50
c0 -24.667 7.16699 -45.167 21.5 -61.5s34.166 -24.5 59.499 -24.5c24.667 0 43.5 7.16699 56.5 21.5s19.5 32.833 19.5 55.5v7h114zM162.001 305h157v12c0 25.333 -6.83301 46.166 -20.5 62.499s-32.5 24.5 -56.5 24.5c-25.333 0 -45 -8.16699 -59 -24.5
s-21 -37.166 -21 -62.499v-12z" />
    <glyph glyph-name="Gcircumflex" unicode="&#x11c;" horiz-adv-x="558" 
d="M308 868l108 -134l-47 -40l-89 78l-87 -77l-46 39l108 134h53zM297 334l212.004 0.00195312v-128c0 -33.333 -5.33301 -63.333 -16 -90s-25.834 -49.334 -45.501 -68.001s-43.334 -33 -71.001 -43s-58.167 -15 -91.5 -15c-34 0 -65.167 5 -93.5 15s-52.5 24.5 -72.5 43.5
s-35.667 42 -47 69s-17 57.5 -17 91.5v239c0 34 5.33301 64.5 16 91.5s26 50 46 69s44.333 33.5 73 43.5s61 15 97 15c33.333 0 63.666 -4.83301 90.999 -14.5s50.666 -23.334 69.999 -41.001s34.333 -39.167 45 -64.5s16 -54 16 -86v-16h-120v15
c0 28.667 -8.66699 51.667 -26 69s-43 26 -77 26s-60.167 -9.83301 -78.5 -29.5s-27.5 -46.167 -27.5 -79.5v-235c0 -33.333 9.16699 -59.833 27.5 -79.5s43.833 -29.5 76.5 -29.5c35.333 0 62.333 9.5 81 28.5s28 44.5 28 76.5v29h-96v98z" />
    <glyph glyph-name="gcircumflex" unicode="&#x11d;" 
d="M274 715l108 -133l-47 -40l-89 77l-87 -76l-46 39l108 133h53zM46 310c0 28 3.49805 53.5 10.498 76.5s17.5 43 31.5 60s31.5 30.167 52.5 39.5s45.167 14 72.5 14c26.667 0 50 -5.16699 70 -15.5s36.333 -23.833 49 -40.5l9 46h103v-506
c0 -28 -4.66699 -53.167 -14 -75.5s-22.666 -41.333 -39.999 -57s-38 -27.667 -62 -36s-50.667 -12.5 -80 -12.5s-56 3.83301 -80 11.5s-44.667 18.334 -62 32.001s-30.666 30.167 -39.999 49.5s-14 40.666 -14 63.999v4h116v-9c0 -16 6.5 -29.5 19.5 -40.5
s32.5 -16.5 58.5 -16.5c26.667 0 46.334 7.5 59.001 22.5s19 34.833 19 59.5v75c-12.667 -14 -28.334 -25.167 -47.001 -33.5s-40 -12.5 -64 -12.5c-27.333 0 -51.5 4.66699 -72.5 14s-38.5 22.5 -52.5 39.5s-24.5 37 -31.5 60s-10.5 48.5 -10.5 76.5v111zM242.998 114
c25.333 0 45.166 8.16895 59.499 24.502s21.5 37.166 21.5 62.499v107c0 25.333 -7.16699 46.166 -21.5 62.499s-34.166 24.5 -59.499 24.5s-44.333 -8 -57 -24s-19 -36.333 -19 -61v-111c0 -24.667 6.33301 -45 19 -61s31.667 -24 57 -24z" />
    <glyph glyph-name="Gbreve" unicode="&#x11e;" horiz-adv-x="558" 
d="M297 334l212.004 0.00195312v-128c0 -33.333 -5.33301 -63.333 -16 -90s-25.834 -49.334 -45.501 -68.001s-43.334 -33 -71.001 -43s-58.167 -15 -91.5 -15c-34 0 -65.167 5 -93.5 15s-52.5 24.5 -72.5 43.5s-35.667 42 -47 69s-17 57.5 -17 91.5v239
c0 34 5.33301 64.5 16 91.5s26 50 46 69s44.333 33.5 73 43.5s61 15 97 15c33.333 0 63.666 -4.83301 90.999 -14.5s50.666 -23.334 69.999 -41.001s34.333 -39.167 45 -64.5s16 -54 16 -86v-16h-120v15c0 28.667 -8.66699 51.667 -26 69s-43 26 -77 26
s-60.167 -9.83301 -78.5 -29.5s-27.5 -46.167 -27.5 -79.5v-235c0 -33.333 9.16699 -59.833 27.5 -79.5s43.833 -29.5 76.5 -29.5c35.333 0 62.333 9.5 81 28.5s28 44.5 28 76.5v29h-96v98zM400.004 825.002v-21c0 -30.667 -10.833 -56.667 -32.5 -78s-50.5 -32 -86.5 -32
s-64.667 10.667 -86 32s-32 47.333 -32 78v21h72v-21c0 -13.333 3.83301 -24.5 11.5 -33.5s19.167 -13.5 34.5 -13.5s27 4.5 35 13.5s12 20.167 12 33.5v21h72z" />
    <glyph glyph-name="gbreve" unicode="&#x11f;" 
d="M46 310c0 28 3.49805 53.5 10.498 76.5s17.5 43 31.5 60s31.5 30.167 52.5 39.5s45.167 14 72.5 14c26.667 0 50 -5.16699 70 -15.5s36.333 -23.833 49 -40.5l9 46h103v-506c0 -28 -4.66699 -53.167 -14 -75.5s-22.666 -41.333 -39.999 -57s-38 -27.667 -62 -36
s-50.667 -12.5 -80 -12.5s-56 3.83301 -80 11.5s-44.667 18.334 -62 32.001s-30.666 30.167 -39.999 49.5s-14 40.666 -14 63.999v4h116v-9c0 -16 6.5 -29.5 19.5 -40.5s32.5 -16.5 58.5 -16.5c26.667 0 46.334 7.5 59.001 22.5s19 34.833 19 59.5v75
c-12.667 -14 -28.334 -25.167 -47.001 -33.5s-40 -12.5 -64 -12.5c-27.333 0 -51.5 4.66699 -72.5 14s-38.5 22.5 -52.5 39.5s-24.5 37 -31.5 60s-10.5 48.5 -10.5 76.5v111zM242.998 114c25.333 0 45.166 8.16895 59.499 24.502s21.5 37.166 21.5 62.499v107
c0 25.333 -7.16699 46.166 -21.5 62.499s-34.166 24.5 -59.499 24.5s-44.333 -8 -57 -24s-19 -36.333 -19 -61v-111c0 -24.667 6.33301 -45 19 -61s31.667 -24 57 -24zM364.998 673.002v-21c0 -30.667 -10.833 -56.667 -32.5 -78s-50.5 -32 -86.5 -32s-64.667 10.667 -86 32
s-32 47.333 -32 78v21h72v-21c0 -13.333 3.83301 -24.5 11.5 -33.5s19.167 -13.5 34.5 -13.5s27 4.5 35 13.5s12 20.167 12 33.5v21h72z" />
    <glyph glyph-name="Gdotaccent" unicode="&#x120;" horiz-adv-x="558" 
d="M213 775c0 19.333 6.5 35.5 19.5 48.5s29.167 19.5 48.5 19.5s35.666 -6.5 48.999 -19.5s20 -29.167 20 -48.5s-6.66699 -35.666 -20 -48.999s-29.666 -20 -48.999 -20s-35.5 6.66699 -48.5 20s-19.5 29.666 -19.5 48.999zM297 334l212.004 0.00195312v-128
c0 -33.333 -5.33301 -63.333 -16 -90s-25.834 -49.334 -45.501 -68.001s-43.334 -33 -71.001 -43s-58.167 -15 -91.5 -15c-34 0 -65.167 5 -93.5 15s-52.5 24.5 -72.5 43.5s-35.667 42 -47 69s-17 57.5 -17 91.5v239c0 34 5.33301 64.5 16 91.5s26 50 46 69
s44.333 33.5 73 43.5s61 15 97 15c33.333 0 63.666 -4.83301 90.999 -14.5s50.666 -23.334 69.999 -41.001s34.333 -39.167 45 -64.5s16 -54 16 -86v-16h-120v15c0 28.667 -8.66699 51.667 -26 69s-43 26 -77 26s-60.167 -9.83301 -78.5 -29.5s-27.5 -46.167 -27.5 -79.5
v-235c0 -33.333 9.16699 -59.833 27.5 -79.5s43.833 -29.5 76.5 -29.5c35.333 0 62.333 9.5 81 28.5s28 44.5 28 76.5v29h-96v98z" />
    <glyph glyph-name="gdotaccent" unicode="&#x121;" 
d="M46 310c0 28 3.49805 53.5 10.498 76.5s17.5 43 31.5 60s31.5 30.167 52.5 39.5s45.167 14 72.5 14c26.667 0 50 -5.16699 70 -15.5s36.333 -23.833 49 -40.5l9 46h103v-506c0 -28 -4.66699 -53.167 -14 -75.5s-22.666 -41.333 -39.999 -57s-38 -27.667 -62 -36
s-50.667 -12.5 -80 -12.5s-56 3.83301 -80 11.5s-44.667 18.334 -62 32.001s-30.666 30.167 -39.999 49.5s-14 40.666 -14 63.999v4h116v-9c0 -16 6.5 -29.5 19.5 -40.5s32.5 -16.5 58.5 -16.5c26.667 0 46.334 7.5 59.001 22.5s19 34.833 19 59.5v75
c-12.667 -14 -28.334 -25.167 -47.001 -33.5s-40 -12.5 -64 -12.5c-27.333 0 -51.5 4.66699 -72.5 14s-38.5 22.5 -52.5 39.5s-24.5 37 -31.5 60s-10.5 48.5 -10.5 76.5v111zM242.998 114c25.333 0 45.166 8.16895 59.499 24.502s21.5 37.166 21.5 62.499v107
c0 25.333 -7.16699 46.166 -21.5 62.499s-34.166 24.5 -59.499 24.5s-44.333 -8 -57 -24s-19 -36.333 -19 -61v-111c0 -24.667 6.33301 -45 19 -61s31.667 -24 57 -24zM177.998 614.002c0 19.333 6.5 35.666 19.5 48.999s29.167 20 48.5 20s35.666 -6.66699 48.999 -20
s20 -29.666 20 -48.999s-6.66699 -35.5 -20 -48.5s-29.666 -19.5 -48.999 -19.5s-35.5 6.5 -48.5 19.5s-19.5 29.167 -19.5 48.5z" />
    <glyph glyph-name="uni0122" unicode="&#x122;" horiz-adv-x="558" 
d="M359 -50l-87 -185h-74l38 185h123zM297 334l212.004 0.00195312v-128c0 -33.333 -5.33301 -63.333 -16 -90s-25.834 -49.334 -45.501 -68.001s-43.334 -33 -71.001 -43s-58.167 -15 -91.5 -15c-34 0 -65.167 5 -93.5 15s-52.5 24.5 -72.5 43.5s-35.667 42 -47 69
s-17 57.5 -17 91.5v239c0 34 5.33301 64.5 16 91.5s26 50 46 69s44.333 33.5 73 43.5s61 15 97 15c33.333 0 63.666 -4.83301 90.999 -14.5s50.666 -23.334 69.999 -41.001s34.333 -39.167 45 -64.5s16 -54 16 -86v-16h-120v15c0 28.667 -8.66699 51.667 -26 69
s-43 26 -77 26s-60.167 -9.83301 -78.5 -29.5s-27.5 -46.167 -27.5 -79.5v-235c0 -33.333 9.16699 -59.833 27.5 -79.5s43.833 -29.5 76.5 -29.5c35.333 0 62.333 9.5 81 28.5s28 44.5 28 76.5v29h-96v98z" />
    <glyph glyph-name="uni0123" unicode="&#x123;" 
d="M172 548l87 185h74l-38 -185h-123zM46 310c0 28 3.49805 53.5 10.498 76.5s17.5 43 31.5 60s31.5 30.167 52.5 39.5s45.167 14 72.5 14c26.667 0 50 -5.16699 70 -15.5s36.333 -23.833 49 -40.5l9 46h103v-506c0 -28 -4.66699 -53.167 -14 -75.5
s-22.666 -41.333 -39.999 -57s-38 -27.667 -62 -36s-50.667 -12.5 -80 -12.5s-56 3.83301 -80 11.5s-44.667 18.334 -62 32.001s-30.666 30.167 -39.999 49.5s-14 40.666 -14 63.999v4h116v-9c0 -16 6.5 -29.5 19.5 -40.5s32.5 -16.5 58.5 -16.5
c26.667 0 46.334 7.5 59.001 22.5s19 34.833 19 59.5v75c-12.667 -14 -28.334 -25.167 -47.001 -33.5s-40 -12.5 -64 -12.5c-27.333 0 -51.5 4.66699 -72.5 14s-38.5 22.5 -52.5 39.5s-24.5 37 -31.5 60s-10.5 48.5 -10.5 76.5v111zM242.998 114
c25.333 0 45.166 8.16895 59.499 24.502s21.5 37.166 21.5 62.499v107c0 25.333 -7.16699 46.166 -21.5 62.499s-34.166 24.5 -59.499 24.5s-44.333 -8 -57 -24s-19 -36.333 -19 -61v-111c0 -24.667 6.33301 -45 19 -61s31.667 -24 57 -24z" />
    <glyph glyph-name="Hcircumflex" unicode="&#x124;" horiz-adv-x="599" 
d="M526 0h-125v278h-203v-278h-125v657h125v-267h203v267h125v-657zM326 868l108 -134l-47 -40l-89 78l-87 -77l-46 39l108 134h53z" />
    <glyph glyph-name="hcircumflex" unicode="&#x125;" horiz-adv-x="517" 
d="M148 868l108 -133l-47 -40l-89 77l-87 -76l-46 39l108 133h53zM61 0l0.000976562 676.998h121v-226c13.333 14.667 29.5 26.5 48.5 35.5s41.167 13.5 66.5 13.5c27.333 0 51.166 -4.5 71.499 -13.5s37.166 -21.667 50.499 -38s23.333 -35.666 30 -57.999
s10 -46.833 10 -73.5v-317h-120v310c0 24.667 -6.33301 45 -19 61s-31.667 24 -57 24s-45.166 -8.16699 -59.499 -24.5s-21.5 -37.166 -21.5 -62.499v-308h-121z" />
    <glyph glyph-name="Hbar" unicode="&#x126;" horiz-adv-x="604" 
d="M528 553h63v-71h-63v-482h-125v278h-203v-278h-125v482h-61v71h61v104h125v-104h203v104h125v-104zM403 390v92h-203v-92h203z" />
    <glyph glyph-name="hbar" unicode="&#x127;" horiz-adv-x="517" 
d="M61 0l0.000976562 540.998h-59v72h59v64h121v-64h97v-72h-97v-90c13.333 14.667 29.5 26.5 48.5 35.5s41.167 13.5 66.5 13.5c27.333 0 51.166 -4.5 71.499 -13.5s37.166 -21.667 50.499 -38s23.333 -35.666 30 -57.999s10 -46.833 10 -73.5v-317h-120v310
c0 24.667 -6.33301 45 -19 61s-31.667 24 -57 24s-45.166 -8.16699 -59.499 -24.5s-21.5 -37.166 -21.5 -62.499v-308h-121z" />
    <glyph glyph-name="Itilde" unicode="&#x128;" horiz-adv-x="271" 
d="M198 0h-125v657h125v-657zM295 818c0.666992 -4.66699 0.999023 -9 0.999023 -13v-12c0 -34 -8 -58.667 -24 -74s-36 -23 -60 -23c-10 0 -19.833 1.33301 -29.5 4s-19.167 6.33398 -28.5 11.001l-43 21c-5.33301 2.66699 -10.666 5 -15.999 7s-10.666 3 -15.999 3
c-8.66699 0 -15.5 -2.16699 -20.5 -6.5s-8.83301 -9.16602 -11.5 -14.499s-4.33398 -10.333 -5.00098 -15l-1 -7h-62c-1.33301 5.33301 -2.33301 10.166 -3 14.499s-1 8.83301 -1 13.5c0 28 8.66699 51 26 69s40 27 68 27c17.333 0 35 -4.33301 53 -13l41 -20
c6 -3.33301 12.5 -6.5 19.5 -9.5s13.5 -4.5 19.5 -4.5c6.66699 0 12 2 16 6s7.16699 8.5 9.5 13.5s3.83301 9.66699 4.5 14s1 7.16602 1 8.49902h62z" />
    <glyph glyph-name="itilde" unicode="&#x129;" horiz-adv-x="243" 
d="M182 490v-490h-121v490h121zM281 669c0.666992 -5.33301 0.999023 -9.83301 0.999023 -13.5v-11.5c0 -34 -8 -58.667 -24 -74s-36 -23 -60 -23c-10 0 -19.833 1.33301 -29.5 4s-19.167 6.33398 -28.5 11.001l-43 21c-5.33301 2.66699 -10.666 5 -15.999 7
s-10.666 3 -15.999 3c-8.66699 0 -15.5 -2.16699 -20.5 -6.5s-8.83301 -9.16602 -11.5 -14.499s-4.33398 -10.333 -5.00098 -15l-1 -7h-62c-1.33301 3.33301 -2.33301 7.66602 -3 12.999s-1 10.333 -1 15c0 28 8.66699 51 26 69s40 27 68 27c17.333 0 35 -4.33301 53 -13
l41 -20c6 -3.33301 12.5 -6.5 19.5 -9.5s13.5 -4.5 19.5 -4.5c6.66699 0 12 2 16 6s7.16699 8.5 9.5 13.5s3.83301 9.66699 4.5 14s1 7.16602 1 8.49902h62z" />
    <glyph glyph-name="Imacron" unicode="&#x12a;" horiz-adv-x="271" 
d="M198 0h-125v657h125v-657zM15 806h240v-85h-240v85z" />
    <glyph glyph-name="imacron" unicode="&#x12b;" horiz-adv-x="243" 
d="M182 490v-490h-121v490h121zM2 648h240v-85h-240v85z" />
    <glyph glyph-name="Iogonek" unicode="&#x12e;" horiz-adv-x="271" 
d="M165 -125l-0.000976562 -67.9971h-63c-33.333 0 -58 7.66699 -74 23s-24 34.333 -24 57c0 25.333 6.83301 47.666 20.5 66.999s29.834 34.666 48.501 45.999v657h125v-657h-57c-18.667 -12.667 -34.334 -26.834 -47.001 -42.501s-19 -32.167 -19 -49.5
c0 -10 3.33301 -18 10 -24s17.334 -9 32.001 -9h48z" />
    <glyph glyph-name="iogonek" unicode="&#x12f;" horiz-adv-x="243" 
d="M154 -125v-67.9971h-63c-33.333 0 -58 7.66699 -74 23s-24 34.333 -24 57c0 25.333 6.66699 47.666 20 66.999s29.333 34.666 48 45.999v490h121v-490h-52c-18.667 -12.667 -34.334 -26.834 -47.001 -42.501s-19 -32.167 -19 -49.5c0 -10 3.33301 -18 10 -24
s17.334 -9 32.001 -9h48zM53 622.003c0 19.333 6.66699 35.5 20 48.5s29.666 19.5 48.999 19.5s35.5 -6.5 48.5 -19.5s19.5 -29.167 19.5 -48.5s-6.5 -35.5 -19.5 -48.5s-29.167 -19.5 -48.5 -19.5s-35.666 6.5 -48.999 19.5s-20 29.167 -20 48.5z" />
    <glyph glyph-name="Idotaccent" unicode="&#x130;" horiz-adv-x="271" 
d="M198 0h-125v657h125v-657zM66 775c0 19.333 6.5 35.5 19.5 48.5s29.167 19.5 48.5 19.5s35.666 -6.5 48.999 -19.5s20 -29.167 20 -48.5s-6.66699 -35.666 -20 -48.999s-29.666 -20 -48.999 -20s-35.5 6.66699 -48.5 20s-19.5 29.666 -19.5 48.999z" />
    <glyph glyph-name="dotlessi" unicode="&#x131;" horiz-adv-x="243" 
d="M182 490v-490h-121v490h121z" />
    <glyph glyph-name="IJ" unicode="&#x132;" horiz-adv-x="773" 
d="M198 0h-125v657h125v-657zM415 215l-0.000976562 -24c0 -27.333 7.16699 -49 21.5 -65s34.5 -24 60.5 -24c26.667 0 47 8 61 24s21 37.667 21 65v466h125v-468c0 -30.667 -5 -58.334 -15 -83.001s-24.167 -45.5 -42.5 -62.5s-40.166 -30.167 -65.499 -39.5
s-53.333 -14 -84 -14s-58.667 4.66699 -84 14s-47 22.5 -65 39.5s-32 37.833 -42 62.5s-15 52.334 -15 83.001v26h124z" />
    <glyph glyph-name="ij" unicode="&#x133;" horiz-adv-x="492" 
d="M53 622c0 19.333 6.66699 35.5 20 48.5s29.666 19.5 48.999 19.5s35.5 -6.5 48.5 -19.5s19.5 -29.167 19.5 -48.5s-6.5 -35.5 -19.5 -48.5s-29.167 -19.5 -48.5 -19.5s-35.666 6.5 -48.999 19.5s-20 29.167 -20 48.5zM182 490v-490h-121v490h121zM233 -95
c26 0 45.333 6.16699 58 18.5s19 29.5 19 51.5v515h121v-508c0 -60 -16 -104.833 -48 -134.5s-77.333 -44.5 -136 -44.5h-35v102h21zM302 622c0 19.333 6.5 35.5 19.5 48.5s29.167 19.5 48.5 19.5s35.5 -6.5 48.5 -19.5s19.5 -29.167 19.5 -48.5s-6.5 -35.5 -19.5 -48.5
s-29.167 -19.5 -48.5 -19.5s-35.5 6.5 -48.5 19.5s-19.5 29.167 -19.5 48.5z" />
    <glyph glyph-name="Jcircumflex" unicode="&#x134;" horiz-adv-x="499" 
d="M141 215l-0.000976562 -24c0 -27.333 7.16699 -49 21.5 -65s34.5 -24 60.5 -24c26.667 0 47 8 61 24s21 37.667 21 65v466h125v-468c0 -30.667 -5 -58.334 -15 -83.001s-24.167 -45.5 -42.5 -62.5s-40.166 -30.167 -65.499 -39.5s-53.333 -14 -84 -14
s-58.667 4.66699 -84 14s-47 22.5 -65 39.5s-32 37.833 -42 62.5s-15 52.334 -15 83.001v26h124zM393.999 868l108 -134l-47 -40l-89 78l-87 -77l-46 39l108 134h53z" />
    <glyph glyph-name="jcircumflex" unicode="&#x135;" horiz-adv-x="243" 
d="M148 715l108 -133l-47 -40l-89 77l-87 -76l-46 39l108 133h53zM-16 -95c26 0 45.333 6.16699 58 18.5s19 29.5 19 51.5v515h121v-508c0 -60 -16 -104.833 -48 -134.5s-77.333 -44.5 -136 -44.5h-35v102h21z" />
    <glyph glyph-name="uni0136" unicode="&#x136;" horiz-adv-x="556" 
d="M356 -50l-87 -185h-74l38 185h123zM198 343l201 314h139l-172 -273l178 -384h-140l-126 280l-80 -125v-155h-125v657h125v-314z" />
    <glyph glyph-name="uni0137" unicode="&#x137;" horiz-adv-x="484" 
d="M316 -50l-87 -185h-74l38 185h123zM182 677v-379l151 192h131l-149 -188l157 -302h-133l-105 208l-52 -66v-142h-121v677h121z" />
    <glyph glyph-name="kgreenlandic" unicode="&#x138;" horiz-adv-x="484" 
d="M182 490v-191l149 191h133l-149 -188l157 -302h-133l-105 208l-52 -66v-142h-121v490h121z" />
    <glyph glyph-name="Lacute" unicode="&#x139;" horiz-adv-x="469" 
d="M131 694l-56 48l112 133l76 -71zM198 112h257v-112h-382v657h125v-545z" />
    <glyph glyph-name="lacute" unicode="&#x13a;" horiz-adv-x="246" 
d="M121 702l-56 48l112 133l76 -71zM183 677v-677h-120v677h120z" />
    <glyph glyph-name="uni013B" unicode="&#x13b;" horiz-adv-x="469" 
d="M317 -50l-87 -185h-74l38 185h123zM198 112h257v-112h-382v657h125v-545z" />
    <glyph glyph-name="uni013C" unicode="&#x13c;" horiz-adv-x="246" 
d="M183 -50l-87 -185h-74l38 185h123zM183 677v-677h-120v677h120z" />
    <glyph glyph-name="Lcaron" unicode="&#x13d;" horiz-adv-x="469" 
d="M381 657l-65 -154h-64l23 154h106zM198 112h257v-112h-382v657h125v-545z" />
    <glyph glyph-name="lcaron" unicode="&#x13e;" horiz-adv-x="246" 
d="M353 677l-65 -154h-64l23 154h106zM183 677v-677h-120v677h120z" />
    <glyph glyph-name="Ldot" unicode="&#x13f;" horiz-adv-x="470" 
d="M198 112h257v-112h-382v657h125v-545zM256 341c0 20 6.83301 36.833 20.5 50.5s30.167 20.5 49.5 20.5s36 -6.83301 50 -20.5s21 -30.5 21 -50.5c0 -19.333 -7 -35.833 -21 -49.5s-30.667 -20.5 -50 -20.5s-35.833 6.83301 -49.5 20.5s-20.5 30.167 -20.5 49.5z" />
    <glyph glyph-name="ldot" unicode="&#x140;" horiz-adv-x="368" 
d="M183 677v-677h-120v677h120zM234 351c0 20 6.83301 36.833 20.5 50.5s30.167 20.5 49.5 20.5s36 -6.83301 50 -20.5s21 -30.5 21 -50.5c0 -19.333 -7 -35.833 -21 -49.5s-30.667 -20.5 -50 -20.5s-35.833 6.83301 -49.5 20.5s-20.5 30.167 -20.5 49.5z" />
    <glyph glyph-name="Lslash" unicode="&#x141;" horiz-adv-x="476" 
d="M205 413l94 54v-109l-94 -54v-192h257v-112h-382v232l-69 -39v108l69 40v316h125v-244z" />
    <glyph glyph-name="lslash" unicode="&#x142;" horiz-adv-x="285" 
d="M203 677v-251l64 38v-109l-64 -38v-317h-120v247l-63 -36v109l63 36v321h120z" />
    <glyph glyph-name="Nacute" unicode="&#x143;" horiz-adv-x="595" 
d="M296 694l-56 48l112 133l76 -71zM522 0h-102l-233 415v-415h-114v657h107l228 -405v405h114v-657z" />
    <glyph glyph-name="nacute" unicode="&#x144;" horiz-adv-x="517" 
d="M261 542l-56 49l112 132l76 -71zM61 0l0.000976562 489.998h104l8 -48c13.333 17.333 30.333 31.333 51 42s45 16 73 16c27.333 0 51.166 -4.5 71.499 -13.5s37.166 -21.667 50.499 -38s23.333 -35.666 30 -57.999s10 -46.833 10 -73.5v-317h-120v310
c0 24.667 -6.33301 45 -19 61s-31.667 24 -57 24s-45.166 -8.16699 -59.499 -24.5s-21.5 -37.166 -21.5 -62.499v-308h-121z" />
    <glyph glyph-name="uni0145" unicode="&#x145;" horiz-adv-x="595" 
d="M373 -50l-87 -185h-74l38 185h123zM522 0h-102l-233 415v-415h-114v657h107l228 -405v405h114v-657z" />
    <glyph glyph-name="uni0146" unicode="&#x146;" horiz-adv-x="517" 
d="M322 -50l-87 -185h-74l38 185h123zM61 0l0.000976562 489.998h104l8 -48c13.333 17.333 30.333 31.333 51 42s45 16 73 16c27.333 0 51.166 -4.5 71.499 -13.5s37.166 -21.667 50.499 -38s23.333 -35.666 30 -57.999s10 -46.833 10 -73.5v-317h-120v310
c0 24.667 -6.33301 45 -19 61s-31.667 24 -57 24s-45.166 -8.16699 -59.499 -24.5s-21.5 -37.166 -21.5 -62.499v-308h-121z" />
    <glyph glyph-name="Ncaron" unicode="&#x147;" horiz-adv-x="595" 
d="M522 0h-102l-233 415v-415h-114v657h107l228 -405v405h114v-657zM271 693l-108 134l48 40l88 -78l88 77l45 -39l-108 -134h-53z" />
    <glyph glyph-name="ncaron" unicode="&#x148;" horiz-adv-x="517" 
d="M235 542l-108 134l48 40l88 -77l88 76l45 -39l-108 -134h-53zM61 0l0.000976562 489.998h104l8 -48c13.333 17.333 30.333 31.333 51 42s45 16 73 16c27.333 0 51.166 -4.5 71.499 -13.5s37.166 -21.667 50.499 -38s23.333 -35.666 30 -57.999s10 -46.833 10 -73.5v-317
h-120v310c0 24.667 -6.33301 45 -19 61s-31.667 24 -57 24s-45.166 -8.16699 -59.499 -24.5s-21.5 -37.166 -21.5 -62.499v-308h-121z" />
    <glyph glyph-name="napostrophe" unicode="&#x149;" horiz-adv-x="554" 
d="M154 677l-87 -185h-74l38 185h123zM98 0l0.000976562 489.998h104l8 -48c13.333 17.333 30.333 31.333 51 42s45 16 73 16c27.333 0 51.166 -4.5 71.499 -13.5s37.166 -21.667 50.499 -38s23.333 -35.666 30 -57.999s10 -46.833 10 -73.5v-317h-120v310
c0 24.667 -6.33301 45 -19 61s-31.667 24 -57 24s-45.166 -8.16699 -59.499 -24.5s-21.5 -37.166 -21.5 -62.499v-308h-121z" />
    <glyph glyph-name="Omacron" unicode="&#x14c;" horiz-adv-x="573" 
d="M180 211c0 -33.333 9.33301 -59.833 28 -79.5s45 -29.5 79 -29.5s60.167 9.83301 78.5 29.5s27.5 46.167 27.5 79.5v235c0 33.333 -9.16699 59.833 -27.5 79.5s-44.5 29.5 -78.5 29.5s-60.333 -9.83301 -79 -29.5s-28 -46.167 -28 -79.5v-235zM518 209
c0 -34 -5.66895 -64.5 -17.002 -91.5s-27.166 -50 -47.499 -69s-44.666 -33.5 -72.999 -43.5s-59.5 -15 -93.5 -15c-34.667 0 -66.167 5 -94.5 15s-52.666 24.5 -72.999 43.5s-36.166 42 -47.499 69s-17 57.5 -17 91.5v239c0 68 20 121.5 60 160.5s97.333 58.5 172 58.5
c34 0 65.167 -5 93.5 -15s52.666 -24.5 72.999 -43.5s36.166 -42 47.499 -69s17 -57.5 17 -91.5v-239zM166.998 806h240v-85h-240v85z" />
    <glyph glyph-name="omacron" unicode="&#x14d;" horiz-adv-x="488" 
d="M124 648h240v-85h-240v85zM165 178c0 -25.333 6.83301 -46 20.5 -62s33.167 -24 58.5 -24s44.833 8 58.5 24s20.5 36.667 20.5 62v133c0 25.333 -6.83301 46.166 -20.5 62.499s-33.167 24.5 -58.5 24.5s-44.833 -8.16699 -58.5 -24.5s-20.5 -37.166 -20.5 -62.499v-133z
M443 187c0 -30 -4.83301 -57.167 -14.5 -81.5s-23.167 -45 -40.5 -62s-38.166 -30.167 -62.499 -39.5s-51.5 -14 -81.5 -14s-57.167 4.66699 -81.5 14s-45.333 22.5 -63 39.5s-31.334 37.667 -41.001 62s-14.5 51.5 -14.5 81.5v116c0 30 4.83301 57.167 14.5 81.5
s23.334 45 41.001 62s38.667 30.167 63 39.5s51.5 14 81.5 14s57.167 -4.66699 81.5 -14s45.166 -22.5 62.499 -39.5s30.833 -37.667 40.5 -62s14.5 -51.5 14.5 -81.5v-116z" />
    <glyph glyph-name="Obreve" unicode="&#x14e;" horiz-adv-x="573" 
d="M180 211c0 -33.333 9.33301 -59.833 28 -79.5s45 -29.5 79 -29.5s60.167 9.83301 78.5 29.5s27.5 46.167 27.5 79.5v235c0 33.333 -9.16699 59.833 -27.5 79.5s-44.5 29.5 -78.5 29.5s-60.333 -9.83301 -79 -29.5s-28 -46.167 -28 -79.5v-235zM518 209
c0 -34 -5.66895 -64.5 -17.002 -91.5s-27.166 -50 -47.499 -69s-44.666 -33.5 -72.999 -43.5s-59.5 -15 -93.5 -15c-34.667 0 -66.167 5 -94.5 15s-52.666 24.5 -72.999 43.5s-36.166 42 -47.499 69s-17 57.5 -17 91.5v239c0 68 20 121.5 60 160.5s97.333 58.5 172 58.5
c34 0 65.167 -5 93.5 -15s52.666 -24.5 72.999 -43.5s36.166 -42 47.499 -69s17 -57.5 17 -91.5v-239zM404.998 825v-21c0 -30.667 -10.833 -56.667 -32.5 -78s-50.5 -32 -86.5 -32s-64.667 10.667 -86 32s-32 47.333 -32 78v21h72v-21c0 -13.333 3.83301 -24.5 11.5 -33.5
s19.167 -13.5 34.5 -13.5s27 4.5 35 13.5s12 20.167 12 33.5v21h72z" />
    <glyph glyph-name="obreve" unicode="&#x14f;" horiz-adv-x="488" 
d="M165 178c0 -25.333 6.83301 -46 20.5 -62s33.167 -24 58.5 -24s44.833 8 58.5 24s20.5 36.667 20.5 62v133c0 25.333 -6.83301 46.166 -20.5 62.499s-33.167 24.5 -58.5 24.5s-44.833 -8.16699 -58.5 -24.5s-20.5 -37.166 -20.5 -62.499v-133zM443 187
c0 -30 -4.83301 -57.167 -14.5 -81.5s-23.167 -45 -40.5 -62s-38.166 -30.167 -62.499 -39.5s-51.5 -14 -81.5 -14s-57.167 4.66699 -81.5 14s-45.333 22.5 -63 39.5s-31.334 37.667 -41.001 62s-14.5 51.5 -14.5 81.5v116c0 30 4.83301 57.167 14.5 81.5
s23.334 45 41.001 62s38.667 30.167 63 39.5s51.5 14 81.5 14s57.167 -4.66699 81.5 -14s45.166 -22.5 62.499 -39.5s30.833 -37.667 40.5 -62s14.5 -51.5 14.5 -81.5v-116zM362 673v-21c0 -30.667 -10.833 -56.667 -32.5 -78s-50.5 -32 -86.5 -32s-64.667 10.667 -86 32
s-32 47.333 -32 78v21h72v-21c0 -13.333 3.83301 -24.5 11.5 -33.5s19.167 -13.5 34.5 -13.5s27 4.5 35 13.5s12 20.167 12 33.5v21h72z" />
    <glyph glyph-name="Ohungarumlaut" unicode="&#x150;" horiz-adv-x="573" 
d="M209 694l-46 40l103 136l66 -56zM338 695l-40 45l118 124l57 -63zM180 211c0 -33.333 9.33301 -59.833 28 -79.5s45 -29.5 79 -29.5s60.167 9.83301 78.5 29.5s27.5 46.167 27.5 79.5v235c0 33.333 -9.16699 59.833 -27.5 79.5s-44.5 29.5 -78.5 29.5
s-60.333 -9.83301 -79 -29.5s-28 -46.167 -28 -79.5v-235zM518 209c0 -34 -5.66895 -64.5 -17.002 -91.5s-27.166 -50 -47.499 -69s-44.666 -33.5 -72.999 -43.5s-59.5 -15 -93.5 -15c-34.667 0 -66.167 5 -94.5 15s-52.666 24.5 -72.999 43.5s-36.166 42 -47.499 69
s-17 57.5 -17 91.5v239c0 68 20 121.5 60 160.5s97.333 58.5 172 58.5c34 0 65.167 -5 93.5 -15s52.666 -24.5 72.999 -43.5s36.166 -42 47.499 -69s17 -57.5 17 -91.5v-239z" />
    <glyph glyph-name="ohungarumlaut" unicode="&#x151;" horiz-adv-x="488" 
d="M169 542l-46 39l103 136l66 -55zM298 543l-40 45l118 124l57 -63zM165 178c0 -25.333 6.83301 -46 20.5 -62s33.167 -24 58.5 -24s44.833 8 58.5 24s20.5 36.667 20.5 62v133c0 25.333 -6.83301 46.166 -20.5 62.499s-33.167 24.5 -58.5 24.5
s-44.833 -8.16699 -58.5 -24.5s-20.5 -37.166 -20.5 -62.499v-133zM443 187c0 -30 -4.83301 -57.167 -14.5 -81.5s-23.167 -45 -40.5 -62s-38.166 -30.167 -62.499 -39.5s-51.5 -14 -81.5 -14s-57.167 4.66699 -81.5 14s-45.333 22.5 -63 39.5s-31.334 37.667 -41.001 62
s-14.5 51.5 -14.5 81.5v116c0 30 4.83301 57.167 14.5 81.5s23.334 45 41.001 62s38.667 30.167 63 39.5s51.5 14 81.5 14s57.167 -4.66699 81.5 -14s45.166 -22.5 62.499 -39.5s30.833 -37.667 40.5 -62s14.5 -51.5 14.5 -81.5v-116z" />
    <glyph glyph-name="OE" unicode="&#x152;" horiz-adv-x="853" 
d="M801 545h-283.001v-156h254v-110h-254v-167h292v-112h-409v32c-35.333 -28 -77.333 -42 -126 -42c-33.333 0 -63.5 5 -90.5 15s-50.167 24.5 -69.5 43.5s-34.166 42 -44.499 69s-15.5 57.5 -15.5 91.5v239c0 68 18.667 121.5 56 160.5s92 58.5 164 58.5
c49.333 0 91.333 -14.333 126 -43v33h400v-112zM179.999 211c0 -33.333 9.33301 -59.833 28 -79.5s45 -29.5 79 -29.5c33.333 0 59.333 9.83301 78 29.5s28 45.5 28 77.5v237c0 33.333 -9.16699 59.833 -27.5 79.5s-44.5 29.5 -78.5 29.5s-60.333 -9.83301 -79 -29.5
s-28 -46.167 -28 -79.5v-235z" />
    <glyph glyph-name="oe" unicode="&#x153;" horiz-adv-x="754" 
d="M712 170l-0.000976562 -4c0 -27.333 -4.66699 -51.833 -14 -73.5s-22.5 -40 -39.5 -55s-37.167 -26.667 -60.5 -35s-49.333 -12.5 -78 -12.5c-30 0 -56.667 5.66699 -80 17s-42.666 27 -57.999 47c-15.333 -20 -34.666 -35.667 -57.999 -47s-50 -17 -80 -17
s-57.167 4.66699 -81.5 14s-45.333 22.5 -63 39.5s-31.334 37.667 -41.001 62s-14.5 51.5 -14.5 81.5v116c0 30 4.83301 57.167 14.5 81.5s23.334 45 41.001 62s38.667 30.167 63 39.5s51.5 14 81.5 14s56.833 -5.66699 80.5 -17s43.167 -27.666 58.5 -48.999
c15.333 21.333 34.5 37.666 57.5 48.999s49.5 17 79.5 17c28.667 0 54.667 -4.66699 78 -14s43.5 -22.5 60.5 -39.5s30.167 -37.667 39.5 -62s14 -51.5 14 -81.5v-81h-271v-50c0 -24.667 7.16699 -45.167 21.5 -61.5s34.166 -24.5 59.499 -24.5
c24.667 0 43.5 7.16699 56.5 21.5s19.5 32.833 19.5 55.5v7h114zM164.999 178c0 -25.333 6.83301 -46 20.5 -62s33.167 -24 58.5 -24s44.833 8 58.5 24s20.5 36.667 20.5 62v133c0 25.333 -6.83301 46.166 -20.5 62.499s-33.167 24.5 -58.5 24.5
s-44.833 -8.16699 -58.5 -24.5s-20.5 -37.166 -20.5 -62.499v-133zM440.999 305h157.001v12c0 25.333 -6.83301 46.166 -20.5 62.499s-32.834 24.5 -57.501 24.5c-25.333 0 -44.833 -8.16699 -58.5 -24.5s-20.5 -37.166 -20.5 -62.499v-12z" />
    <glyph glyph-name="Racute" unicode="&#x154;" horiz-adv-x="574" 
d="M397 0l-95 241h-104v-241h-125v657h231c32.667 0 62.667 -4.83301 90 -14.5s51 -23.5 71 -41.5s35.667 -39.5 47 -64.5s17 -52.833 17 -83.5c0 -42.667 -9.33301 -79.5 -28 -110.5s-44 -55.167 -76 -72.5l108 -270h-136zM198 548v-198h93c34.667 0 61.834 9 81.501 27
s29.5 42.333 29.5 73c0 30 -9.83301 53.833 -29.5 71.5s-46.834 26.5 -81.501 26.5h-93zM263 694l-56 48l112 133l76 -71z" />
    <glyph glyph-name="racute" unicode="&#x155;" horiz-adv-x="336" 
d="M177 542l-56 49l112 132l76 -71zM61 0l0.000976562 489.999h104l10 -56c11.333 18.667 26.666 34.334 45.999 47.001s41.666 19 66.999 19c10.667 0 20.334 -1.33301 29.001 -4v-113c-6 1.33301 -12.667 2.33301 -20 3s-14.333 1 -21 1c-25.333 0 -47.333 -7 -66 -21
s-28 -36.333 -28 -67v-299h-121z" />
    <glyph glyph-name="uni0156" unicode="&#x156;" horiz-adv-x="574" 
d="M351 -50l-87 -185h-74l38 185h123zM397 0l-95 241h-104v-241h-125v657h231c32.667 0 62.667 -4.83301 90 -14.5s51 -23.5 71 -41.5s35.667 -39.5 47 -64.5s17 -52.833 17 -83.5c0 -42.667 -9.33301 -79.5 -28 -110.5s-44 -55.167 -76 -72.5l108 -270h-136zM198 548v-198
h93c34.667 0 61.834 9 81.501 27s29.5 42.333 29.5 73c0 30 -9.83301 53.833 -29.5 71.5s-46.834 26.5 -81.501 26.5h-93z" />
    <glyph glyph-name="uni0157" unicode="&#x157;" horiz-adv-x="336" 
d="M186 -50l-87 -185h-74l38 185h123zM61 0l0.000976562 489.999h104l10 -56c11.333 18.667 26.666 34.334 45.999 47.001s41.666 19 66.999 19c10.667 0 20.334 -1.33301 29.001 -4v-113c-6 1.33301 -12.667 2.33301 -20 3s-14.333 1 -21 1c-25.333 0 -47.333 -7 -66 -21
s-28 -36.333 -28 -67v-299h-121z" />
    <glyph glyph-name="Rcaron" unicode="&#x158;" horiz-adv-x="574" 
d="M397 0l-95 241h-104v-241h-125v657h231c32.667 0 62.667 -4.83301 90 -14.5s51 -23.5 71 -41.5s35.667 -39.5 47 -64.5s17 -52.833 17 -83.5c0 -42.667 -9.33301 -79.5 -28 -110.5s-44 -55.167 -76 -72.5l108 -270h-136zM198 548v-198h93c34.667 0 61.834 9 81.501 27
s29.5 42.333 29.5 73c0 30 -9.83301 53.833 -29.5 71.5s-46.834 26.5 -81.501 26.5h-93zM230 693l-108 134l48 40l88 -78l88 77l45 -39l-108 -134h-53z" />
    <glyph glyph-name="rcaron" unicode="&#x159;" horiz-adv-x="336" 
d="M142 542l-108 134l48 40l88 -77l88 76l45 -39l-108 -134h-53zM61 0l0.000976562 489.999h104l10 -56c11.333 18.667 26.666 34.334 45.999 47.001s41.666 19 66.999 19c10.667 0 20.334 -1.33301 29.001 -4v-113c-6 1.33301 -12.667 2.33301 -20 3s-14.333 1 -21 1
c-25.333 0 -47.333 -7 -66 -21s-28 -36.333 -28 -67v-299h-121z" />
    <glyph glyph-name="Sacute" unicode="&#x15a;" horiz-adv-x="533" 
d="M357 459l-0.000976562 19.0059c0 25.333 -8.5 46 -25.5 62s-40.167 24 -69.5 24c-28.667 0 -50.667 -6.83301 -66 -20.5s-23 -31.167 -23 -52.5c0 -13.333 4.33301 -26.833 13 -40.5s25 -24.834 49 -33.501l93 -34c20.667 -7.33301 40.834 -15.833 60.501 -25.5
s37.167 -21.834 52.5 -36.501s27.833 -32.5 37.5 -53.5s14.5 -46.5 14.5 -76.5s-5.33301 -57.333 -16 -82s-25.834 -45.834 -45.501 -63.501s-43.334 -31.334 -71.001 -41.001s-58.5 -14.5 -92.5 -14.5s-65 4.5 -93 13.5s-52.167 21.833 -72.5 38.5s-36.166 37 -47.499 61
s-17 51 -17 81v22h123v-27c0 -26.667 9.16699 -47.5 27.5 -62.5s43.833 -22.5 76.5 -22.5c34.667 0 61 7.83301 79 23.5s27 35.5 27 59.5c0 40 -24 68.667 -72 86l-100 38c-46 17.333 -82 40.166 -108 68.499s-39 65.833 -39 112.5c0 25.333 4.83301 49.166 14.5 71.499
s23.5 42 41.5 59s40 30.333 66 40s55.333 14.5 88 14.5s62.334 -4.5 89.001 -13.5s49.5 -21.833 68.5 -38.5s33.667 -37 44 -61s15.5 -51 15.5 -81v-14h-122zM262.999 694.006l-56 48l112 133l76 -71z" />
    <glyph glyph-name="sacute" unicode="&#x15b;" horiz-adv-x="451" 
d="M222 542l-56 49l112 132l76 -71zM146 156v-19.001c0 -18 7 -32 21 -42s33 -15 57 -15c25.333 0 44.333 4.66699 57 14s19 22.666 19 39.999c0 13.333 -4 24 -12 32s-21 14.667 -39 20l-87 27c-32 10 -59.333 26.167 -82 48.5s-34 53.166 -34 92.499
c0 18.667 4 36.834 12 54.501s19.667 33.334 35 47.001s33.666 24.5 54.999 32.5s45.666 12 72.999 12c56 0 101 -13 135 -39s51 -62 51 -108v-11h-112v14c0 16 -6.16699 29.167 -18.5 39.5s-30.166 15.5 -53.499 15.5c-18.667 0 -34.334 -4.16699 -47.001 -12.5
s-19 -20.166 -19 -35.499c0 -9.33301 3 -18 9 -26s19 -15 39 -21l70 -21c18 -6 35.333 -12.667 52 -20s31.334 -16.833 44.001 -28.5s22.834 -25.667 30.501 -42s11.5 -35.833 11.5 -58.5c0 -23.333 -4.33301 -44.5 -13 -63.5s-21 -35.5 -37 -49.5
s-35.5 -24.833 -58.5 -32.5s-49.167 -11.5 -78.5 -11.5c-28 0 -53.667 3.5 -77 10.5s-43.5 17 -60.5 30s-30.167 29 -39.5 48s-14 40.167 -14 63.5v15h111z" />
    <glyph glyph-name="Scircumflex" unicode="&#x15c;" horiz-adv-x="533" 
d="M357 459l-0.000976562 19.0059c0 25.333 -8.5 46 -25.5 62s-40.167 24 -69.5 24c-28.667 0 -50.667 -6.83301 -66 -20.5s-23 -31.167 -23 -52.5c0 -13.333 4.33301 -26.833 13 -40.5s25 -24.834 49 -33.501l93 -34c20.667 -7.33301 40.834 -15.833 60.501 -25.5
s37.167 -21.834 52.5 -36.501s27.833 -32.5 37.5 -53.5s14.5 -46.5 14.5 -76.5s-5.33301 -57.333 -16 -82s-25.834 -45.834 -45.501 -63.501s-43.334 -31.334 -71.001 -41.001s-58.5 -14.5 -92.5 -14.5s-65 4.5 -93 13.5s-52.167 21.833 -72.5 38.5s-36.166 37 -47.499 61
s-17 51 -17 81v22h123v-27c0 -26.667 9.16699 -47.5 27.5 -62.5s43.833 -22.5 76.5 -22.5c34.667 0 61 7.83301 79 23.5s27 35.5 27 59.5c0 40 -24 68.667 -72 86l-100 38c-46 17.333 -82 40.166 -108 68.499s-39 65.833 -39 112.5c0 25.333 4.83301 49.166 14.5 71.499
s23.5 42 41.5 59s40 30.333 66 40s55.333 14.5 88 14.5s62.334 -4.5 89.001 -13.5s49.5 -21.833 68.5 -38.5s33.667 -37 44 -61s15.5 -51 15.5 -81v-14h-122zM290.999 868.006l108 -134l-47 -40l-89 78l-87 -77l-46 39l108 134h53z" />
    <glyph glyph-name="scircumflex" unicode="&#x15d;" horiz-adv-x="451" 
d="M250 715l108 -133l-47 -40l-89 77l-87 -76l-46 39l108 133h53zM146 156v-19.001c0 -18 7 -32 21 -42s33 -15 57 -15c25.333 0 44.333 4.66699 57 14s19 22.666 19 39.999c0 13.333 -4 24 -12 32s-21 14.667 -39 20l-87 27c-32 10 -59.333 26.167 -82 48.5
s-34 53.166 -34 92.499c0 18.667 4 36.834 12 54.501s19.667 33.334 35 47.001s33.666 24.5 54.999 32.5s45.666 12 72.999 12c56 0 101 -13 135 -39s51 -62 51 -108v-11h-112v14c0 16 -6.16699 29.167 -18.5 39.5s-30.166 15.5 -53.499 15.5
c-18.667 0 -34.334 -4.16699 -47.001 -12.5s-19 -20.166 -19 -35.499c0 -9.33301 3 -18 9 -26s19 -15 39 -21l70 -21c18 -6 35.333 -12.667 52 -20s31.334 -16.833 44.001 -28.5s22.834 -25.667 30.501 -42s11.5 -35.833 11.5 -58.5c0 -23.333 -4.33301 -44.5 -13 -63.5
s-21 -35.5 -37 -49.5s-35.5 -24.833 -58.5 -32.5s-49.167 -11.5 -78.5 -11.5c-28 0 -53.667 3.5 -77 10.5s-43.5 17 -60.5 30s-30.167 29 -39.5 48s-14 40.167 -14 63.5v15h111z" />
    <glyph glyph-name="Scedilla" unicode="&#x15e;" horiz-adv-x="534" 
d="M193 -81l21.999 76.001c-53.333 8.66699 -96 29.334 -128 62.001s-48 75 -48 127v22h123v-27c0 -26.667 9.16699 -47.5 27.5 -62.5s43.833 -22.5 76.5 -22.5c34.667 0 61 7.83301 79 23.5s27 35.5 27 59.5c0 40 -24 68.667 -72 86l-100 38
c-46 17.333 -82 40.166 -108 68.499s-39 65.833 -39 112.5c0 25.333 4.83301 49.166 14.5 71.499s23.5 42 41.5 59s40 30.333 66 40s55.333 14.5 88 14.5s62.334 -4.5 89.001 -13.5s49.5 -21.833 68.5 -38.5s33.667 -37 44 -61s15.5 -51 15.5 -81v-14h-122v19
c0 25.333 -8.5 46 -25.5 62s-40.167 24 -69.5 24c-28.667 0 -50.667 -6.83301 -66 -20.5s-23 -31.167 -23 -52.5c0 -13.333 4.33301 -26.833 13 -40.5s25 -24.834 49 -33.501l93 -34c20.667 -7.33301 40.834 -15.833 60.501 -25.5s37.167 -21.834 52.5 -36.501
s27.833 -32.5 37.5 -53.5s14.5 -46.5 14.5 -76.5c0 -29.333 -5 -56 -15 -80s-24.333 -44.667 -43 -62s-41.167 -31.166 -67.5 -41.499s-55.833 -16.166 -88.5 -17.499l-9 -30h12c26 0 46 -6.33301 60 -19s21 -30.334 21 -53.001c0 -23.333 -7.33301 -41.666 -22 -54.999
s-34.334 -20 -59.001 -20h-112v57h101c5.33301 0 9.83301 1.33301 13.5 4s5.5 7 5.5 13s-1.83301 10.167 -5.5 12.5s-8.16699 3.5 -13.5 3.5h-58z" />
    <glyph glyph-name="scedilla" unicode="&#x15f;" horiz-adv-x="452" 
d="M152 -81l22.001 75.002c-42 7.33301 -75.5 23.666 -100.5 48.999s-37.5 58 -37.5 98v15h111v-19c0 -18 7 -32 21 -42s33 -15 57 -15c25.333 0 44.333 4.66699 57 14s19 22.666 19 39.999c0 13.333 -4 24 -12 32s-21 14.667 -39 20l-87 27c-32 10 -59.333 26.167 -82 48.5
s-34 53.166 -34 92.499c0 18.667 4 36.834 12 54.501s19.667 33.334 35 47.001s33.666 24.5 54.999 32.5s45.666 12 72.999 12c56 0 101 -13 135 -39s51 -62 51 -108v-11h-112v14c0 16 -6.16699 29.167 -18.5 39.5s-30.166 15.5 -53.499 15.5
c-18.667 0 -34.334 -4.16699 -47.001 -12.5s-19 -20.166 -19 -35.499c0 -9.33301 3 -18 9 -26s19 -15 39 -21l70 -21c18 -6 35.333 -12.667 52 -20s31.334 -16.833 44.001 -28.5s22.834 -25.667 30.501 -42s11.5 -35.833 11.5 -58.5c0 -44.667 -15.5 -81.334 -46.5 -110.001
s-73.833 -44.334 -128.5 -47.001l-9 -29h12c26 0 46 -6.33301 60 -19s21 -30.334 21 -53.001c0 -23.333 -7.33301 -41.666 -22 -54.999s-34.334 -20 -59.001 -20h-112v57h101c5.33301 0 9.83301 1.33301 13.5 4s5.5 7 5.5 13s-1.83301 10.167 -5.5 12.5
s-8.16699 3.5 -13.5 3.5h-58z" />
    <glyph glyph-name="Scaron" unicode="&#x160;" horiz-adv-x="533" 
d="M357 459l-0.000976562 19.0059c0 25.333 -8.5 46 -25.5 62s-40.167 24 -69.5 24c-28.667 0 -50.667 -6.83301 -66 -20.5s-23 -31.167 -23 -52.5c0 -13.333 4.33301 -26.833 13 -40.5s25 -24.834 49 -33.501l93 -34c20.667 -7.33301 40.834 -15.833 60.501 -25.5
s37.167 -21.834 52.5 -36.501s27.833 -32.5 37.5 -53.5s14.5 -46.5 14.5 -76.5s-5.33301 -57.333 -16 -82s-25.834 -45.834 -45.501 -63.501s-43.334 -31.334 -71.001 -41.001s-58.5 -14.5 -92.5 -14.5s-65 4.5 -93 13.5s-52.167 21.833 -72.5 38.5s-36.166 37 -47.499 61
s-17 51 -17 81v22h123v-27c0 -26.667 9.16699 -47.5 27.5 -62.5s43.833 -22.5 76.5 -22.5c34.667 0 61 7.83301 79 23.5s27 35.5 27 59.5c0 40 -24 68.667 -72 86l-100 38c-46 17.333 -82 40.166 -108 68.499s-39 65.833 -39 112.5c0 25.333 4.83301 49.166 14.5 71.499
s23.5 42 41.5 59s40 30.333 66 40s55.333 14.5 88 14.5s62.334 -4.5 89.001 -13.5s49.5 -21.833 68.5 -38.5s33.667 -37 44 -61s15.5 -51 15.5 -81v-14h-122zM238.999 693.006l-108 134l48 40l88 -78l88 77l45 -39l-108 -134h-53z" />
    <glyph glyph-name="scaron" unicode="&#x161;" horiz-adv-x="451" 
d="M196 542l-108 134l48 40l88 -77l88 76l45 -39l-108 -134h-53zM146 156v-19.001c0 -18 7 -32 21 -42s33 -15 57 -15c25.333 0 44.333 4.66699 57 14s19 22.666 19 39.999c0 13.333 -4 24 -12 32s-21 14.667 -39 20l-87 27c-32 10 -59.333 26.167 -82 48.5
s-34 53.166 -34 92.499c0 18.667 4 36.834 12 54.501s19.667 33.334 35 47.001s33.666 24.5 54.999 32.5s45.666 12 72.999 12c56 0 101 -13 135 -39s51 -62 51 -108v-11h-112v14c0 16 -6.16699 29.167 -18.5 39.5s-30.166 15.5 -53.499 15.5
c-18.667 0 -34.334 -4.16699 -47.001 -12.5s-19 -20.166 -19 -35.499c0 -9.33301 3 -18 9 -26s19 -15 39 -21l70 -21c18 -6 35.333 -12.667 52 -20s31.334 -16.833 44.001 -28.5s22.834 -25.667 30.501 -42s11.5 -35.833 11.5 -58.5c0 -23.333 -4.33301 -44.5 -13 -63.5
s-21 -35.5 -37 -49.5s-35.5 -24.833 -58.5 -32.5s-49.167 -11.5 -78.5 -11.5c-28 0 -53.667 3.5 -77 10.5s-43.5 17 -60.5 30s-30.167 29 -39.5 48s-14 40.167 -14 63.5v15h111z" />
    <glyph glyph-name="uni0162" unicode="&#x162;" horiz-adv-x="476" 
d="M182 -81l23.001 81h-29v545h-158v112h439v-112h-157v-545h-28l-12 -40h12c26 0 46 -6.33301 60 -19s21 -30.334 21 -53.001c0 -23.333 -7.33301 -41.666 -22 -54.999s-34.334 -20 -59.001 -20h-112v57h101c5.33301 0 9.83301 1.33301 13.5 4s5.5 7 5.5 13
s-1.83301 10.167 -5.5 12.5s-8.16699 3.5 -13.5 3.5h-58z" />
    <glyph glyph-name="uni0163" unicode="&#x163;" horiz-adv-x="331" 
d="M108 -81l23.001 81h-26v384h-81v101h81v134h120v-134h82v-101h-82v-384h-27l-12 -40h12c26 0 46 -6.33301 60 -19s21 -30.334 21 -53.001c0 -23.333 -7.33301 -41.666 -22 -54.999s-34.334 -20 -59.001 -20h-112v57h101c5.33301 0 9.83301 1.33301 13.5 4s5.5 7 5.5 13
s-1.83301 10.167 -5.5 12.5s-8.16699 3.5 -13.5 3.5h-58z" />
    <glyph glyph-name="Tcaron" unicode="&#x164;" horiz-adv-x="476" 
d="M18 657h439v-112h-157v-545h-124v545h-158v112zM211 693l-108 134l48 40l88 -78l88 77l45 -39l-108 -134h-53z" />
    <glyph glyph-name="tcaron" unicode="&#x165;" horiz-adv-x="331" 
d="M397 677l-65 -154h-64l23 154h106zM24 485h81v134h120v-134h82v-101h-82v-384h-120v384h-81v101z" />
    <glyph glyph-name="Tbar" unicode="&#x166;" horiz-adv-x="476" 
d="M18 657h439v-112h-157v-118h122v-95h-122v-332h-124v332h-121v95h121v118h-158v112z" />
    <glyph glyph-name="tbar" unicode="&#x167;" horiz-adv-x="336" 
d="M27 485h81v134h120v-134h82v-101h-82v-74h77v-78h-77v-232h-120v232h-77v78h77v74h-81v101z" />
    <glyph glyph-name="Utilde" unicode="&#x168;" horiz-adv-x="588" 
d="M519 657l0.00195312 -448c0 -34 -5.5 -64.5 -16.5 -91.5s-26.333 -50 -46 -69s-43.334 -33.5 -71.001 -43.5s-58.167 -15 -91.5 -15s-63.833 5 -91.5 15s-51.334 24.5 -71.001 43.5s-35 42 -46 69s-16.5 57.5 -16.5 91.5v448h124v-446
c0 -33.333 8.83301 -59.833 26.5 -79.5s42.5 -29.5 74.5 -29.5s56.833 9.83301 74.5 29.5s26.5 46.167 26.5 79.5v446h124zM453.002 818c0.666992 -4.66699 0.999023 -9 0.999023 -13v-12c0 -34 -8 -58.667 -24 -74s-36 -23 -60 -23c-10 0 -19.833 1.33301 -29.5 4
s-19.167 6.33398 -28.5 11.001l-43 21c-5.33301 2.66699 -10.666 5 -15.999 7s-10.666 3 -15.999 3c-8.66699 0 -15.5 -2.16699 -20.5 -6.5s-8.83301 -9.16602 -11.5 -14.499s-4.33398 -10.333 -5.00098 -15l-1 -7h-62c-1.33301 5.33301 -2.33301 10.166 -3 14.499
s-1 8.83301 -1 13.5c0 28 8.66699 51 26 69s40 27 68 27c17.333 0 35 -4.33301 53 -13l41 -20c6 -3.33301 12.5 -6.5 19.5 -9.5s13.5 -4.5 19.5 -4.5c6.66699 0 12 2 16 6s7.16699 8.5 9.5 13.5s3.83301 9.66699 4.5 14s1 7.16602 1 8.49902h62z" />
    <glyph glyph-name="utilde" unicode="&#x169;" horiz-adv-x="511" 
d="M57 490l121.002 0.000976562v-319c0 -22 6 -40.167 18 -54.5s29.667 -21.5 53 -21.5c25.333 0 45.166 8.16699 59.499 24.5s21.5 36.833 21.5 61.5v309h120v-490h-103l-10 47c-12.667 -17.333 -29.334 -31.166 -50.001 -41.499s-44.667 -15.5 -72 -15.5
c-26.667 0 -50 4.33301 -70 13s-36.5 20.667 -49.5 36s-22.667 33.666 -29 54.999s-9.5 44.666 -9.5 69.999v326zM413.002 669.001c0.666992 -5.33301 0.999023 -9.83301 0.999023 -13.5v-11.5c0 -34 -8 -58.667 -24 -74s-36 -23 -60 -23c-10 0 -19.833 1.33301 -29.5 4
s-19.167 6.33398 -28.5 11.001l-43 21c-5.33301 2.66699 -10.666 5 -15.999 7s-10.666 3 -15.999 3c-8.66699 0 -15.5 -2.16699 -20.5 -6.5s-8.83301 -9.16602 -11.5 -14.499s-4.33398 -10.333 -5.00098 -15l-1 -7h-62c-1.33301 3.33301 -2.33301 7.66602 -3 12.999
s-1 10.333 -1 15c0 28 8.66699 51 26 69s40 27 68 27c17.333 0 35 -4.33301 53 -13l41 -20c6 -3.33301 12.5 -6.5 19.5 -9.5s13.5 -4.5 19.5 -4.5c6.66699 0 12 2 16 6s7.16699 8.5 9.5 13.5s3.83301 9.66699 4.5 14s1 7.16602 1 8.49902h62z" />
    <glyph glyph-name="Umacron" unicode="&#x16a;" horiz-adv-x="588" 
d="M519 657l0.00195312 -448c0 -34 -5.5 -64.5 -16.5 -91.5s-26.333 -50 -46 -69s-43.334 -33.5 -71.001 -43.5s-58.167 -15 -91.5 -15s-63.833 5 -91.5 15s-51.334 24.5 -71.001 43.5s-35 42 -46 69s-16.5 57.5 -16.5 91.5v448h124v-446
c0 -33.333 8.83301 -59.833 26.5 -79.5s42.5 -29.5 74.5 -29.5s56.833 9.83301 74.5 29.5s26.5 46.167 26.5 79.5v446h124zM174.002 806h240v-85h-240v85z" />
    <glyph glyph-name="umacron" unicode="&#x16b;" horiz-adv-x="511" 
d="M57 490l121.002 0.000976562v-319c0 -22 6 -40.167 18 -54.5s29.667 -21.5 53 -21.5c25.333 0 45.166 8.16699 59.499 24.5s21.5 36.833 21.5 61.5v309h120v-490h-103l-10 47c-12.667 -17.333 -29.334 -31.166 -50.001 -41.499s-44.667 -15.5 -72 -15.5
c-26.667 0 -50 4.33301 -70 13s-36.5 20.667 -49.5 36s-22.667 33.666 -29 54.999s-9.5 44.666 -9.5 69.999v326zM134.002 648.001h240v-85h-240v85z" />
    <glyph glyph-name="Ubreve" unicode="&#x16c;" horiz-adv-x="588" 
d="M519 657l0.00195312 -448c0 -34 -5.5 -64.5 -16.5 -91.5s-26.333 -50 -46 -69s-43.334 -33.5 -71.001 -43.5s-58.167 -15 -91.5 -15s-63.833 5 -91.5 15s-51.334 24.5 -71.001 43.5s-35 42 -46 69s-16.5 57.5 -16.5 91.5v448h124v-446
c0 -33.333 8.83301 -59.833 26.5 -79.5s42.5 -29.5 74.5 -29.5s56.833 9.83301 74.5 29.5s26.5 46.167 26.5 79.5v446h124zM412.002 825v-21c0 -30.667 -10.833 -56.667 -32.5 -78s-50.5 -32 -86.5 -32s-64.667 10.667 -86 32s-32 47.333 -32 78v21h72v-21
c0 -13.333 3.83301 -24.5 11.5 -33.5s19.167 -13.5 34.5 -13.5s27 4.5 35 13.5s12 20.167 12 33.5v21h72z" />
    <glyph glyph-name="ubreve" unicode="&#x16d;" horiz-adv-x="511" 
d="M57 490l121.002 0.000976562v-319c0 -22 6 -40.167 18 -54.5s29.667 -21.5 53 -21.5c25.333 0 45.166 8.16699 59.499 24.5s21.5 36.833 21.5 61.5v309h120v-490h-103l-10 47c-12.667 -17.333 -29.334 -31.166 -50.001 -41.499s-44.667 -15.5 -72 -15.5
c-26.667 0 -50 4.33301 -70 13s-36.5 20.667 -49.5 36s-22.667 33.666 -29 54.999s-9.5 44.666 -9.5 69.999v326zM372.002 673.001v-21c0 -30.667 -10.833 -56.667 -32.5 -78s-50.5 -32 -86.5 -32s-64.667 10.667 -86 32s-32 47.333 -32 78v21h72v-21
c0 -13.333 3.83301 -24.5 11.5 -33.5s19.167 -13.5 34.5 -13.5s27 4.5 35 13.5s12 20.167 12 33.5v21h72z" />
    <glyph glyph-name="Uring" unicode="&#x16e;" horiz-adv-x="588" 
d="M293 734c13.333 0 23.833 4.5 31.5 13.5s11.5 20.167 11.5 33.5s-3.83301 24.166 -11.5 32.499s-18.167 12.5 -31.5 12.5s-23.666 -4.16699 -30.999 -12.5s-11 -19.166 -11 -32.499s3.66699 -24.5 11 -33.5s17.666 -13.5 30.999 -13.5zM293 678
c-32 0 -57.833 9.83301 -77.5 29.5s-29.5 44.167 -29.5 73.5c0 28.667 9.83301 53 29.5 73s45.5 30 77.5 30c32.667 0 59 -10 79 -30s30 -44.333 30 -73c0 -29.333 -10 -53.833 -30 -73.5s-46.333 -29.5 -79 -29.5zM519 657l0.00195312 -448c0 -34 -5.5 -64.5 -16.5 -91.5
s-26.333 -50 -46 -69s-43.334 -33.5 -71.001 -43.5s-58.167 -15 -91.5 -15s-63.833 5 -91.5 15s-51.334 24.5 -71.001 43.5s-35 42 -46 69s-16.5 57.5 -16.5 91.5v448h124v-446c0 -33.333 8.83301 -59.833 26.5 -79.5s42.5 -29.5 74.5 -29.5s56.833 9.83301 74.5 29.5
s26.5 46.167 26.5 79.5v446h124z" />
    <glyph glyph-name="uring" unicode="&#x16f;" horiz-adv-x="511" 
d="M252 584c13.333 0 23.833 4.33301 31.5 13s11.5 19.667 11.5 33s-3.83301 24.166 -11.5 32.499s-18.167 12.5 -31.5 12.5s-23.666 -4.16699 -30.999 -12.5s-11 -19.166 -11 -32.499s3.66699 -24.333 11 -33s17.666 -13 30.999 -13zM252 527c-32 0 -57.833 10 -77.5 30
s-29.5 44.333 -29.5 73s9.83301 53 29.5 73s45.5 30 77.5 30c32.667 0 59 -10 79 -30s30 -44.333 30 -73s-10 -53 -30 -73s-46.333 -30 -79 -30zM57 490l121.002 0.000976562v-319c0 -22 6 -40.167 18 -54.5s29.667 -21.5 53 -21.5c25.333 0 45.166 8.16699 59.499 24.5
s21.5 36.833 21.5 61.5v309h120v-490h-103l-10 47c-12.667 -17.333 -29.334 -31.166 -50.001 -41.499s-44.667 -15.5 -72 -15.5c-26.667 0 -50 4.33301 -70 13s-36.5 20.667 -49.5 36s-22.667 33.666 -29 54.999s-9.5 44.666 -9.5 69.999v326z" />
    <glyph glyph-name="Uhungarumlaut" unicode="&#x170;" horiz-adv-x="588" 
d="M227 694l-46 40l103 136l66 -56zM356 695l-40 45l118 124l57 -63zM519 657l0.00195312 -448c0 -34 -5.5 -64.5 -16.5 -91.5s-26.333 -50 -46 -69s-43.334 -33.5 -71.001 -43.5s-58.167 -15 -91.5 -15s-63.833 5 -91.5 15s-51.334 24.5 -71.001 43.5s-35 42 -46 69
s-16.5 57.5 -16.5 91.5v448h124v-446c0 -33.333 8.83301 -59.833 26.5 -79.5s42.5 -29.5 74.5 -29.5s56.833 9.83301 74.5 29.5s26.5 46.167 26.5 79.5v446h124z" />
    <glyph glyph-name="uhungarumlaut" unicode="&#x171;" horiz-adv-x="511" 
d="M57 490l121.002 0.000976562v-319c0 -22 6 -40.167 18 -54.5s29.667 -21.5 53 -21.5c25.333 0 45.166 8.16699 59.499 24.5s21.5 36.833 21.5 61.5v309h120v-490h-103l-10 47c-12.667 -17.333 -29.334 -31.166 -50.001 -41.499s-44.667 -15.5 -72 -15.5
c-26.667 0 -50 4.33301 -70 13s-36.5 20.667 -49.5 36s-22.667 33.666 -29 54.999s-9.5 44.666 -9.5 69.999v326zM188.002 542.001l-46 39l103 136l66 -55zM317.002 543.001l-40 45l118 124l57 -63z" />
    <glyph glyph-name="Uogonek" unicode="&#x172;" horiz-adv-x="588" 
d="M519 657l0.00292969 -447.999c0 -34.667 -5.83301 -65.834 -17.5 -93.501s-27.834 -51.167 -48.501 -70.5c-19.333 -18.667 -35.5 -38.167 -48.5 -58.5s-19.5 -42.833 -19.5 -67.5c0 -13.333 3.33301 -24 10 -32s17.334 -12 32.001 -12h48v-68h-63
c-33.333 0 -58 8.66699 -74 26s-24 39 -24 65c0 19.333 3.16699 37 9.5 53s14.166 30.667 23.499 44c-18.667 -3.33301 -36.334 -5 -53.001 -5c-33.333 0 -63.833 5 -91.5 15s-51.334 24.5 -71.001 43.5s-35 42 -46 69s-16.5 57.5 -16.5 91.5v448h124v-446
c0 -33.333 8.83301 -59.833 26.5 -79.5s42.5 -29.5 74.5 -29.5s56.833 9.83301 74.5 29.5s26.5 46.167 26.5 79.5v446h124z" />
    <glyph glyph-name="uogonek" unicode="&#x173;" horiz-adv-x="511" 
d="M57 490l121.002 0.00195312v-319c0 -22 6 -40.167 18 -54.5s29.667 -21.5 53 -21.5c25.333 0 45.166 8.16699 59.499 24.5s21.5 36.833 21.5 61.5v309h120v-490h-38c-18.667 -12.667 -34.334 -26.834 -47.001 -42.501s-19 -32.167 -19 -49.5c0 -10 3.33301 -18 10 -24
s17.334 -9 32.001 -9h48v-68h-63c-33.333 0 -58 7.66699 -74 23s-24 34.333 -24 57c0 26 7 48.833 21 68.5s30.667 35.167 50 46.5l-9 45c-12.667 -17.333 -29.334 -31.166 -50.001 -41.499s-44.667 -15.5 -72 -15.5c-26.667 0 -50 4.33301 -70 13s-36.5 20.667 -49.5 36
s-22.667 33.666 -29 54.999s-9.5 44.666 -9.5 69.999v326z" />
    <glyph glyph-name="Wcircumflex" unicode="&#x174;" horiz-adv-x="727" 
d="M390 868l108 -134l-47 -40l-89 78l-87 -77l-46 39l108 134h53zM703 657l-139 -657h-115l-86 445l-85 -445h-114l-139 657h125l77 -440l82 440h115l82 -441l78 441h119z" />
    <glyph glyph-name="wcircumflex" unicode="&#x175;" horiz-adv-x="682" 
d="M368 715l108 -133l-47 -40l-89 77l-87 -76l-46 39l108 133h53zM216 167l77 323h100l77 -323l69 323h124l-136 -490h-110l-76 296l-76 -296h-109l-137 490h128z" />
    <glyph glyph-name="Ycircumflex" unicode="&#x176;" horiz-adv-x="508" 
d="M139 657l118 -271l118 271h126l-185 -391v-266h-124v264l-185 393h132zM281 868l108 -134l-47 -40l-89 78l-87 -77l-46 39l108 134h53z" />
    <glyph glyph-name="ycircumflex" unicode="&#x177;" horiz-adv-x="464" 
d="M118 -187l60 173l-162 504h129l90 -328l91 328h123l-218 -677h-113zM259 715l108 -133l-47 -40l-89 77l-87 -76l-46 39l108 133h53z" />
    <glyph glyph-name="Ydieresis" unicode="&#x178;" horiz-adv-x="508" 
d="M139 657l118 -271l118 271h126l-185 -391v-266h-124v264l-185 393h132zM125 765c0 17.333 5.83301 31.5 17.5 42.5s25.834 16.5 42.501 16.5s30.5 -5.5 41.5 -16.5s16.5 -25.167 16.5 -42.5c0 -16.667 -5.5 -30.834 -16.5 -42.501s-24.833 -17.5 -41.5 -17.5
s-30.834 5.83301 -42.501 17.5s-17.5 25.834 -17.5 42.501zM265 765c0 17.333 5.66699 31.5 17 42.5s25.333 16.5 42 16.5s30.667 -5.5 42 -16.5s17 -25.167 17 -42.5c0 -16.667 -5.66699 -30.834 -17 -42.501s-25.333 -17.5 -42 -17.5s-30.667 5.83301 -42 17.5
s-17 25.834 -17 42.501z" />
    <glyph glyph-name="Zacute" unicode="&#x179;" horiz-adv-x="479" 
d="M45 657h390v-79l-248 -468h254v-110h-405v79l248 468h-239v110zM238 694l-56 48l112 133l76 -71z" />
    <glyph glyph-name="zacute" unicode="&#x17a;" horiz-adv-x="437" 
d="M217 542l-56 49l112 132l76 -71zM43 490h352v-70l-210 -322h215v-98h-365v70l211 321h-203v99z" />
    <glyph glyph-name="Zdotaccent" unicode="&#x17b;" horiz-adv-x="479" 
d="M170 775c0 19.333 6.5 35.5 19.5 48.5s29.167 19.5 48.5 19.5s35.666 -6.5 48.999 -19.5s20 -29.167 20 -48.5s-6.66699 -35.666 -20 -48.999s-29.666 -20 -48.999 -20s-35.5 6.66699 -48.5 20s-19.5 29.666 -19.5 48.999zM45 657h390v-79l-248 -468h254v-110h-405v79
l248 468h-239v110z" />
    <glyph glyph-name="zdotaccent" unicode="&#x17c;" horiz-adv-x="437" 
d="M43 490h352v-70l-210 -322h215v-98h-365v70l211 321h-203v99zM150 614c0 19.333 6.5 35.666 19.5 48.999s29.167 20 48.5 20s35.666 -6.66699 48.999 -20s20 -29.666 20 -48.999s-6.66699 -35.5 -20 -48.5s-29.666 -19.5 -48.999 -19.5s-35.5 6.5 -48.5 19.5
s-19.5 29.167 -19.5 48.5z" />
    <glyph glyph-name="Zcaron" unicode="&#x17d;" horiz-adv-x="479" 
d="M45 657h390v-79l-248 -468h254v-110h-405v79l248 468h-239v110zM213 693l-108 134l48 40l88 -78l88 77l45 -39l-108 -134h-53z" />
    <glyph glyph-name="zcaron" unicode="&#x17e;" horiz-adv-x="437" 
d="M192 542l-108 134l48 40l88 -77l88 76l45 -39l-108 -134h-53zM43 490h352v-70l-210 -322h215v-98h-365v70l211 321h-203v99z" />
    <glyph glyph-name="longs" unicode="&#x17f;" horiz-adv-x="263" 
d="M255 575c-26 0 -44.667 -6 -56 -18s-17 -28.333 -17 -49v-508h-121v501c0 58.667 15.5 102.667 46.5 132s75.833 44 134.5 44h49v-102h-36z" />
    <glyph glyph-name="florin" unicode="&#x192;" horiz-adv-x="416" 
d="M76 380h68.999v105c0 58.667 15.333 102.667 46 132s75.334 44 134.001 44h49v-101h-36c-25.333 0 -43.833 -6 -55.5 -18s-17.5 -28.667 -17.5 -50v-112h104v-101h-104v-290c0 -58.667 -15.5 -102.667 -46.5 -132s-75.833 -44 -134.5 -44h-49v102h36
c26 0 44.833 6 56.5 18s17.5 28.333 17.5 49v297h-69v101z" />
    <glyph glyph-name="uni0218" unicode="&#x218;" horiz-adv-x="533" 
d="M341 -50l-87 -185h-74l38 185h123zM357 459l-0.000976562 19.0059c0 25.333 -8.5 46 -25.5 62s-40.167 24 -69.5 24c-28.667 0 -50.667 -6.83301 -66 -20.5s-23 -31.167 -23 -52.5c0 -13.333 4.33301 -26.833 13 -40.5s25 -24.834 49 -33.501l93 -34
c20.667 -7.33301 40.834 -15.833 60.501 -25.5s37.167 -21.834 52.5 -36.501s27.833 -32.5 37.5 -53.5s14.5 -46.5 14.5 -76.5s-5.33301 -57.333 -16 -82s-25.834 -45.834 -45.501 -63.501s-43.334 -31.334 -71.001 -41.001s-58.5 -14.5 -92.5 -14.5s-65 4.5 -93 13.5
s-52.167 21.833 -72.5 38.5s-36.166 37 -47.499 61s-17 51 -17 81v22h123v-27c0 -26.667 9.16699 -47.5 27.5 -62.5s43.833 -22.5 76.5 -22.5c34.667 0 61 7.83301 79 23.5s27 35.5 27 59.5c0 40 -24 68.667 -72 86l-100 38c-46 17.333 -82 40.166 -108 68.499
s-39 65.833 -39 112.5c0 25.333 4.83301 49.166 14.5 71.499s23.5 42 41.5 59s40 30.333 66 40s55.333 14.5 88 14.5s62.334 -4.5 89.001 -13.5s49.5 -21.833 68.5 -38.5s33.667 -37 44 -61s15.5 -51 15.5 -81v-14h-122z" />
    <glyph glyph-name="uni0219" unicode="&#x219;" horiz-adv-x="451" 
d="M299 -50l-87 -185h-74l38 185h123zM146 156v-19.001c0 -18 7 -32 21 -42s33 -15 57 -15c25.333 0 44.333 4.66699 57 14s19 22.666 19 39.999c0 13.333 -4 24 -12 32s-21 14.667 -39 20l-87 27c-32 10 -59.333 26.167 -82 48.5s-34 53.166 -34 92.499
c0 18.667 4 36.834 12 54.501s19.667 33.334 35 47.001s33.666 24.5 54.999 32.5s45.666 12 72.999 12c56 0 101 -13 135 -39s51 -62 51 -108v-11h-112v14c0 16 -6.16699 29.167 -18.5 39.5s-30.166 15.5 -53.499 15.5c-18.667 0 -34.334 -4.16699 -47.001 -12.5
s-19 -20.166 -19 -35.499c0 -9.33301 3 -18 9 -26s19 -15 39 -21l70 -21c18 -6 35.333 -12.667 52 -20s31.334 -16.833 44.001 -28.5s22.834 -25.667 30.501 -42s11.5 -35.833 11.5 -58.5c0 -23.333 -4.33301 -44.5 -13 -63.5s-21 -35.5 -37 -49.5
s-35.5 -24.833 -58.5 -32.5s-49.167 -11.5 -78.5 -11.5c-28 0 -53.667 3.5 -77 10.5s-43.5 17 -60.5 30s-30.167 29 -39.5 48s-14 40.167 -14 63.5v15h111z" />
    <glyph glyph-name="uni021A" unicode="&#x21a;" horiz-adv-x="476" 
d="M297 -50l-87 -185h-74l38 185h123zM18 657h439v-112h-157v-545h-124v545h-158v112z" />
    <glyph glyph-name="uni021B" unicode="&#x21b;" horiz-adv-x="331" 
d="M225 -50l-87 -185h-74l38 185h123zM24 485h81v134h120v-134h82v-101h-82v-384h-120v384h-81v101z" />
    <glyph glyph-name="uni0237" unicode="&#x237;" horiz-adv-x="243" 
d="M-16 -95c26 0 45.333 6.16699 58 18.5s19 29.5 19 51.5v515h121v-508c0 -60 -16 -104.833 -48 -134.5s-77.333 -44.5 -136 -44.5h-35v102h21z" />
    <glyph glyph-name="circumflex" unicode="&#x2c6;" horiz-adv-x="309" 
d="M181 715l108 -133l-47 -40l-89 77l-87 -76l-46 39l108 133h53z" />
    <glyph glyph-name="caron" unicode="&#x2c7;" horiz-adv-x="309" 
d="M128 542l-108 134l48 40l88 -77l88 76l45 -39l-108 -134h-53z" />
    <glyph glyph-name="uni02C9" unicode="&#x2c9;" horiz-adv-x="280" 
d="M20 649h240v-86h-240v86z" />
    <glyph glyph-name="breve" unicode="&#x2d8;" horiz-adv-x="277" 
d="M257 673v-21c0 -30.667 -10.833 -56.667 -32.5 -78s-50.5 -32 -86.5 -32s-64.667 10.667 -86 32s-32 47.333 -32 78v21h72v-21c0 -13.333 3.83301 -24.5 11.5 -33.5s19.167 -13.5 34.5 -13.5s27 4.5 35 13.5s12 20.167 12 33.5v21h72z" />
    <glyph glyph-name="dotaccent" unicode="&#x2d9;" horiz-adv-x="177" 
d="M20 614c0 19.333 6.5 35.666 19.5 48.999s29.167 20 48.5 20s35.666 -6.66699 48.999 -20s20 -29.666 20 -48.999s-6.66699 -35.5 -20 -48.5s-29.666 -19.5 -48.999 -19.5s-35.5 6.5 -48.5 19.5s-19.5 29.167 -19.5 48.5z" />
    <glyph glyph-name="ring" unicode="&#x2da;" horiz-adv-x="256" 
d="M127 584c13.333 0 23.833 4.33301 31.5 13s11.5 19.667 11.5 33s-3.83301 24.166 -11.5 32.499s-18.167 12.5 -31.5 12.5s-23.666 -4.16699 -30.999 -12.5s-11 -19.166 -11 -32.499s3.66699 -24.333 11 -33s17.666 -13 30.999 -13zM127 527c-32 0 -57.833 10 -77.5 30
s-29.5 44.333 -29.5 73s9.83301 53 29.5 73s45.5 30 77.5 30c32.667 0 59 -10 79 -30s30 -44.333 30 -73s-10 -53 -30 -73s-46.333 -30 -79 -30z" />
    <glyph glyph-name="ogonek" unicode="&#x2db;" horiz-adv-x="265" 
d="M208 -125v-68h-63c-33.333 0 -58 7.66699 -74 23s-24 34.333 -24 57c0 14.667 2.33301 28.334 7 41.001s11 24.167 19 34.5s17.167 19.333 27.5 27s20.833 14.167 31.5 19.5l52 -9c-18.667 -12.667 -34.334 -26.834 -47.001 -42.501s-19 -32.167 -19 -49.5
c0 -10 3.33301 -18 10 -24s17.334 -9 32.001 -9h48z" />
    <glyph glyph-name="tilde" unicode="&#x2dc;" horiz-adv-x="361" 
d="M340 669c0.666992 -5.33301 0.999023 -9.83301 0.999023 -13.5v-11.5c0 -34 -8 -58.667 -24 -74s-36 -23 -60 -23c-10 0 -19.833 1.33301 -29.5 4s-19.167 6.33398 -28.5 11.001l-43 21c-5.33301 2.66699 -10.666 5 -15.999 7s-10.666 3 -15.999 3
c-8.66699 0 -15.5 -2.16699 -20.5 -6.5s-8.83301 -9.16602 -11.5 -14.499s-4.33398 -10.333 -5.00098 -15l-1 -7h-62c-1.33301 3.33301 -2.33301 7.66602 -3 12.999s-1 10.333 -1 15c0 28 8.66699 51 26 69s40 27 68 27c17.333 0 35 -4.33301 53 -13l41 -20
c6 -3.33301 12.5 -6.5 19.5 -9.5s13.5 -4.5 19.5 -4.5c6.66699 0 12 2 16 6s7.16699 8.5 9.5 13.5s3.83301 9.66699 4.5 14s1 7.16602 1 8.49902h62z" />
    <glyph glyph-name="hungarumlaut" unicode="&#x2dd;" horiz-adv-x="350" 
d="M66 542l-46 39l103 136l66 -55zM195 543l-40 45l118 124l57 -63z" />
    <glyph glyph-name="uni0394" unicode="&#x394;" horiz-adv-x="542" 
d="M18 0l187 657h133l187 -657h-507zM172 109h192l-96 371z" />
    <glyph glyph-name="uni03A9" unicode="&#x3a9;" horiz-adv-x="602" 
d="M347 107c19.333 4 34.332 14 44.999 30s16 36 16 60v249c0 33.333 -9.33301 59.833 -28 79.5s-45 29.5 -79 29.5s-60.333 -9.83301 -79 -29.5s-28 -46.167 -28 -79.5v-249c0 -24 5.33301 -44 16 -60s25.667 -26 45 -30v-107h-210v82h94c-46 28.667 -69 79.667 -69 153
v213c0 68 19.833 121.5 59.5 160.5s96.834 58.5 171.501 58.5s132 -19.5 172 -58.5s60 -92.5 60 -160.5v-213c0 -36.667 -6 -67.667 -18 -93s-29.333 -45.333 -52 -60h95v-82h-211v107z" />
    <glyph glyph-name="uni03BC" unicode="&#x3bc;" horiz-adv-x="515" 
d="M61 490l120 -0.000976562v-319c0 -22 6.16699 -40.167 18.5 -54.5s30.166 -21.5 53.499 -21.5c24 0 43 7.66699 57 23s21.667 35 23 59v313h121v-490h-104l-9 47c-13.333 -17.333 -30.166 -31.166 -50.499 -41.499s-44.5 -15.5 -72.5 -15.5c-8.66699 0 -16.5 1 -23.5 3
s-13.167 4.66699 -18.5 8l5 -144v-44h-120v677z" />
    <glyph glyph-name="pi" unicode="&#x3c0;" horiz-adv-x="625" 
d="M24 490h578v-105h-76v-385h-121v385h-184v-385h-121v385h-76v105z" />
    <glyph glyph-name="Wgrave" unicode="&#x1e80;" horiz-adv-x="727" 
d="M232 804l76 71l112 -133l-56 -48zM703 657l-139 -657h-115l-86 445l-85 -445h-114l-139 657h125l77 -440l82 440h115l82 -441l78 441h119z" />
    <glyph glyph-name="wgrave" unicode="&#x1e81;" horiz-adv-x="682" 
d="M216 167l77 323h100l77 -323l69 323h124l-136 -490h-110l-76 296l-76 -296h-109l-137 490h128zM208 652l76 71l112 -132l-56 -49z" />
    <glyph glyph-name="Wacute" unicode="&#x1e82;" horiz-adv-x="727" 
d="M364 694l-56 48l112 133l76 -71zM703 657l-139 -657h-115l-86 445l-85 -445h-114l-139 657h125l77 -440l82 440h115l82 -441l78 441h119z" />
    <glyph glyph-name="wacute" unicode="&#x1e83;" horiz-adv-x="682" 
d="M341 542l-56 49l112 132l76 -71zM216 167l77 323h100l77 -323l69 323h124l-136 -490h-110l-76 296l-76 -296h-109l-137 490h128z" />
    <glyph glyph-name="Wdieresis" unicode="&#x1e84;" horiz-adv-x="727" 
d="M703 657l-139 -657h-115l-86 445l-85 -445h-114l-139 657h125l77 -440l82 440h115l82 -441l78 441h119zM234 765c0 17.333 5.83301 31.5 17.5 42.5s25.834 16.5 42.501 16.5s30.5 -5.5 41.5 -16.5s16.5 -25.167 16.5 -42.5c0 -16.667 -5.5 -30.834 -16.5 -42.501
s-24.833 -17.5 -41.5 -17.5s-30.834 5.83301 -42.501 17.5s-17.5 25.834 -17.5 42.501zM374 765c0 17.333 5.66699 31.5 17 42.5s25.333 16.5 42 16.5s30.667 -5.5 42 -16.5s17 -25.167 17 -42.5c0 -16.667 -5.66699 -30.834 -17 -42.501s-25.333 -17.5 -42 -17.5
s-30.667 5.83301 -42 17.5s-17 25.834 -17 42.501z" />
    <glyph glyph-name="wdieresis" unicode="&#x1e85;" horiz-adv-x="682" 
d="M212 612c0 16.667 5.83301 30.5 17.5 41.5s25.834 16.5 42.501 16.5s30.5 -5.5 41.5 -16.5s16.5 -24.833 16.5 -41.5s-5.5 -31 -16.5 -43s-24.833 -18 -41.5 -18s-30.834 6 -42.501 18s-17.5 26.333 -17.5 43zM352 612c0 16.667 5.66699 30.5 17 41.5
s25.333 16.5 42 16.5s30.667 -5.5 42 -16.5s17 -24.833 17 -41.5s-5.66699 -31 -17 -43s-25.333 -18 -42 -18s-30.667 6 -42 18s-17 26.333 -17 43zM216 167l77 323h100l77 -323l69 323h124l-136 -490h-110l-76 296l-76 -296h-109l-137 490h128z" />
    <glyph glyph-name="endash" unicode="&#x2013;" horiz-adv-x="531" 
d="M59 305h413v-88h-413v88z" />
    <glyph glyph-name="emdash" unicode="&#x2014;" horiz-adv-x="799" 
d="M59 305h681v-88h-681v88z" />
    <glyph glyph-name="quoteleft" unicode="&#x2018;" horiz-adv-x="243" 
d="M35 445l96 212h74l-46 -212h-124z" />
    <glyph glyph-name="quoteright" unicode="&#x2019;" horiz-adv-x="238" 
d="M212 657l-95 -212h-74l46 212h123z" />
    <glyph glyph-name="quotesinglbase" unicode="&#x201a;" horiz-adv-x="241" 
d="M195 118l-96 -212h-74l46 212h124z" />
    <glyph glyph-name="quotedblleft" unicode="&#x201c;" horiz-adv-x="399" 
d="M193 445l96 212h73l-47 -212h-122zM35 445l111 212h72l-61 -212h-122z" />
    <glyph glyph-name="quotedblright" unicode="&#x201d;" horiz-adv-x="393" 
d="M211 657l-96 -212h-72l46 212h122zM370 657l-112 -212h-72l62 212h122z" />
    <glyph glyph-name="quotedblbase" unicode="&#x201e;" horiz-adv-x="398" 
d="M194 118l-96 -212h-73l46 212h123zM352 118l-111 -212h-72l61 212h122z" />
    <glyph glyph-name="dagger" unicode="&#x2020;" horiz-adv-x="426" 
d="M261 490h131v-79h-142l21 -421v-101h-116v101l20 421h-141v79h130l-9 66v101h116v-101z" />
    <glyph glyph-name="daggerdbl" unicode="&#x2021;" horiz-adv-x="447" 
d="M276 490h126v-79h-132l-10 -138l10 -138h132v-79h-126l5 -66v-101h-115v101l4 66h-125v79h132l9 138l-9 138h-132v79h125l-4 66v101h115v-101z" />
    <glyph glyph-name="bullet" unicode="&#x2022;" horiz-adv-x="354" 
d="M66 274c0 15.333 2.83301 29.833 8.5 43.5s13.5 25.5 23.5 35.5s21.667 18 35 24s27.666 9 42.999 9s29.833 -3 43.5 -9s25.5 -14 35.5 -24s18 -21.833 24 -35.5s9 -28.167 9 -43.5s-3 -29.666 -9 -42.999s-14 -25 -24 -35s-21.833 -17.833 -35.5 -23.5
s-28.167 -8.5 -43.5 -8.5s-29.666 2.83301 -42.999 8.5s-25 13.5 -35 23.5s-17.833 21.667 -23.5 35s-8.5 27.666 -8.5 42.999z" />
    <glyph glyph-name="ellipsis" unicode="&#x2026;" horiz-adv-x="652" 
d="M47 58c0 19.333 6.5 35.666 19.5 48.999s29.167 20 48.5 20s35.666 -6.66699 48.999 -20s20 -29.666 20 -48.999s-6.66699 -35.5 -20 -48.5s-29.666 -19.5 -48.999 -19.5s-35.5 6.5 -48.5 19.5s-19.5 29.167 -19.5 48.5zM257 58c0 19.333 6.66699 35.666 20 48.999
s29.666 20 48.999 20s35.5 -6.66699 48.5 -20s19.5 -29.666 19.5 -48.999s-6.5 -35.5 -19.5 -48.5s-29.167 -19.5 -48.5 -19.5s-35.666 6.5 -48.999 19.5s-20 29.167 -20 48.5zM468 58c0 19.333 6.5 35.666 19.5 48.999s29.167 20 48.5 20s35.666 -6.66699 48.999 -20
s20 -29.666 20 -48.999s-6.66699 -35.5 -20 -48.5s-29.666 -19.5 -48.999 -19.5s-35.5 6.5 -48.5 19.5s-19.5 29.167 -19.5 48.5z" />
    <glyph glyph-name="perthousand" unicode="&#x2030;" horiz-adv-x="930" 
d="M125 447c0 -13.333 3.66699 -24.333 11 -33s17.666 -13 30.999 -13s23.5 4.33301 30.5 13s10.5 19.667 10.5 33v101c0 13.333 -3.5 24.333 -10.5 33s-17.167 13 -30.5 13s-23.666 -4.33301 -30.999 -13s-11 -19.667 -11 -33v-101zM290 445c0 -34 -10.667 -62 -32 -84
s-51.666 -33 -90.999 -33c-40 0 -70.5 11 -91.5 33s-31.5 50 -31.5 84v105c0 34 10.5 62 31.5 84s51.5 33 91.5 33c39.333 0 69.666 -11 90.999 -33s32 -50 32 -84v-105zM463 657h94l-192 -329l-183 -328h-93l192 330zM437 109c0 -13.333 3.5 -24.333 10.5 -33
s17.167 -13 30.5 -13s23.5 4.33301 30.5 13s10.5 19.667 10.5 33v101c0 13.333 -3.5 24.333 -10.5 33s-17.167 13 -30.5 13s-23.5 -4.33301 -30.5 -13s-10.5 -19.667 -10.5 -33v-101zM601 107c0 -34 -10.5 -62 -31.5 -84s-51.5 -33 -91.5 -33s-70.5 11 -91.5 33
s-31.5 50 -31.5 84v105c0 34 10.5 62 31.5 84s51.5 33 91.5 33s70.5 -11 91.5 -33s31.5 -50 31.5 -84v-105zM727 109c0 -13.333 3.5 -24.333 10.5 -33s17.167 -13 30.5 -13s23.5 4.33301 30.5 13s10.5 19.667 10.5 33v101c0 13.333 -3.5 24.333 -10.5 33
s-17.167 13 -30.5 13s-23.5 -4.33301 -30.5 -13s-10.5 -19.667 -10.5 -33v-101zM891 107c0 -34 -10.5 -62 -31.5 -84s-51.5 -33 -91.5 -33s-70.5 11 -91.5 33s-31.5 50 -31.5 84v105c0 34 10.5 62 31.5 84s51.5 33 91.5 33s70.5 -11 91.5 -33s31.5 -50 31.5 -84v-105z" />
    <glyph glyph-name="guilsinglleft" unicode="&#x2039;" horiz-adv-x="269" 
d="M121 398h99l-65 -165l65 -165h-99l-78 165z" />
    <glyph glyph-name="guilsinglright" unicode="&#x203a;" horiz-adv-x="269" 
d="M226 233l-78 -165h-99l65 165l-65 165h99z" />
    <glyph glyph-name="fraction" unicode="&#x2044;" horiz-adv-x="147" 
d="M214 657h94l-192 -329l-183 -328h-93l192 330z" />
    <glyph glyph-name="uni2070" unicode="&#x2070;" horiz-adv-x="297" 
d="M116 584c0 -11.333 3 -20.333 9 -27s14 -10 24 -10c22 0 33 12.333 33 37v120c0 24.667 -11 37 -33 37c-10 0 -18 -3.16699 -24 -9.5s-9 -15.5 -9 -27.5v-120zM263 583c0 -34 -10.5 -60.5 -31.5 -79.5s-48.5 -28.5 -82.5 -28.5s-61.5 9.5 -82.5 28.5
s-31.5 45.5 -31.5 79.5v122c0 34 9.5 60.5 28.5 79.5s47.5 28.5 85.5 28.5c34 0 61.5 -9.5 82.5 -28.5s31.5 -45.5 31.5 -79.5v-122z" />
    <glyph glyph-name="uni2074" unicode="&#x2074;" horiz-adv-x="305" 
d="M245 808v-197h34v-67h-34v-64h-81v64h-144v77l132 187h93zM164 611v102l-72 -102h72z" />
    <glyph glyph-name="uni2075" unicode="&#x2075;" horiz-adv-x="284" 
d="M241 739l-130.999 0.00195312v-62c12 10 29.333 15 52 15c28 0 51 -9 69 -27s27 -44.333 27 -79s-10.5 -61.834 -31.5 -81.501s-48.5 -29.5 -82.5 -29.5s-61.333 8 -82 24s-31 38 -31 66v8h78v-5c0 -17.333 10.667 -26 32 -26c11.333 0 19.666 3.66699 24.999 11
s8 17.666 8 30.999c0 29.333 -10.667 44 -32 44c-8.66699 0 -15.5 -1.83301 -20.5 -5.5s-9.5 -7.16699 -13.5 -10.5h-70v196h203v-69z" />
    <glyph glyph-name="uni2076" unicode="&#x2076;" horiz-adv-x="291" 
d="M262 579c0 -34.667 -10.332 -60.667 -30.999 -78s-48 -26 -82 -26s-61.5 8.66699 -82.5 26s-31.5 43 -31.5 77v121c0 35.333 9.66699 63.166 29 83.499s47.666 30.5 84.999 30.5c33.333 0 59.833 -8.33301 79.5 -25s29.5 -40 29.5 -70v-4h-78v2
c0 8.66699 -2.66699 15.5 -8 20.5s-12.333 7.5 -21 7.5c-23.333 0 -35 -12.667 -35 -38v-38c14 8.66699 30.333 13 49 13c29.333 0 52.833 -8.66699 70.5 -26s26.5 -42.666 26.5 -75.999zM148.001 617c-7.33301 0 -13.668 -1.16699 -19.001 -3.5
s-9.66602 -4.83301 -12.999 -7.5v-26c0 -14.667 3 -24.667 9 -30s13.667 -8 23 -8c20.667 0 31 11.667 31 35c0 26.667 -10.333 40 -31 40z" />
    <glyph glyph-name="uni2077" unicode="&#x2077;" horiz-adv-x="248" 
d="M20 808h210v-61l-103 -267h-87l102 259h-122v69z" />
    <glyph glyph-name="uni2078" unicode="&#x2078;" horiz-adv-x="286" 
d="M249 720c0 -18.667 -3.33301 -33.499 -10 -44.499s-14.667 -19.5 -24 -25.5c11.333 -5.33301 21 -14.166 29 -26.499s12 -29.166 12 -50.499c0 -29.333 -10.167 -53 -30.5 -71s-47.833 -27 -82.5 -27s-62.167 9 -82.5 27s-30.5 41.667 -30.5 71
c0 21.333 3.83301 38.166 11.5 50.499s17.167 21.166 28.5 26.499c-10 5.33301 -18.333 13.666 -25 24.999s-10 26.333 -10 45c0 27.333 9.5 49.666 28.5 66.999s45.5 26 79.5 26c33.333 0 59.333 -8.66699 78 -26s28 -39.666 28 -66.999zM112 578.001
c0 -26 10.333 -39 31 -39s31 13 31 39c0 26.667 -10.667 40 -32 40c-20 0 -30 -13.333 -30 -40zM115 713.001c0 -24.667 9.33301 -37 28 -37c17.333 0 26 12.333 26 37c0 22 -9 33 -27 33s-27 -11 -27 -33z" />
    <glyph glyph-name="uni2079" unicode="&#x2079;" horiz-adv-x="289" 
d="M28 709c0 34 10.499 59.8311 31.499 77.498s48.5 26.5 82.5 26.5s61.333 -9.33301 82 -28s31 -47.667 31 -87v-109c0 -35.333 -9.66699 -63.166 -29 -83.499s-47.666 -30.5 -84.999 -30.5c-34 0 -60.667 8.33301 -80 25s-29 40 -29 70v4h78v-2
c0 -8.66699 2.66699 -15.5 8 -20.5s12.333 -7.5 21 -7.5c23.333 0 35 12.667 35 38v38c-14 -8.66699 -30.333 -13 -49 -13c-30 0 -53.667 8.83301 -71 26.5s-26 42.834 -26 75.501zM141.999 670.998c7.33301 0 13.5 1.16797 18.5 3.50098s9.5 5.16602 13.5 8.49902v13
c0 19.333 -2.83301 32.5 -8.5 39.5s-13.167 10.5 -22.5 10.5c-21.333 0 -32 -11.667 -32 -35c0 -26.667 10.333 -40 31 -40z" />
    <glyph glyph-name="uni207D" unicode="&#x207d;" horiz-adv-x="186" 
d="M160 496v-72h-5c-39.333 0 -69.166 10.5 -89.499 31.5s-30.5 49.5 -30.5 85.5v205c0 36 10.167 64.333 30.5 85s50.166 31 89.499 31h5v-72h-5c-11.333 0 -20.666 -3.5 -27.999 -10.5s-11 -17.167 -11 -30.5v-212c0 -13.333 3.66699 -23.5 11 -30.5
s16.666 -10.5 27.999 -10.5h5z" />
    <glyph glyph-name="uni207E" unicode="&#x207e;" horiz-adv-x="186" 
d="M31 496c11.333 0 20.666 3.5 27.999 10.5s11 17.167 11 30.5v212c0 13.333 -3.66699 23.5 -11 30.5s-16.666 10.5 -27.999 10.5h-5v72h5c40 0 70 -10.333 90 -31s30 -49 30 -85v-205c0 -36 -10 -64.5 -30 -85.5s-50 -31.5 -90 -31.5h-5v72h5z" />
    <glyph glyph-name="uni2080" unicode="&#x2080;" horiz-adv-x="300" 
d="M118 -48c0 -24.667 10.667 -37 32 -37c22 0 33 12.333 33 37v120c0 24.667 -11 37 -33 37c-21.333 0 -32 -12.333 -32 -37v-120zM264 -49c0 -34 -10.5 -60.5 -31.5 -79.5s-48.5 -28.5 -82.5 -28.5s-61.333 9.5 -82 28.5s-31 45.5 -31 79.5v122c0 34 9.33301 60.5 28 79.5
s47 28.5 85 28.5c34 0 61.5 -9.5 82.5 -28.5s31.5 -45.5 31.5 -79.5v-122z" />
    <glyph glyph-name="uni2081" unicode="&#x2081;" horiz-adv-x="241" 
d="M31 176h136v-259h57v-69h-193v69h55v188h-55v71z" />
    <glyph glyph-name="uni2082" unicode="&#x2082;" horiz-adv-x="290" 
d="M30 -113c0 6 0.332031 13.1699 0.999023 21.5029s2.5 17.166 5.5 26.499s7.5 18.333 13.5 27s14.333 16.667 25 24l64 41c8.66699 5.33301 16.5 12.166 23.5 20.499s10.5 19.166 10.5 32.499c0 19.333 -9.66699 29 -29 29c-21.333 0 -32 -10.667 -32 -32v-8h-79v10
c0 29.333 10.333 53.666 31 72.999s48.334 29 83.001 29c34 0 60.833 -8.66699 80.5 -26s29.5 -41 29.5 -71c0 -26 -5.5 -47.333 -16.5 -64s-27.167 -32 -48.5 -46l-51 -32c-5.33301 -3.33301 -9.5 -7.16602 -12.5 -11.499s-4.5 -7.5 -4.5 -9.5h133v-73h-227v39z" />
    <glyph glyph-name="uni2083" unicode="&#x2083;" horiz-adv-x="286" 
d="M112 45h20c13.333 0 22.666 2.33301 27.999 7s8 13 8 25c0 21.333 -9.66699 32 -29 32c-9.33301 0 -16.666 -2.83301 -21.999 -8.5s-8 -13.834 -8 -24.501v-5h-79v7c0 28.667 10.167 53 30.5 73s47.5 30 81.5 30s60.333 -8.66699 79 -26s28 -39.666 28 -66.999
c0 -17.333 -3.16699 -31.833 -9.5 -43.5s-14.5 -20.5 -24.5 -26.5c11.333 -6 20.666 -15.333 27.999 -28s11 -28.667 11 -48c0 -30 -10.167 -54 -30.5 -72s-48.166 -27 -83.499 -27c-34.667 0 -62 9.33301 -82 28s-30 43.667 -30 75v8h79v-6c0 -24 10.333 -36 31 -36
c22.667 0 34 12.667 34 38c0 13.333 -3.5 22.333 -10.5 27s-16.833 7 -29.5 7h-20v61z" />
    <glyph glyph-name="uni2084" unicode="&#x2084;" horiz-adv-x="306" 
d="M245 176v-197h35v-67h-35v-64h-80v64h-145v77l132 187h93zM165 -21v102l-72 -102h72z" />
    <glyph glyph-name="uni2085" unicode="&#x2085;" horiz-adv-x="286" 
d="M242 107l-130.999 0.00195312v-62c12 10 29 15 51 15c28 0 51.167 -9 69.5 -27s27.5 -44.333 27.5 -79s-10.5 -61.834 -31.5 -81.501s-48.5 -29.5 -82.5 -29.5s-61.333 8 -82 24s-31 38 -31 66v8h78v-5c0 -17.333 10.667 -26 32 -26c11.333 0 19.666 3.66699 24.999 11
s8 17.666 8 30.999c0 29.333 -10.667 44 -32 44c-8.66699 0 -15.5 -1.83301 -20.5 -5.5s-9.5 -7.16699 -13.5 -10.5h-70v196h203v-69z" />
    <glyph glyph-name="uni2086" unicode="&#x2086;" horiz-adv-x="293" 
d="M264 -53c0 -34.667 -10.332 -60.667 -30.999 -78s-48 -26 -82 -26s-61.5 8.66699 -82.5 26s-31.5 43 -31.5 77v121c0 35.333 9.66699 63.166 29 83.499s47.666 30.5 84.999 30.5c33.333 0 59.833 -8.33301 79.5 -25s29.5 -40 29.5 -70v-4h-79v2
c0 18.667 -9.33301 28 -28 28c-23.333 0 -35 -12.667 -35 -38v-38c12.667 8.66699 29 13 49 13c29.333 0 52.833 -8.66699 70.5 -26s26.5 -42.666 26.5 -75.999zM149.001 -15c-7.33301 0 -13.5 -1.16699 -18.5 -3.5s-9.16699 -4.83301 -12.5 -7.5v-26
c0 -14.667 2.83301 -24.667 8.5 -30s13.167 -8 22.5 -8c21.333 0 32 11.667 32 35c0 26.667 -10.667 40 -32 40z" />
    <glyph glyph-name="uni2087" unicode="&#x2087;" horiz-adv-x="249" 
d="M21 176h210v-61l-103 -267h-87l101 259h-121v69z" />
    <glyph glyph-name="uni2088" unicode="&#x2088;" horiz-adv-x="289" 
d="M250 88c0 -18.667 -3.16699 -33.499 -9.5 -44.499s-14.5 -19.5 -24.5 -25.5c12 -5.33301 21.833 -14.166 29.5 -26.499s11.5 -29.166 11.5 -50.499c0 -29.333 -10.167 -53 -30.5 -71s-47.833 -27 -82.5 -27s-62 9 -82 27s-30 41.667 -30 71
c0 21.333 3.66699 38.166 11 50.499s17 21.166 29 26.499c-10.667 5.33301 -19.167 13.666 -25.5 24.999s-9.5 26.333 -9.5 45c0 27.333 9.33301 49.666 28 66.999s45 26 79 26c33.333 0 59.333 -8.66699 78 -26s28 -39.666 28 -66.999zM114 -53.999
c0 -26.667 10 -40 30 -40c20.667 0 31 13.333 31 40s-10.333 40 -31 40c-20 0 -30 -13.333 -30 -40zM117 81.001c0 -24.667 9 -37 27 -37c17.333 0 26 12.333 26 37c0 22 -8.66699 33 -26 33c-18 0 -27 -11 -27 -33z" />
    <glyph glyph-name="uni2089" unicode="&#x2089;" horiz-adv-x="292" 
d="M29 77c0 34 10.332 59.8311 30.999 77.498s48 26.5 82 26.5s61.5 -9.33301 82.5 -28s31.5 -47.667 31.5 -87v-109c0 -35.333 -9.66699 -63.166 -29 -83.499s-48 -30.5 -86 -30.5c-33.333 0 -59.666 8.33301 -78.999 25s-29 40 -29 70v4h78v-2
c0 -8.66699 2.66699 -15.5 8 -20.5s12.333 -7.5 21 -7.5c23.333 0 35 12.667 35 38v38c-14 -8.66699 -30.333 -13 -49 -13c-30 0 -53.667 8.83301 -71 26.5s-26 42.834 -26 75.501zM142.999 38.998c7.33301 0 13.5 1.16797 18.5 3.50098s9.5 5.16602 13.5 8.49902v13
c0 19.333 -2.83301 32.5 -8.5 39.5s-13.167 10.5 -22.5 10.5c-21.333 0 -32 -11.667 -32 -35c0 -26.667 10.333 -40 31 -40z" />
    <glyph glyph-name="uni208D" unicode="&#x208d;" horiz-adv-x="189" 
d="M162 -136v-72h-5c-40 0 -70 10.5 -90 31.5s-30 49.5 -30 85.5v205c0 36 10 64.333 30 85s50 31 90 31h5v-72h-5c-11.333 0 -20.666 -3.5 -27.999 -10.5s-11 -17.167 -11 -30.5v-212c0 -13.333 3.66699 -23.5 11 -30.5s16.666 -10.5 27.999 -10.5h5z" />
    <glyph glyph-name="uni208E" unicode="&#x208e;" horiz-adv-x="189" 
d="M32 -136c11.333 0 20.666 3.5 27.999 10.5s11 17.167 11 30.5v212c0 13.333 -3.66699 23.5 -11 30.5s-16.666 10.5 -27.999 10.5h-5v72h5c40 0 70 -10.333 90 -31s30 -49 30 -85v-205c0 -36 -10 -64.5 -30 -85.5s-50 -31.5 -90 -31.5h-5v72h5z" />
    <glyph glyph-name="franc" unicode="&#x20a3;" horiz-adv-x="546" 
d="M111 657h400v-112h-275v-112h157v-90h-157v-57h157v-90h-157v-196h-125v196h-60v90h60v57h-60v90h60v224z" />
    <glyph glyph-name="lira" unicode="&#x20a4;" horiz-adv-x="567" 
d="M234 109l285.998 0.000976562v-109h-470v109h60v81h-60v74h60v57h-60v74h60v67c0 31.333 5 59.666 15 84.999s24.167 46.833 42.5 64.5s40 31.334 65 41.001s52.5 14.5 82.5 14.5s57.333 -4.66699 82 -14s45.834 -22.833 63.501 -40.5s31.334 -39 41.001 -64
s14.5 -52.833 14.5 -83.5v-24h-120v23c0 28 -7 50.333 -21 67s-33.667 25 -59 25c-26.667 0 -47 -8.83301 -61 -26.5s-21 -40.834 -21 -69.501v-65h127v-74h-127v-57h127v-74h-127v-81z" />
    <glyph glyph-name="peseta" unicode="&#x20a7;" horiz-adv-x="1276" 
d="M75 657l228 -0.00195312c32.667 0 63 -5.16699 91 -15.5s52.167 -24.666 72.5 -42.999s36.166 -40.666 47.499 -66.999s17 -55.5 17 -87.5c0 -34 -5.66699 -64.5 -17 -91.5s-27.166 -50 -47.499 -69s-44.5 -33.667 -72.5 -44s-58.333 -15.5 -91 -15.5h-104v-224h-124v657
zM199 547.998v-214.999h94c34 0 61 9.66699 81 29s30 45.666 30 78.999c0 32.667 -10 58.667 -30 78s-47 29 -81 29h-94zM565 484.999h80v134h120v-134h83v-101h-83v-384h-120v384h-80v101zM966 155.999l-0.00195312 -19.002c0 -18 6.83301 -32 20.5 -42
s32.834 -15 57.501 -15c25.333 0 44.166 4.66699 56.499 14s18.5 22.666 18.5 39.999c0 13.333 -3.83301 24 -11.5 32s-20.834 14.667 -39.501 20l-86 27c-16 4.66699 -31.167 11 -45.5 19s-26.666 17.833 -36.999 29.5s-18.666 25 -24.999 40s-9.5 32.5 -9.5 52.5
c0 18.667 4 36.834 12 54.501s19.667 33.334 35 47.001s33.833 24.5 55.5 32.5s46.167 12 73.5 12c56 0 101 -13 135 -39s51 -62 51 -108v-11h-112v14c0 16 -6.33301 29.167 -19 39.5s-30.667 15.5 -54 15.5c-18 0 -33.333 -4.16699 -46 -12.5s-19 -20.166 -19 -35.499
c0 -9.33301 3 -18 9 -26s18.667 -15 38 -21l71 -21c18 -6 35.333 -12.667 52 -20s31.334 -16.833 44.001 -28.5s22.667 -25.667 30 -42s11 -35.833 11 -58.5c0 -46 -16.5 -83.667 -49.5 -113s-78.5 -44 -136.5 -44c-28 0 -53.833 3.5 -77.5 10.5s-44 17 -61 30
s-30.167 29 -39.5 48s-14 40.167 -14 63.5v15h112z" />
    <glyph glyph-name="Euro" unicode="&#x20ac;" horiz-adv-x="589" 
d="M41 433h62v9c0 70 19.333 125 58 165s93.667 60 165 60c32 0 61.167 -5 87.5 -15s48.833 -24.167 67.5 -42.5s33.167 -40.5 43.5 -66.5s15.5 -55.333 15.5 -88v-16h-116v18c0 31.333 -8.83301 56.333 -26.5 75s-42.5 28 -74.5 28c-31.333 0 -55.833 -10 -73.5 -30
s-26.5 -46.667 -26.5 -80v-17h117v-74h-117v-57h117v-74h-117v-21c0 -33.333 8.83301 -60 26.5 -80s42.167 -30 73.5 -30c32 0 56.833 9.33301 74.5 28s26.5 43.667 26.5 75v21h116v-19c0 -32.667 -5.33301 -62 -16 -88s-25.5 -48.167 -44.5 -66.5s-41.667 -32.5 -68 -42.5
s-55.5 -15 -87.5 -15c-33.333 0 -63.5 5.33301 -90.5 16s-50.167 25.667 -69.5 45s-34.333 43 -45 71s-16 59.333 -16 94v12h-62v74h62v57h-62v74z" />
    <glyph glyph-name="uni2113" unicode="&#x2113;" horiz-adv-x="486" 
d="M22 249l93 64.999v185c0 54.667 15 97.5 45 128.5s71.667 46.5 125 46.5c28.667 0 53.5 -4.33301 74.5 -13s38.5 -20 52.5 -34s24.5 -30.167 31.5 -48.5s10.5 -37.166 10.5 -56.499c0 -38 -9.33301 -70.667 -28 -98s-42.667 -51.333 -72 -72l-119 -84v-96
c0 -22 6.33301 -39.167 19 -51.5s32 -18.5 58 -18.5h122v-102h-135c-59.333 -0 -104.833 14.833 -136.5 44.5s-47.5 74.5 -47.5 134.5v4l-35 -24zM235 397.999l52 36.999c19.333 13.333 33.5 26.5 42.5 39.5s13.5 28.5 13.5 46.5c0 14 -4.33301 26.333 -13 37
s-21.667 16 -39 16c-18.667 0 -32.667 -6.66699 -42 -20s-14 -31.666 -14 -54.999v-101z" />
    <glyph glyph-name="trademark" unicode="&#x2122;" horiz-adv-x="797" 
d="M526 376l-65 110v-197h-80v368h75l100 -175l98 175h75v-368h-83v203l-70 -116h-50zM59 657h284v-79h-95v-289h-93v289h-96v79z" />
    <glyph glyph-name="Omega" unicode="&#x2126;" horiz-adv-x="605" 
d="M349 107c19.333 4 34.167 14 44.5 30s15.5 36 15.5 60v249c0 33.333 -9.33301 59.833 -28 79.5s-45 29.5 -79 29.5s-60.167 -9.83301 -78.5 -29.5s-27.5 -46.167 -27.5 -79.5v-249c0 -24 5.16699 -44 15.5 -60s25.166 -26 44.499 -30v-107h-210v82h94
c-46 29.333 -69 80.333 -69 153v213c0 68 19.833 121.5 59.5 160.5s96.834 58.5 171.501 58.5s132 -19.5 172 -58.5s60 -92.5 60 -160.5v-213c0 -36.667 -6 -67.667 -18 -93s-29.333 -45.333 -52 -60h95v-82h-210v107z" />
    <glyph glyph-name="estimated" unicode="&#x212e;" horiz-adv-x="760" 
d="M668 142c-30 -46 -70.166 -83 -120.499 -111s-105.5 -42 -165.5 -42c-47.333 0 -91.5 8.83301 -132.5 26.5s-76.833 41.667 -107.5 72s-54.834 66 -72.501 107s-26.5 85.167 -26.5 132.5c0 46.667 8.83301 90.667 26.5 132s42 77.5 73 108.5s67 55.333 108 73
s85.167 26.5 132.5 26.5c46.667 0 90.667 -8.83301 132 -26.5s77.5 -42 108.5 -73s55.333 -67.167 73 -108.5s26.5 -85.333 26.5 -132v-8h-529v-191c24.667 -23.333 53 -41.833 85 -55.5s66.333 -20.5 103 -20.5c40 0 77.5 8 112.5 24s65.167 38 90.5 66h83zM383.001 604
c-37.333 0 -72 -7 -104 -21s-60.333 -33 -85 -57v-146h378v145c-25.333 24.667 -54 44 -86 58s-66.333 21 -103 21z" />
    <glyph glyph-name="onethird" unicode="&#x2153;" horiz-adv-x="666" 
d="M483 657h93l-191 -329l-183 -328h-94l193 330zM46 657h136v-259h57v-69h-193v69h55v188h-55v71zM483 197h20.002c13.333 0 22.666 2.33301 27.999 7s8 13 8 25c0 21.333 -9.66699 32 -29 32c-9.33301 0 -16.833 -2.83301 -22.5 -8.5s-8.5 -13.834 -8.5 -24.501v-5h-78v7
c0 28.667 10 53 30 73s47 30 81 30s60.5 -8.66699 79.5 -26s28.5 -39.666 28.5 -66.999c0 -17.333 -3.16699 -31.833 -9.5 -43.5s-14.5 -20.5 -24.5 -26.5c11.333 -6 20.666 -15.333 27.999 -28s11 -28.667 11 -48c0 -30 -10.167 -54 -30.5 -72s-48.166 -27 -83.499 -27
c-34.667 0 -62 9.33301 -82 28s-30 43.667 -30 75v8h78v-6c0 -24 10.667 -36 32 -36c22 0 33 12.667 33 38c0 13.333 -3.33301 22.333 -10 27s-16.334 7 -29.001 7h-20v61z" />
    <glyph glyph-name="twothirds" unicode="&#x2154;" horiz-adv-x="695" 
d="M512 657h93l-191 -329l-183 -328h-94l193 330zM512 197h20.001c13.333 0 22.666 2.33301 27.999 7s8 13 8 25c0 21.333 -9.66699 32 -29 32c-9.33301 0 -16.833 -2.83301 -22.5 -8.5s-8.5 -13.834 -8.5 -24.501v-5h-78v7c0 28.667 10 53 30 73s47 30 81 30
s60.5 -8.66699 79.5 -26s28.5 -39.666 28.5 -66.999c0 -17.333 -3.16699 -31.833 -9.5 -43.5s-14.5 -20.5 -24.5 -26.5c11.333 -6 20.666 -15.333 27.999 -28s11 -28.667 11 -48c0 -30 -10.167 -54 -30.5 -72s-48.166 -27 -83.499 -27c-34.667 0 -62 9.33301 -82 28
s-30 43.667 -30 75v8h78v-6c0 -24 10.667 -36 32 -36c22 0 33 12.667 33 38c0 13.333 -3.5 22.333 -10.5 27s-16.5 7 -28.5 7h-20v61zM43.001 369c0 6 0.332031 13.1689 0.999023 21.502s2.5 17 5.5 26s7.5 17.833 13.5 26.5s14.333 16.667 25 24l63 41
c9.33301 5.33301 17.5 12.166 24.5 20.499s10.5 19.166 10.5 32.499c0 19.333 -9.66699 29 -29 29c-10 0 -18 -2.66699 -24 -8s-9 -13.333 -9 -24v-8h-78v10c0 29.333 10.333 53.666 31 72.999s48.334 29 83.001 29c34 0 60.833 -8.66699 80.5 -26s29.5 -41 29.5 -71
c0 -25.333 -5.5 -46.5 -16.5 -63.5s-27.167 -32.5 -48.5 -46.5l-51 -32c-5.33301 -3.33301 -9.5 -7.16602 -12.5 -11.499s-4.5 -7.5 -4.5 -9.5h133v-73h-227v40z" />
    <glyph glyph-name="uni2155" unicode="&#x2155;" horiz-adv-x="686" 
d="M483 657h93l-191 -329l-183 -328h-94l193 330zM46 657h136v-259h57v-69h-193v69h55v188h-55v71zM628 259l-130.999 0.00195312v-62c12 10 29 15 51 15c28 0 51.167 -9 69.5 -27s27.5 -44.333 27.5 -79s-10.5 -61.834 -31.5 -81.501s-48.5 -29.5 -82.5 -29.5
s-61.333 8 -82 24s-31 38 -31 66v8h78v-5c0 -17.333 10.667 -26 32 -26c11.333 0 19.666 3.66699 24.999 11s8 17.666 8 30.999c0 29.333 -10.667 44 -32 44c-8.66699 0 -15.5 -1.83301 -20.5 -5.5s-9.5 -7.16699 -13.5 -10.5h-70v196h203v-69z" />
    <glyph glyph-name="uni2156" unicode="&#x2156;" horiz-adv-x="708" 
d="M505 657h93l-191 -329l-183 -328h-94l193 330zM650 259l-131.001 0.00195312v-62c12 10 29 15 51 15c28 0 51.167 -9 69.5 -27s27.5 -44.333 27.5 -79s-10.5 -61.834 -31.5 -81.501s-48.5 -29.5 -82.5 -29.5s-61.333 8 -82 24s-31 38 -31 66v8h78v-5
c0 -17.333 10.667 -26 32 -26c10.667 0 18.834 3.66699 24.501 11s8.5 17.666 8.5 30.999c0 29.333 -10.667 44 -32 44c-8.66699 0 -15.5 -1.83301 -20.5 -5.5s-9.5 -7.16699 -13.5 -10.5h-70v196h203v-69zM42.999 369.002c0 6 0.499023 13.1689 1.49902 21.502s3 17 6 26
s7.5 17.833 13.5 26.5s14.333 16.667 25 24l63 41c9.33301 5.33301 17.5 12.166 24.5 20.499s10.5 19.166 10.5 32.499c0 19.333 -9.66699 29 -29 29c-22 0 -33 -10.667 -33 -32v-8h-78v10c0 29.333 10.333 53.666 31 72.999s48.334 29 83.001 29
c34 0 60.833 -8.66699 80.5 -26s29.5 -41 29.5 -71c0 -25.333 -5.5 -46.5 -16.5 -63.5s-27.167 -32.5 -48.5 -46.5l-51 -32c-5.33301 -3.33301 -9.5 -7.16602 -12.5 -11.499s-4.83301 -7.5 -5.5 -9.5h134v-73h-228v40z" />
    <glyph glyph-name="uni2157" unicode="&#x2157;" horiz-adv-x="679" 
d="M476 657h93l-191 -329l-183 -328h-94l193 330zM621 259l-131.001 0.00195312v-62c12 10 29 15 51 15c28 0 51.167 -9 69.5 -27s27.5 -44.333 27.5 -79s-10.5 -61.834 -31.5 -81.501s-48.5 -29.5 -82.5 -29.5s-61.333 8 -82 24s-31 38 -31 66v8h78v-5
c0 -17.333 10.667 -26 32 -26c10.667 0 18.834 3.66699 24.501 11s8.5 17.666 8.5 30.999c0 29.333 -10.667 44 -32 44c-8.66699 0 -15.5 -1.83301 -20.5 -5.5s-9.5 -7.16699 -13.5 -10.5h-70v196h203v-69zM124.999 531.002l20.998 -0.00292969
c12.667 0 21.834 2.33301 27.501 7s8.5 13 8.5 25c0 10.667 -2.66699 18.5 -8 23.5s-12.666 7.5 -21.999 7.5s-16.666 -2.66699 -21.999 -8s-8 -13.666 -8 -24.999v-5h-78v8c0 28.667 10 52.834 30 72.501s47 29.5 81 29.5s60.333 -8.66699 79 -26s28 -39.666 28 -66.999
c0 -17.333 -3.16699 -31.666 -9.5 -42.999s-14.5 -20 -24.5 -26c11.333 -6.66699 20.833 -16.334 28.5 -29.001s11.5 -28.667 11.5 -48c0 -30 -10.333 -54 -31 -72s-48.667 -27 -84 -27c-34.667 0 -61.834 9.5 -81.501 28.5s-29.5 43.833 -29.5 74.5v8h78v-6
c0 -24 10.667 -36 32 -36c22 0 33 12.667 33 38c0 13.333 -3.5 22.5 -10.5 27.5s-16.5 7.5 -28.5 7.5h-21v61z" />
    <glyph glyph-name="uni2158" unicode="&#x2158;" horiz-adv-x="713" 
d="M509 657h93l-191 -329l-183 -328h-94l193 330zM654 259l-132 0.00195312v-62c13.333 10 30.666 15 51.999 15c28 0 51 -9 69 -27s27 -44.333 27 -79s-10.333 -61.834 -31 -81.501s-48 -29.5 -82 -29.5s-61.333 8 -82 24s-31 38 -31 66v8h78v-5
c0 -17.333 10.667 -26 32 -26c10.667 0 18.834 3.66699 24.501 11s8.5 17.666 8.5 30.999c0 29.333 -10.667 44 -32 44c-9.33301 0 -16.333 -1.83301 -21 -5.5l-13 -10.5h-70v196h203v-69zM261 657.002v-197h35v-67h-35v-64h-81v64h-144v77l132 187h93zM180 460.002v102
l-72 -102h72z" />
    <glyph glyph-name="uni2159" unicode="&#x2159;" horiz-adv-x="682" 
d="M483 657h93l-191 -329l-183 -328h-94l193 330zM46 657h136v-259h57v-69h-193v69h55v188h-55v71zM640 99c0 -34.667 -10.332 -60.667 -30.999 -78s-48 -26 -82 -26s-61.5 8.66699 -82.5 26s-31.5 43 -31.5 77v121c0 35.333 9.66699 63.166 29 83.499
s47.666 30.5 84.999 30.5c33.333 0 59.833 -8.33301 79.5 -25s29.5 -40 29.5 -70v-4h-78v2c0 8.66699 -2.66699 15.5 -8 20.5s-12.333 7.5 -21 7.5c-23.333 0 -35 -12.667 -35 -38v-38c14 8.66699 30.333 13 49 13c29.333 0 52.833 -8.66699 70.5 -26
s26.5 -42.666 26.5 -75.999zM526.001 137c-7.33301 0 -13.668 -1.16699 -19.001 -3.5s-9.66602 -4.83301 -12.999 -7.5v-26c0 -14.667 3 -24.667 9 -30s13.667 -8 23 -8c20.667 0 31 11.667 31 35c0 26.667 -10.333 40 -31 40z" />
    <glyph glyph-name="uni215A" unicode="&#x215a;" horiz-adv-x="684" 
d="M486 657h93l-192 -329l-182 -328h-94l193 330zM643 99c0 -34.667 -10.332 -60.667 -30.999 -78s-48 -26 -82 -26s-61.5 8.66699 -82.5 26s-31.5 43 -31.5 77v121c0 35.333 9.66699 63.166 29 83.499s47.666 30.5 84.999 30.5c33.333 0 59.833 -8.33301 79.5 -25
s29.5 -40 29.5 -70v-4h-79v2c0 18.667 -9.33301 28 -28 28c-23.333 0 -35 -12.667 -35 -38v-38c14 8.66699 30.333 13 49 13c29.333 0 52.833 -8.66699 70.5 -26s26.5 -42.666 26.5 -75.999zM529.001 137c-7.33301 0 -13.668 -1.16699 -19.001 -3.5
s-9.66602 -4.83301 -12.999 -7.5v-26c0 -14.667 2.83301 -24.667 8.5 -30s13.167 -8 22.5 -8c21.333 0 32 11.667 32 35c0 26.667 -10.333 40 -31 40zM251.999 588l-131 0.00195312v-62c12 10 29.333 15 52 15c28 0 51 -9 69 -27s27 -44.333 27 -79
s-10.333 -61.834 -31 -81.501s-48 -29.5 -82 -29.5s-61.5 8 -82.5 24s-31.5 38 -31.5 66v8h78v-5c0 -17.333 10.667 -26 32 -26c11.333 0 19.833 3.66699 25.5 11s8.5 17.666 8.5 30.999c0 29.333 -11 44 -33 44c-8.66699 0 -15.5 -1.83301 -20.5 -5.5
s-9.5 -7.16699 -13.5 -10.5h-70v196h203v-69z" />
    <glyph glyph-name="oneeighth" unicode="&#x215b;" horiz-adv-x="676" 
d="M483 657h93l-191 -329l-183 -328h-94l193 330zM46 657h136v-259h57v-69h-193v69h55v188h-55v71zM629 240c0 -18.667 -3.33301 -33.499 -10 -44.499s-14.667 -19.5 -24 -25.5c11.333 -5.33301 21 -14.166 29 -26.499s12 -29.166 12 -50.499
c0 -29.333 -10.167 -53 -30.5 -71s-47.833 -27 -82.5 -27s-62.167 9 -82.5 27s-30.5 41.667 -30.5 71c0 21.333 3.83301 38.166 11.5 50.499s17.167 21.166 28.5 26.499c-10 5.33301 -18.333 13.666 -25 24.999s-10 26.333 -10 45c0 27.333 9.5 49.666 28.5 66.999
s45.5 26 79.5 26c33.333 0 59.333 -8.66699 78 -26s28 -39.666 28 -66.999zM492 98.001c0 -26 10.333 -39 31 -39s31 13 31 39c0 14 -3 24.167 -9 30.5s-13.667 9.5 -23 9.5c-20 0 -30 -13.333 -30 -40zM495 233.001c0 -24.667 9.33301 -37 28 -37c17.333 0 26 12.333 26 37
c0 22 -9 33 -27 33s-27 -11 -27 -33z" />
    <glyph glyph-name="threeeighths" unicode="&#x215c;" horiz-adv-x="674" 
d="M481 657h93l-192 -329l-183 -328h-93l192 330zM627 240c0 -18.667 -3.33301 -33.499 -10 -44.499s-15 -19.5 -25 -25.5c12 -5.33301 21.833 -14.166 29.5 -26.499s11.5 -29.166 11.5 -50.499c0 -29.333 -10 -53 -30 -71s-47.333 -27 -82 -27c-35.333 0 -63 9 -83 27
s-30 41.667 -30 71c0 21.333 3.66699 38.166 11 50.499s17 21.166 29 26.499c-10.667 5.33301 -19.167 13.666 -25.5 24.999s-9.5 26.333 -9.5 45c0 27.333 9.5 49.666 28.5 66.999s45.5 26 79.5 26c33.333 0 59.333 -8.66699 78 -26s28 -39.666 28 -66.999zM490 98.001
c0 -26 10.333 -39 31 -39c20 0 30 13 30 39c0 26.667 -10.333 40 -31 40c-20 0 -30 -13.333 -30 -40zM493 233.001c0 -24.667 9.33301 -37 28 -37c16.667 0 25 12.333 25 37c0 22 -8.66699 33 -26 33c-18 0 -27 -11 -27 -33zM125 531.001l20.998 -0.00292969
c12.667 0 21.834 2.33301 27.501 7s8.5 13 8.5 25c0 10.667 -2.66699 18.5 -8 23.5s-12.666 7.5 -21.999 7.5s-16.666 -2.66699 -21.999 -8s-8 -13.666 -8 -24.999v-5h-78v8c0 28.667 10 52.834 30 72.501s47 29.5 81 29.5s60.333 -8.66699 79 -26s28 -39.666 28 -66.999
c0 -17.333 -3.16699 -31.666 -9.5 -42.999s-14.5 -20 -24.5 -26c11.333 -6.66699 20.833 -16.334 28.5 -29.001s11.5 -28.667 11.5 -48c0 -30 -10.333 -54 -31 -72s-48.667 -27 -84 -27c-34.667 0 -61.834 9.5 -81.501 28.5s-29.5 43.833 -29.5 74.5v8h78v-6
c0 -24 10.667 -36 32 -36c22 0 33 12.667 33 38c0 13.333 -3.5 22.5 -10.5 27.5s-16.5 7.5 -28.5 7.5h-21v61z" />
    <glyph glyph-name="fiveeighths" unicode="&#x215d;" horiz-adv-x="678" 
d="M485 657h93l-191 -329l-183 -328h-94l193 330zM631 240c0 -18.667 -3.33301 -33.499 -10 -44.499s-14.667 -19.5 -24 -25.5c11.333 -5.33301 21 -14.166 29 -26.499s12 -29.166 12 -50.499c0 -29.333 -10.167 -53 -30.5 -71s-47.833 -27 -82.5 -27s-62.167 9 -82.5 27
s-30.5 41.667 -30.5 71c0 21.333 3.83301 38.166 11.5 50.499s17.167 21.166 28.5 26.499c-10 5.33301 -18.333 13.666 -25 24.999s-10 26.333 -10 45c0 27.333 9.5 49.666 28.5 66.999s45.5 26 79.5 26c33.333 0 59.333 -8.66699 78 -26s28 -39.666 28 -66.999zM494 98.001
c0 -26 10.333 -39 31 -39s31 13 31 39c0 14 -3 24.167 -9 30.5s-13.667 9.5 -23 9.5c-20 0 -30 -13.333 -30 -40zM497 233.001c0 -24.667 9.33301 -37 28 -37c17.333 0 26 12.333 26 37c0 22 -9 33 -27 33s-27 -11 -27 -33zM252 588.001l-131 0.00195312v-62
c12 10 29.333 15 52 15c28 0 51 -9 69 -27s27 -44.333 27 -79s-10.333 -61.834 -31 -81.501s-48 -29.5 -82 -29.5s-61.5 8 -82.5 24s-31.5 38 -31.5 66v8h78v-5c0 -17.333 10.667 -26 32 -26c11.333 0 19.833 3.66699 25.5 11s8.5 17.666 8.5 30.999c0 29.333 -11 44 -33 44
c-8.66699 0 -15.5 -1.83301 -20.5 -5.5s-9.5 -7.16699 -13.5 -10.5h-70v196h203v-69z" />
    <glyph glyph-name="seveneighths" unicode="&#x215e;" horiz-adv-x="656" 
d="M459 657h94l-192 -329l-183 -328h-93l192 330zM608 240c0 -18.667 -3.33301 -33.499 -10 -44.499s-15 -19.5 -25 -25.5c12 -5.33301 21.833 -14.166 29.5 -26.499s11.5 -29.166 11.5 -50.499c0 -29.333 -10 -53 -30 -71s-47.333 -27 -82 -27c-35.333 0 -63 9 -83 27
s-30 41.667 -30 71c0 21.333 3.66699 38.166 11 50.499s17 21.166 29 26.499c-10.667 5.33301 -19.167 13.666 -25.5 24.999s-9.5 26.333 -9.5 45c0 27.333 9.5 49.666 28.5 66.999s45.5 26 79.5 26c33.333 0 59.333 -8.66699 78 -26s28 -39.666 28 -66.999zM471 98.001
c0 -26 10.333 -39 31 -39s31 13 31 39c0 14 -3 24.167 -9 30.5s-13.667 9.5 -23 9.5c-20 0 -30 -13.333 -30 -40zM474 233.001c0 -24.667 9.33301 -37 28 -37c17.333 0 26 12.333 26 37c0 22 -9 33 -27 33s-27 -11 -27 -33zM39 657.001h227v-61l-112 -267h-87l110 259h-138
v69z" />
    <glyph glyph-name="uni215F" unicode="&#x215f;" horiz-adv-x="496" 
d="M564 657h93l-192 -329l-183 -328h-93l192 330zM127 657h135v-259h57v-69h-192v69h54v188h-54v71z" />
    <glyph glyph-name="partialdiff" unicode="&#x2202;" horiz-adv-x="496" 
d="M443 187c0 -30 -4.83008 -57.167 -14.4971 -81.5s-23.334 -45 -41.001 -62s-38.667 -30.167 -63 -39.5s-51.5 -14 -81.5 -14c-29.333 0 -56.333 4.66699 -81 14s-45.667 22.5 -63 39.5s-30.833 37.667 -40.5 62s-14.5 51.5 -14.5 81.5v80c0 60.667 15 108.667 45 144
s72.333 53 127 53c25.333 0 47 -4.83301 65 -14.5s32.667 -22.167 44 -37.5c-2.66699 24 -7 46.833 -13 68.5s-14.667 41 -26 58s-25.5 30.5 -42.5 40.5s-37.5 15 -61.5 15c-11.333 0 -21.5 -0.833008 -30.5 -2.5l-23.5 -4.5l-21 -6l-22 85c10.667 4 22 7.33301 34 10
c10.667 2.66699 23.167 5.16699 37.5 7.5s29.5 3.5 45.5 3.5c51.333 0 92.666 -11.167 123.999 -33.5s55.666 -51 72.999 -86s29 -73.833 35 -116.5s9 -84 9 -124v-140zM164.003 178c0 -25.333 6.83301 -46 20.5 -62s33.167 -24 58.5 -24s45 8 59 24s21 36.667 21 62v98
c0 25.333 -7 46.166 -21 62.499s-33.667 24.5 -59 24.5s-44.833 -8.16699 -58.5 -24.5s-20.5 -37.166 -20.5 -62.499v-98z" />
    <glyph glyph-name="Delta" unicode="&#x2206;" horiz-adv-x="566" 
d="M30 0l187 657h133l187 -657h-507zM184 109h192l-96 371z" />
    <glyph glyph-name="product" unicode="&#x220f;" horiz-adv-x="599" 
d="M526 0h-125v545h-203v-545h-125v657h453v-657z" />
    <glyph glyph-name="summation" unicode="&#x2211;" horiz-adv-x="542" 
d="M206 544l161 -209l-180 -222h313v-113h-458v108l184 228l-173 213v108h431v-113h-278z" />
    <glyph glyph-name="minus" unicode="&#x2212;" horiz-adv-x="528" 
d="M61 383h406v-107h-406v107z" />
    <glyph glyph-name="uni2215" unicode="&#x2215;" horiz-adv-x="474" 
d="M378 657h94l-192 -329l-183 -328h-93l192 330z" />
    </font>
</defs>
</svg>
